<?xml version="1.0" encoding="utf-8"?>
<!-- Generator: Adobe Illustrator 26.3.1, SVG Export Plug-In . SVG Version: 6.00 Build 0)  -->
<svg version="1.1" id="Layer_1" xmlns="http://www.w3.org/2000/svg" xmlns:xlink="http://www.w3.org/1999/xlink" x="0px" y="0px"
	 viewBox="0 0 1000 1000" style="enable-background:new 0 0 1000 1000;" xml:space="preserve">
<style type="text/css">
	.st0{fill:none;}
	.st1{fill:#C0FF97;stroke:#0D052C;stroke-width:1.5;stroke-linecap:round;stroke-linejoin:round;}
	.st2{fill:none;stroke:#0D052C;stroke-width:1.5;stroke-linecap:round;stroke-linejoin:round;}
	.st3{fill:#9AF3FF;stroke:#0D052C;stroke-width:1.5;stroke-linecap:round;stroke-linejoin:round;}
	.st4{fill:#62A3FF;stroke:#0D052C;stroke-width:1.5;stroke-linecap:round;stroke-linejoin:round;}
	.st5{fill:#87D4FF;stroke:#0D052C;stroke-width:1.5;stroke-linecap:round;stroke-linejoin:round;}
	.st6{fill:#FFFEAA;stroke:#0D052C;stroke-width:1.5;stroke-linecap:round;stroke-linejoin:round;}
	.st7{fill:#FF81AF;stroke:#0D052C;stroke-width:1.5;stroke-linecap:round;stroke-linejoin:round;}
	.st8{fill:#1D1E5F;stroke:#0D052C;stroke-width:1.5;stroke-linecap:round;stroke-linejoin:round;}
	.st9{fill:#FFE483;stroke:#0D052C;stroke-width:1.5;stroke-linecap:round;stroke-linejoin:round;}
	.st10{fill:#6DE4A2;stroke:#0D052C;stroke-width:1.5;stroke-linecap:round;stroke-linejoin:round;}
</style>
<g id="All-Scenes">
	<g id="Best-Score">
		<rect id="BG" class="st0" width="1000" height="1000"/>
		<g id="Group" transform="translate(128.000000, 112.000000)">
			<g id="Objects-_x2F_-speech-bubble-_x28_2_x29_" transform="translate(-33.973333, 12.100000)">
				<path id="speech_bubble-2" class="st1" d="M692.3,479l13.2,140.8l-118.4-66l-39.7,98.1L472.2,573L416,701l-57.4-130.5
					l-60.5,68.4l-37.1-85.7c0,0-64.8,62.9-259.2,106.9c123.4-82.4,176.3-178.5,176.3-178.5L34.9,463.1l112.6-85.9L50,273.8
					l129.6-13.5L143.8,83l146.9,102.2l46.9-125.6L416,169.8L521.1,1.8l61,184.5l134.6-52.9L687,270.1l107.4,42.8l-92.6,56.9
					l90.7,74.8L692.3,479z"/>
				<g id="lines" transform="translate(473.200000, 145.200000)">
					<line id="Path" class="st2" x1="7.7" y1="0.2" x2="42.9" y2="45.5"/>
					<line id="Path_00000003091351999603657400000013956292677258510753_" class="st2" x1="32" y1="1.8" x2="40.7" y2="13"/>
					<line id="Path_00000049929378721802964540000005184450974540526722_" class="st2" x1="0.5" y1="20.7" x2="19.3" y2="44.9"/>
				</g>
				<g id="line" transform="translate(114.053333, 568.700000)">
					<path id="Path_00000144305730084430644660000014343713935860683940_" class="st2" d="M56.3,8.6c3.3-2.4,6.7-5,10-7.7"/>
					<path id="Path_00000135673167048234488060000001712032534631921076_" class="st2" d="M1.3,39.1c15.9-6.4,31-14.4,45.3-23.8"/>
				</g>
				<g id="line-2" transform="translate(684.320000, 321.860000)">
					<path id="Path_00000098935055487901772290000006376116282232250502_" class="st2" d="M39.3,6.2c3.9-1.5,7.9-3,11.9-4.4"/>
					<path id="Path_00000006704947539118556780000011822557344060911012_" class="st2" d="M1.6,22.8c0,0,12.3-6.1,28.3-12.8"/>
				</g>
			</g>
		</g>
		<g id="Group_00000121263345943854227030000017120290516636637111_" transform="translate(585.974107, 424.579293)">
			
				<g id="Shapes-_x2F_-three-dimensional-square-_x28_5_x29_" transform="translate(115.507867, 104.052821) rotate(24.000000) translate(-115.507867, -104.052821) ">
				<g transform="translate(-12.320839, -13.180024)">
					
						<rect id="square" x="186.7" y="-3" transform="matrix(3.036897e-06 1 -1 3.036897e-06 251.9634 -186.1267)" class="st3" width="64.8" height="71.9"/>
					<polygon id="rectangle" class="st4" points="255,65.3 72.5,233.3 0.6,233.3 71,168.5 183.1,65.3 					"/>
					<polygon id="rectangle-2" class="st5" points="183.1,0.5 183.1,65.3 71,168.5 0.6,233.3 0.6,168.5 					"/>
					<g id="lines_00000160881644924896982180000001842580278306751916_" transform="translate(0.000000, 20.810564)">
						<line id="Path_00000170265257744410827650000014111554690300603056_" class="st2" x1="0.6" y1="168.1" x2="183.1" y2="0.1"/>
						<line id="Path_00000119111697120793138480000015963240519964502174_" class="st2" x1="0.6" y1="187.9" x2="183.1" y2="19.9"/>
					</g>
				</g>
			</g>
		</g>
		<g id="Group_00000127760511409662551100000017474221081715135147_" transform="translate(199.544404, 222.116369)">
			
				<g id="Shapes-_x2F_-X-form-figure" transform="translate(104.293511, 104.052821) rotate(-202.000000) translate(-104.293511, -104.052821) ">
				<g transform="translate(4.171740, 20.810564)">
					<polygon id="Path_00000035507163753423356060000017317470085618524299_" class="st5" points="77.2,83.9 35.7,126.7 4.5,127.2 
						42.2,84.5 					"/>
					<polygon id="blue_rectangle" class="st4" points="42.2,84.5 42.3,84.4 0.5,43 34.2,42.4 77.2,83.9 					"/>
					<polygon id="Path_00000060730219165856497650000018347949132963534994_" class="st5" points="73.4,2 34.2,42.4 0.5,43 
						40.4,2.5 					"/>
					<polygon id="yellow_rectangle" class="st6" points="198.4,39.6 185.2,53.3 143.3,15.5 157.8,0.5 					"/>
					<polygon id="pink_x-form" class="st7" points="199.9,123.9 173.2,151.4 160.7,164.3 117.7,122.9 102.2,139 76.3,165.8 
						35.7,126.7 77.2,83.9 34.2,42.4 48.1,28.1 73.4,2 116.4,43.4 143.3,15.6 185.2,53.3 156.9,82.5 					"/>
					<polygon id="blue_rectangle-2" class="st4" points="4.5,127.2 44.3,166.3 76.2,165.8 35.7,126.7 					"/>
					<polygon id="blue_rectangle-3" class="st4" points="160.7,164.3 128.9,164.9 102.2,139 117.7,122.9 					"/>
					<polygon id="blue_rectangle-4" class="st4" points="157.9,0.5 116.4,43.4 100.5,28.1 128.8,1 					"/>
				</g>
			</g>
		</g>
		<g id="Group_00000044174150650102524860000017109238272816376252_" transform="translate(553.164556, 233.689727)">
			
				<g id="Shapes-_x2F_-Z-shape" transform="translate(108.779253, 108.528211) rotate(-19.000000) translate(-108.779253, -108.528211) ">
				<g transform="translate(31.908581, -2.894086)">
					<path id="blue_shape" class="st3" d="M26.9,96.2l0,126.5l65.3,0c0.2,0,0.4-0.2,0.4-0.4l0-60.6l61.3,0c0.1,0,0.2,0,0.3-0.1
						c0.1-0.1,0.1-0.2,0.1-0.3l0-130.2l-65.5,0l0,65.1L26.9,96.2z"/>
					<g id="shadow">
						<polygon id="Path_00000099646820658625202470000014350058090543541688_" class="st4" points="154.3,31.1 119.4,0.5 57.8,0.5 
							88.8,31.1 						"/>
						<polygon id="Path_00000064332170735198793920000014288784672609855390_" class="st4" points="88.8,96.2 57.8,65.6 0.5,65.6 
							27,96.2 						"/>
						<polygon id="Path_00000169552437442869994750000010527461065369264011_" class="st8" points="57.8,0.5 57.8,65.6 88.8,96.2 
							88.8,31.1 						"/>
						<polygon id="Path_00000165929648717305988600000007331886991238969531_" class="st8" points="0.5,65.6 0.5,194.6 26.9,222.7 
							27,96.2 						"/>
					</g>
					<g id="dots" transform="translate(33.358971, 41.240720)">
						<path id="Path_00000051349971702450898810000013950877055342215345_" class="st2" d="M17.3,149.6c1.8,0,1.8-2.8,0-2.8
							C15.5,146.8,15.5,149.6,17.3,149.6z"/>
						<path id="Path_00000106141365578814086360000009389636058357437615_" class="st2" d="M36.3,168.1c1.8,0,1.8-2.8,0-2.8
							C34.4,165.3,34.4,168.1,36.3,168.1z"/>
						<path id="Path_00000125572960907649453590000005058679990170162090_" class="st2" d="M36.3,133c1.8,0,1.8-2.8,0-2.8
							C34.4,130.2,34.4,133,36.3,133z"/>
						<path id="Path_00000056429082121601357240000007567355234120576928_" class="st2" d="M36.3,106.8c1.8,0,1.8-2.8,0-2.8
							C34.4,103.9,34.4,106.8,36.3,106.8z"/>
						<path id="Path_00000027605384568428336810000011682535949524016796_" class="st2" d="M55,89.1c1.8,0,1.8-2.8,0-2.8
							S53.2,89.1,55,89.1z"/>
						<path id="Path_00000110463580690844078650000007337606045435490222_" class="st2" d="M55,149.6c1.8,0,1.8-2.8,0-2.8
							S53.2,149.6,55,149.6z"/>
						<path id="Path_00000065056866011277418280000017762948008695862710_" class="st2" d="M36.3,68.4c1.8,0,1.8-2.8,0-2.8
							C34.4,65.6,34.4,68.4,36.3,68.4z"/>
						<path id="Path_00000176045656552033457160000008430937548993543306_" class="st2" d="M95,53.3c1.8,0,1.8-2.8,0-2.8
							C93.2,50.5,93.2,53.3,95,53.3z"/>
						<path id="Path_00000061453890941229775410000007569130014525335742_" class="st2" d="M76,35.1c1.8,0,1.8-2.8,0-2.8
							C74.1,32.3,74.1,35.1,76,35.1z"/>
						<path id="Path_00000080910661288404802530000011537723240519177407_" class="st2" d="M113.1,68.4c1.8,0,1.8-2.8,0-2.8
							C111.2,65.6,111.2,68.4,113.1,68.4z"/>
						<path id="Path_00000061469111791743283600000014378758026385566911_" class="st2" d="M113.1,35.1c1.8,0,1.8-2.8,0-2.8
							S111.2,35.1,113.1,35.1z"/>
						<path id="Path_00000067215904348727293170000012602685812570641082_" class="st2" d="M95,18.5c1.8,0,1.8-2.8,0-2.8
							C93.2,15.7,93.2,18.5,95,18.5z"/>
						<path id="Path_00000112618089174559374480000013442505492379611269_" class="st2" d="M113.1,3.3c1.8,0,1.8-2.8,0-2.8
							S111.2,3.3,113.1,3.3z"/>
						<path id="Path_00000132807605472508823390000006784612505791662772_" class="st2" d="M76,3.3c1.8,0,1.8-2.8,0-2.8
							C74.1,0.5,74.1,3.3,76,3.3z"/>
						<path id="Path_00000007427874314022245000000002703481631951963531_" class="st2" d="M17.3,89.1c1.8,0,1.8-2.8,0-2.8
							S15.5,89.1,17.3,89.1z"/>
						<path id="Path_00000093160290649302749520000007560833700159291550_" class="st2" d="M95,88.7c1.8,0,1.8-2.8,0-2.8
							S93.2,88.7,95,88.7z"/>
						<path id="Path_00000004510523487842709600000012164468659643592350_" class="st2" d="M76,106.8c1.8,0,1.8-2.8,0-2.8
							C74.1,103.9,74.1,106.8,76,106.8z"/>
						<path id="Path_00000003794395302590433280000011096591717312365211_" class="st2" d="M76,68.4c1.8,0,1.8-2.8,0-2.8
							C74.1,65.6,74.1,68.4,76,68.4z"/>
						<path id="Path_00000021816139957186010870000008259197577431560593_" class="st2" d="M113.1,106.8c1.8,0,1.8-2.8,0-2.8
							S111.2,106.8,113.1,106.8z"/>
						<path id="Path_00000158021937644282681670000011594584969480549271_" class="st2" d="M1.5,106.8c1.8,0,1.8-2.8,0-2.8
							C-0.4,103.9-0.4,106.8,1.5,106.8z"/>
						<path id="Path_00000171714829733431825120000001378209826432180395_" class="st2" d="M1.5,68.4c1.8,0,1.8-2.8,0-2.8
							S-0.4,68.4,1.5,68.4z"/>
						<path id="Path_00000168815497903191589420000010533221341224947605_" class="st2" d="M1.5,133c1.8,0,1.8-2.8,0-2.8
							S-0.4,133,1.5,133z"/>
						<path id="Path_00000036964822577599703150000006359247489717872276_" class="st2" d="M1.5,168.1c1.8,0,1.8-2.8,0-2.8
							S-0.4,168.1,1.5,168.1z"/>
					</g>
				</g>
			</g>
		</g>
		<g id="Group_00000055688519589392417610000004747334856309088386_" transform="translate(123.820626, 283.230983)">
			<g id="stars" transform="translate(25.232301, 25.174070) rotate(-208.000000) translate(-25.232301, -25.174070) ">
				<g id="star_00000107548563770178924390000015094113744565987981_" transform="translate(0.841077, 2.013926)">
					<path id="star-2" class="st9" d="M29.2,9.4l2.7,5.4c0.1,0.2,0.3,0.3,0.5,0.3l16.3,2.4c0.1,0,0.1,0.1,0.1,0.1c0,0.1,0,0.1,0,0.2
						L36.9,29.3c-0.1,0.1-0.2,0.3-0.2,0.5l2.8,16.2c0,0.1,0,0.1-0.1,0.2s-0.1,0-0.2,0l-14.6-7.6c-0.2-0.1-0.4-0.1-0.6,0L9.5,46.1
						c-0.1,0-0.1,0-0.2,0c-0.1,0-0.1-0.1-0.1-0.2L12,29.8c0-0.2,0-0.4-0.2-0.5L0.1,17.8c0,0-0.1-0.1,0-0.2s0.1-0.1,0.1-0.1l16.3-2.4
						c0.2,0,0.4-0.2,0.5-0.3l7.3-14.7C24.3,0,24.3,0,24.4,0c0.1,0,0.1,0,0.2,0.1l3.9,7.8"/>
				</g>
			</g>
		</g>
		<g id="Group_00000105404427753654546010000008642626053552163202_" transform="translate(752.239179, 354.732427)">
			
				<g id="stars_00000149383844968291658540000011487801113032042687_" transform="translate(34.203786, 34.124850) rotate(-241.000000) translate(-34.203786, -34.124850) ">
				<g id="star_00000029756062925160988470000015663445174451391165_" transform="translate(1.140126, 2.729988)">
					<path id="star-2_00000164493599719827406050000002177825235070492304_" class="st9" d="M39.6,12.8l3.6,7.3
						c0.1,0.2,0.4,0.4,0.6,0.5l22.1,3.2c0.1,0,0.2,0.1,0.2,0.2c0,0.1,0,0.2-0.1,0.2L50,39.7c-0.2,0.2-0.3,0.5-0.2,0.7l3.8,21.9
						c0,0.1,0,0.2-0.1,0.2c-0.1,0.1-0.2,0.1-0.3,0L33.4,52.2c-0.2-0.1-0.5-0.1-0.8,0L12.9,62.5c-0.1,0-0.2,0-0.2,0
						c-0.1-0.1-0.1-0.1-0.1-0.2l3.8-21.9c0-0.3,0-0.5-0.2-0.7l-16-15.5C0,24.1,0,24,0,23.9c0-0.1,0.1-0.1,0.2-0.2l22.1-3.2
						c0.3,0,0.5-0.2,0.6-0.5l9.9-19.9C32.9,0.1,33,0,33.1,0c0.1,0,0.2,0.1,0.2,0.1l5.2,10.6"/>
				</g>
			</g>
		</g>
		<g id="Group_00000047771639502911514030000017687906413623745678_" transform="translate(647.951031, 82.742087)">
			
				<g id="stars_00000024002225468021937050000009637564161534084784_" transform="translate(47.100295, 46.991597) rotate(-208.000000) translate(-47.100295, -46.991597) ">
				<g id="star_00000026143407801965725070000004900349739234213529_" transform="translate(1.570010, 3.759328)">
					<path id="star-2_00000033337773052200853110000017363942365193285012_" class="st9" d="M54.5,17.6l5,10
						c0.2,0.3,0.5,0.6,0.9,0.6l30.5,4.4c0.1,0,0.2,0.1,0.3,0.2s0,0.2-0.1,0.3l-22,21.4c-0.3,0.3-0.4,0.6-0.3,1l5.2,30.2
						c0,0.1,0,0.2-0.1,0.3c-0.1,0.1-0.2,0.1-0.3,0L46.1,71.9c-0.3-0.2-0.7-0.2-1.1,0L17.7,86.1c-0.1,0.1-0.2,0.1-0.3,0
						c-0.1-0.1-0.2-0.2-0.1-0.3l5.2-30.2c0.1-0.4-0.1-0.7-0.3-1L0.1,33.2C0,33.1,0,33,0,32.9s0.1-0.2,0.3-0.2l30.5-4.4
						c0.4-0.1,0.7-0.3,0.9-0.6L45.2,0.2C45.3,0.1,45.4,0,45.5,0c0.1,0,0.2,0.1,0.3,0.2L53,14.7"/>
				</g>
			</g>
		</g>
		<g id="Group_00000135666467623115225850000017621885929014152098_" transform="translate(552.686531, 633.670332)">
			
				<g id="Shapes-_x2F_-yellow--shape" transform="translate(95.882744, 95.661465) rotate(-20.000000) translate(-95.882744, -95.661465) ">
				<g transform="translate(8.309838, 9.566146)">
					<polygon id="yellow_L-shape" class="st9" points="0.5,66.7 0.5,131.1 131.4,131.1 131.4,0.5 66.9,0.5 66.9,66.7 					"/>
					<polygon id="green_part" class="st10" points="131.4,0.5 174.6,43.2 174.5,172.4 43.6,172.4 0.5,131.1 131.4,131.1 					"/>
					<g id="lines_00000089531910644373300330000010860010120557104305_" transform="translate(30.682478, 35.713613)">
						<line id="Path_00000090992786997733954920000007799478123164028288_" class="st2" x1="143.8" y1="40.6" x2="100.7" y2="0.6"/>
						<line id="Path_00000166642875966108332790000013675296095236495015_" class="st2" x1="143" y1="72.8" x2="101.6" y2="34.3"/>
						<line id="Path_00000054238639839983420260000003313152108534894209_" class="st2" x1="143" y1="103.6" x2="101.6" y2="65.9"/>
						
							<line id="Path_00000039813536888271793220000006545717744245400764_" class="st2" x1="143.8" y1="136.7" x2="99.9" y2="95.4"/>
						
							<line id="Path_00000134968778272896365290000012469075893578287246_" class="st2" x1="108.6" y1="136.7" x2="64.2" y2="95.4"/>
						<line id="Path_00000116921256217981987570000004237059591400757389_" class="st2" x1="76.5" y1="136.3" x2="33.6" y2="95.4"/>
						<line id="Path_00000059996544651984309950000013285710732459612346_" class="st2" x1="43.7" y1="136.7" x2="0.4" y2="95.4"/>
					</g>
				</g>
			</g>
		</g>
	</g>
</g>
</svg>
