<?xml version="1.0" encoding="UTF-8"?>
<svg width="1000px" height="1000px" viewBox="0 0 1000 1000" version="1.1" xmlns="http://www.w3.org/2000/svg" xmlns:xlink="http://www.w3.org/1999/xlink">
    <title>Error</title>
    <g id="All-Scenes" stroke="none" stroke-width="1" fill="none" fill-rule="evenodd">
        <g id="Error">
            <rect id="BG" x="0" y="0" width="1000" height="1000"></rect>
            <g id="Group" transform="translate(168.000000, 684.000000)" fill-rule="nonzero" stroke="#0D052C" stroke-linecap="round" stroke-linejoin="round" stroke-width="1.5">
                <g id="Shapes-/-three-dimensional-rectangle" transform="translate(274.000000, 110.000000) scale(-1, -1) translate(-274.000000, -110.000000) ">
                    <g transform="translate(-65.760000, 41.066667)">
                        <rect id="rectangle" fill="#FFFEAA" x="149.33" y="0.55" width="528.235467" height="78.408"></rect>
                        <path d="M149.33,78.958 L1.37,137.485333 L481.783333,137.485333 C482.054183,137.485333 482.317181,137.448754 482.532267,137.382667 L677.510667,78.958 L149.33,78.958 Z" id="pink_part_rectangle" fill="#FF81AF"></path>
                        <path d="M149.33,0.55 L3.10533333,60.4266667 C1.99084981,60.8827506 1.36759221,61.4964307 1.36999305,62.1353333 L1.36999305,137.485333 L149.33,78.958 L149.33,0.55 Z" id="blue_part_rectangle" fill="#62A3FF"></path>
                        <g id="lines" transform="translate(0.000000, 14.666667)">
                            <line x1="149.33" y1="0.579333333" x2="1.37" y2="61.1673333" id="Path"></line>
                            <line x1="149.33" y1="16.7566667" x2="1.37" y2="77.352" id="Path"></line>
                            <line x1="149.33" y1="32.538" x2="1.37" y2="93.1333333" id="Path"></line>
                            <line x1="149.33" y1="48.356" x2="1.37" y2="108.944" id="Path"></line>
                        </g>
                    </g>
                </g>
            </g>
            <g id="Group" transform="translate(233.000000, 178.000000)" fill-rule="nonzero" stroke="#0D052C" stroke-linecap="round" stroke-linejoin="round" stroke-width="1.5">
                <g id="Windows-/-blue-screen-with-grid" transform="translate(309.000000, 215.500000) scale(-1, 1) translate(-309.000000, -215.500000) ">
                    <g transform="translate(29.046000, 5.541429)">
                        <rect id="screen" fill="#87D4FF" x="0.4635" y="28.1627714" width="563.57274" height="392.222314"></rect>
                        <g id="grid" transform="translate(0.000000, 27.707143)">
                            <line x1="38.0379" y1="0.455628571" x2="38.0379" y2="392.677943" id="Path"></line>
                            <line x1="0.4635" y1="0.455628571" x2="564.03624" y2="0.455628571" id="Path"></line>
                            <line x1="75.60612" y1="0.455628571" x2="75.60612" y2="392.677943" id="Path"></line>
                            <line x1="113.18052" y1="0.455628571" x2="113.18052" y2="392.677943" id="Path"></line>
                            <line x1="150.74874" y1="392.677943" x2="150.74874" y2="0.455628571" id="Path"></line>
                            <line x1="188.32314" y1="0.455628571" x2="188.32314" y2="392.677943" id="Path"></line>
                            <line x1="0.4635" y1="39.6766286" x2="564.03624" y2="39.6766286" id="Path"></line>
                            <line x1="0.4635" y1="78.9037857" x2="564.03624" y2="78.9037857" id="Path"></line>
                            <line x1="0.4635" y1="118.124786" x2="564.03624" y2="118.124786" id="Path"></line>
                            <line x1="0.4635" y1="157.345786" x2="564.03624" y2="157.345786" id="Path"></line>
                            <line x1="0.4635" y1="196.566786" x2="564.03624" y2="196.566786" id="Path"></line>
                            <line x1="225.89136" y1="0.455628571" x2="225.89136" y2="392.677943" id="Path"></line>
                            <line x1="263.46576" y1="0.455628571" x2="263.46576" y2="392.677943" id="Path"></line>
                            <line x1="301.03398" y1="0.455628571" x2="301.03398" y2="392.677943" id="Path"></line>
                            <line x1="338.60838" y1="0.455628571" x2="338.60838" y2="392.677943" id="Path"></line>
                            <line x1="376.1766" y1="0.455628571" x2="376.1766" y2="392.677943" id="Path"></line>
                            <line x1="413.751" y1="0.455628571" x2="413.751" y2="392.677943" id="Path"></line>
                            <line x1="451.3254" y1="0.455628571" x2="451.3254" y2="392.677943" id="Path"></line>
                            <line x1="488.89362" y1="0.455628571" x2="488.89362" y2="392.677943" id="Path"></line>
                            <line x1="526.46802" y1="0.455628571" x2="526.46802" y2="392.677943" id="Path"></line>
                            <line x1="0.618" y1="235.793943" x2="563.78904" y2="235.793943" id="Path"></line>
                            <line x1="0.7107" y1="275.014943" x2="563.78904" y2="275.014943" id="Path"></line>
                            <line x1="0.7107" y1="314.235943" x2="563.78904" y2="314.235943" id="Path"></line>
                            <line x1="0.7107" y1="353.456943" x2="563.78904" y2="353.456943" id="Path"></line>
                        </g>
                        <g id="lines-3" transform="translate(126.690000, 159.470000)">
                            <path d="M0.27192,0.233971429 C5.253,5.49217143 15.28314,16.2117571 15.28314,16.2117571" id="Path"></path>
                            <path d="M9.96216,1.84714286 C11.77908,3.75585714 14.74548,6.88984286 16.82814,9.10025714" id="Path"></path>
                            <path d="M1.6068,9.70981429 C2.2248,10.3563143 3.59676,11.7416714 6.5508,14.8941286" id="Path"></path>
                        </g>
                        <rect id="upper_screen_part" fill="#FFFFFF" x="0.4635" y="0.461785714" width="563.57274" height="27.7009857"></rect>
                        <g id="minimize_button" transform="translate(13.596000, 6.772857)">
                            <rect id="square" fill="#FFFFFF" x="0.34608" y="0.153928571" width="14.3067" height="14.7709857"></rect>
                            <line x1="3.55968" y1="11.3229857" x2="11.433" y2="11.3229857" id="line"></line>
                        </g>
                        <g id="maximize_button" transform="translate(43.260000, 6.772857)">
                            <rect id="square-2" fill="#FFFFFF" x="0.51294" y="0.153928571" width="14.3067" height="14.7709857"></rect>
                            <rect id="square-3" x="4.08498" y="3.8359" width="7.1688" height="7.40088571"></rect>
                        </g>
                        <g id="close_button" transform="translate(73.542000, 6.772857)">
                            <rect id="square-4" fill="#FFFFFF" x="0.0618" y="0.153928571" width="14.3067" height="14.7709857"></rect>
                            <g id="cross" transform="translate(3.090000, 3.694286)">
                                <line x1="0.54384" y1="0.141614286" x2="7.71264" y2="7.54865714" id="Path"></line>
                                <line x1="0.54384" y1="7.54865714" x2="7.71264" y2="0.141614286" id="Path"></line>
                            </g>
                        </g>
                    </g>
                </g>
            </g>
            <g id="Group" transform="translate(360.000000, 105.000000)" fill-rule="nonzero" stroke="#0D052C" stroke-linecap="round" stroke-linejoin="round" stroke-width="1.5">
                <g id="Objects-/-hand" transform="translate(188.000000, 187.500000) scale(-1, 1) translate(-188.000000, -187.500000) ">
                    <g transform="translate(112.800000, -35.000000)">
                        <g id="hand-2">
                            <path d="M131.6,444.4375 C128.266133,395.4 128.529333,224.0875 128.529333,224.0875 C128.529333,224.0875 143.3688,195.5875 142.077867,165.3375 C141.376,148.6375 144.033067,136.475 148.0688,114.5875 C152.104533,92.7 150.186933,81.4625 139.408267,79.45 C128.040533,77.325 122.663733,90.975 122.663733,90.975 C122.663733,90.975 127.276,70.2375 113.426667,67.35 C99.5773333,64.4625 95.2533333,77.75 95.2533333,77.75 C95.2533333,77.75 98.9381333,38.75 98.324,19.5125 C97.6848,1.11022302e-16 86.3170667,0.9875 86.3170667,0.9875 C69.8232,-0.6 66.6773333,34.55 66.6773333,34.55 L57.1394667,117.8375 C57.1394667,117.8375 44.7314667,57.5875 42.4253333,40.825 C40.1192,24.0625 36.4093333,5.5 24.5277333,5.75 C16.2933333,5.925 11.1546667,11.25 12.4330667,41.15 C13.3856,63.3375 17.6344,116.025 18.1232,122.1 C18.1524156,122.443768 17.9820209,122.77394 17.6845333,122.95 C14.4885333,124.8625 -2.50666667,140.8375 1.56666667,166.5375 C4.91980333,186.947011 12.2980373,206.490666 23.2744,224.0375 C23.2744,224.0375 15.7544,396.0375 13.7741333,444.3875 L131.6,444.4375 Z" id="Path" fill="#FFE2BF"></path>
                            <path d="M70.7256,121.25 C70.7256,121.25 67.2789333,128.9125 73.8965333,134.2" id="Path"></path>
                            <path d="M95.2533333,77.75 C95.2533333,77.75 91.0170667,115.8 89.6634667,125.575 C88.3098667,135.35 88.6482667,150.575 98.7250667,153.7125 C107.4984,156.4 114.316533,152.925 117.775733,124.6875 C120.9968,98.5625 122.701333,91 122.701333,91" id="Path"></path>
                            <path d="M117.036267,130.225 C117.036267,130.225 111.383733,156.7125 125.934933,158.975 C137.490667,160.7625 144.6096,136 147.2416,118.975" id="Path"></path>
                            <path d="M13.7866667,126.3875 C13.7866667,126.3875 17.2208,121.25 27.072,120.925 C27.072,120.925 63.6693333,117.4875 75.1373333,116.625 C86.6053333,115.7625 89.7762667,116.9125 89.7762667,123.825 C89.7762667,130.7375 85.0136,145.6625 51.136,147 C50.9896825,146.990833 50.8597709,147.092653 50.83411,147.236612 C50.8084491,147.380571 50.8952131,147.52081 51.0357333,147.5625 C56.3749333,149.6875 75.4256,158.8125 79.3861333,182.5625" id="Path"></path>
                            <path d="M99.7152,235.1875 C99.7152,235.1875 118.064,239.0125 128.541867,224.0875" id="Path"></path>
                            <path d="M40.9088,225.4875 C40.9088,225.4875 49.2058667,237.8625 74.9242667,233.1625" id="Path"></path>
                            <path d="M95.6042667,132.5 C97.2085333,132.5 105.2424,130.2 110.005067,135.525" id="Path"></path>
                            <path d="M123.453333,137.5 C123.453333,137.5 131.324267,137.025 134.9464,142.225" id="Path"></path>
                        </g>
                        <path d="M23.3370667,72.9 C23.3370667,72.9 27.5733333,67.1 40.4074667,70.85" id="line"></path>
                        <path d="M71.7157333,70 C71.7157333,70 76.7290667,64.8875 88.8989333,70.425" id="line-2"></path>
                        <g id="line-3" transform="translate(99.013333, 101.250000)">
                            <path d="M12.2450667,2.15 C13.2308185,2.46817214 14.1938989,2.85237975 15.1277333,3.3" id="Path"></path>
                            <path d="M0.701866667,1.5875 C2.94529193,0.972953183 5.29059555,0.819850675 7.5952,1.1375" id="Path"></path>
                        </g>
                        <g id="lines" transform="translate(35.093333, 260.000000)">
                            <line x1="14.6138667" y1="70.5" x2="13.3605333" y2="80.6375" id="Path"></line>
                            <line x1="70.9888" y1="0.15" x2="73.132" y2="11.6375" id="Path"></line>
                            <line x1="6.9184" y1="5.9" x2="5.81546667" y2="15.5" id="Path"></line>
                            <line x1="77.2304" y1="87.3875" x2="79.0477333" y2="98.025" id="Path"></line>
                            <line x1="45.9597333" y1="41.775" x2="45.9597333" y2="51.1375" id="Path"></line>
                            <line x1="0.313333333" y1="158.6125" x2="2.5568" y2="147.4375" id="Path"></line>
                            <line x1="36.7728" y1="130.825" x2="36.7728" y2="141.35" id="Path"></line>
                            <line x1="70.9888" y1="157.3125" x2="72.0541333" y2="167.2" id="Path"></line>
                        </g>
                        <path d="M128.566933,107.4125 C132.474714,107.011925 136.396038,108.032931 139.6088,110.2875" id="line-4"></path>
                        <path d="M11.6058667,154.45 C11.6058667,154.45 9.37493333,167.4125 15.7669333,176.35" id="line-5"></path>
                    </g>
                </g>
            </g>
            <g id="Group" transform="translate(142.000000, 203.000000)" fill-rule="nonzero" stroke="#0D052C" stroke-linecap="round" stroke-linejoin="round" stroke-width="1.5">
                <g id="Shapes-/-colored-cylinder" transform="translate(126.500000, 126.500000) scale(1, -1) rotate(-180.000000) translate(-126.500000, -126.500000) ">
                    <g transform="translate(-21.926667, 16.023333)">
                        <path d="M289.010333,203.631267 C277.395971,221.26634 253.685221,226.148187 236.049,214.535567 L215.6319,201.092833 C232.914952,208.272799 252.86109,202.132107 263.113435,186.474994 C273.36578,170.81788 271.019733,150.08017 257.5287,137.109133 L278.106033,150.6615 C295.742152,162.279061 300.623761,185.992425 289.010333,203.631267 Z" id="light_pink_part" fill="#FFB8D2"></path>
                        <path d="M269.461941,165.1584 C269.456488,178.157193 262.961985,190.295207 252.150767,197.512284 C241.339549,204.72936 227.638982,206.072654 215.6319,201.092833 L179.764933,177.4795 C197.075841,184.674235 217.055874,178.500099 227.289933,162.793546 C237.523992,147.086994 235.101107,126.315588 221.5268,113.386167 L257.5287,137.092267 C265.171229,144.426196 269.482566,154.566217 269.461941,165.1584 Z" id="green_part" fill="#6DE4A2"></path>
                        <path d="M233.535929,141.511333 C233.535929,154.500774 227.053891,166.633509 216.255673,173.853209 C205.457455,181.072908 191.768314,182.426948 179.764933,177.462633 L179.764933,177.462633 L140.1873,151.403633 C157.544612,158.473475 177.475474,152.16253 187.600168,136.390735 C197.724863,120.618941 195.165016,99.8700986 181.510633,87.032 L221.5521,113.403033 C229.223867,120.738455 233.554888,130.897 233.535929,141.511333 L233.535929,141.511333 Z" id="yellow_part" fill="#FFE483"></path>
                        <path d="M193.71368,115.334267 C193.704628,128.275785 187.26614,140.367075 176.533388,147.598326 C165.800635,154.829578 152.176402,156.255656 140.178867,151.403633 L140.178867,151.403633 L99.9940333,124.939833 C117.250285,132.203425 137.232867,126.148008 147.554408,110.527388 C157.875949,94.9067681 155.609772,74.1501766 142.1607,61.1248 L181.485333,87.032 C189.296263,94.3716957 193.722429,104.615979 193.71368,115.334267 Z" id="violet_part" fill="#9E59FF"></path>
                        <path d="M153.958962,89.056 C153.950977,102.080951 147.428097,114.238497 136.580001,121.447396 C125.731906,128.656294 111.996834,129.960789 99.9856,124.922967 L61.3272,99.5133333 C78.6058233,106.781215 98.6103972,100.697023 108.916495,85.0395241 C119.222592,69.3820248 116.900603,48.6020169 103.392667,35.6055333 L142.118533,61.1079333 C149.697318,68.4291956 153.971729,78.5185103 153.958962,89.056 Z" id="light_blue_part" fill="#9AF3FF"></path>
                        <path d="M115.258387,63.5704667 C115.261425,76.5943067 108.752719,88.7572568 97.9151859,95.9800192 C87.0776529,103.202782 73.3465825,104.528796 61.3272,99.5133333 L61.3272,99.5133333 L17.6003667,70.6797667 C34.9654062,82.3185764 58.4577126,77.8620101 70.3538804,60.672255 C82.2500482,43.4825 78.1438901,19.9264199 61.1332333,7.77553333 L103.392667,35.6055333 C110.984981,42.9265784 115.269123,53.0233902 115.258387,63.5704667 L115.258387,63.5704667 Z" id="pink_part" fill="#FF81AF"></path>
                        <path d="M77.1397107,38.8861 C77.1526152,56.2729606 65.4434423,71.483588 48.631798,75.9188675 C31.8201537,80.3541469 14.1313461,72.8993496 5.56549441,57.7689408 C-3.00035724,42.6385319 -0.290378315,23.6352708 12.1633826,11.5023846 C24.6171435,-0.630501502 43.6846549,-2.84362739 58.5863667,6.11416667 C58.6262577,6.12687087 58.6634354,6.14688962 58.696,6.1732 L61.1163667,7.78396667 C71.1764641,14.9469962 77.1471563,26.536424 77.1397107,38.8861 Z" id="white_circle" fill="#FFFFFF"></path>
                        <g id="lines" transform="translate(26.986667, 25.300000)">
                            <line x1="3.48296667" y1="0.767433333" x2="18.2750333" y2="19.8520667" id="Path"></line>
                            <line x1="13.6957333" y1="1.43366667" x2="17.3473667" y2="6.13946667" id="Path"></line>
                            <line x1="0.463833333" y1="9.3863" x2="8.36586667" y2="19.5737667" id="Path"></line>
                        </g>
                        <g id="line" transform="translate(201.556667, 123.970000)">
                            <path d="M11.1488667,8.6779 C11.1519529,5.96624915 10.8234257,3.26439636 10.1706,0.6325" id="Path"></path>
                            <path d="M0.640933333,32.89 C6.20902517,27.6939125 9.81335578,20.7354693 10.8452667,13.1897333" id="Path"></path>
                        </g>
                    </g>
                </g>
            </g>
            <g id="Group" transform="translate(233.000000, 324.000000)" fill-rule="nonzero" stroke="#0D052C" stroke-linecap="round" stroke-linejoin="round" stroke-width="1.5">
                <g id="computer" transform="translate(-36.500000, 5.826667)">
                    <path d="M380.3446,0 L473.4488,0 L473.4488,340.962006 L24.82,340.962006 C11.1122925,340.962006 -8.71409611e-13,329.875084 -8.71409611e-13,316.198673 L-8.71409611e-13,24.8653394 C0.0563294383,11.0990664 11.2703316,-0.0241704689 25.0682,0 L361.1018,0" id="white_screen_frame-2" fill="#FFFFFF"></path>
                    <path d="M11.0813225,22.9716728 C11.0697567,19.6841489 12.3705549,16.5272903 14.6964065,14.1985491 C17.0222582,11.8698079 20.1817326,10.5608728 23.4768,10.5608728" id="line"></path>
                    <path d="M27.813,332.323973 C18.1369712,332.323973 10.293,324.49791 10.293,314.843973" id="Path"></path>
                    <line x1="31.4338" y1="332.323973" x2="39.2594" y2="332.323973" id="Path"></line>
                    <path d="M473.4488,3.94450331e-05 L484.4864,3.94450331e-05 C499.11333,3.94450331e-05 510.9708,11.8304374 510.9708,26.4239728 L510.9708,324.210339 C510.9708,333.462029 503.453661,340.962006 494.1808,340.962006 L473.4488,340.962006 L473.4488,3.94450331e-05 Z" id="side_shadow" fill="#1D1E5F"></path>
                    <rect id="yellow_screen" fill="#FFE483" x="22.557" y="21.7772061" width="426.32" height="279.0245" rx="2.12"></rect>
                    <path d="M274.042,413.110706 L155.5776,413.110706 C155.5776,413.110706 186.4712,402.083739 202.6042,382.520706 C218.2992,363.467506 209.4224,341.005706 209.4224,341.005706 L320.3824,341.005706 C320.3824,341.005706 340.3844,400.175506 274.042,413.110706 Z" id="pink_holder_part" fill="#FF81AF"></path>
                    <path d="M274.042,413.110706 L274.042,424.006573 L158.2932,424.006573 C156.793416,424.006573 155.5776,422.793533 155.5776,421.297173 L155.5776,413.110706 L274.042,413.110706 Z" id="aqua_rectangle" fill="#53F2D4"></path>
                    <path d="M360.6784,413.037873 C360.6784,413.037873 360.6784,413.139839 360.6784,413.183539 C359.355007,419.401573 353.908507,423.887695 347.5384,424.006573 L274.042,424.006573 L274.042,413.110706 C340.3844,400.175506 320.4262,340.976573 320.4262,340.976573 L345.8594,340.976573 C345.8594,340.976573 366.752,372.163806 360.6784,413.037873 Z" id="side_shadow-2" fill="#1D1E5F"></path>
                    <path d="M283.167,389.818606 C280.369179,391.946969 277.300752,393.695653 274.042,395.018906" id="Path"></path>
                    <path d="M295.0222,356.446373 C296.0734,363.729706 296.1464,375.922006 287.7222,385.579706" id="Path"></path>
                    <line x1="248.638" y1="320.889139" x2="261.0918" y2="320.889139" id="Path"></line>
                    <line x1="212.3862" y1="320.889139" x2="239.4108" y2="320.889139" id="Path"></line>
                    <line x1="492.1952" y1="119.767173" x2="492.1952" y2="196.635473" id="Path"></line>
                    <line x1="492.1952" y1="226.875873" x2="492.1952" y2="243.744073" id="Path"></line>
                    <line x1="334.7196" y1="241.136639" x2="356.5174" y2="269.206606" id="Path"></line>
                    <line x1="348.8086" y1="242.695273" x2="361.1018" y2="258.514673" id="Path"></line>
                    <line x1="332.8654" y1="255.339139" x2="345.6258" y2="271.755773" id="Path"></line>
                    <line x1="353.1302" y1="242.695273" x2="333.4786" y2="267.983006" id="Path"></line>
                    <line x1="342.7058" y1="239.534306" x2="334.7196" y2="249.818373" id="Path"></line>
                    <line x1="359.1892" y1="251.478973" x2="346.6478" y2="267.618839" id="Path"></line>
                    <path d="M334.7488,102.097806 L404.6828,102.097806 C406.391,102.097806 407.7634,104.253673 407.7634,106.904806 L407.7634,205.521139 C407.7634,208.172273 406.391,210.328139 404.6828,210.328139 L68.7952,210.328139 C67.087,210.328139 65.7,208.172273 65.7,205.521139 L65.7,106.904806 C65.7,104.253673 67.16,102.097806 68.7952,102.097806 L317.915,102.097806" id="red_rectangle" fill="#FF5986"></path>
                    <path d="M199.363,185.695926 L271.8666,185.695926 C274.838142,185.697038 277.548881,184.003431 278.845362,181.335737 C280.141844,178.668043 279.795925,175.495697 277.9548,173.168573 L241.703,127.181606 C240.229997,125.320731 237.984149,124.235115 235.6075,124.235115 C233.230851,124.235115 230.985003,125.320731 229.512,127.181606 L193.2602,173.168573 C191.41743,175.49776 191.072657,178.673458 192.372809,181.342304 C193.672961,184.011151 196.388823,185.702633 199.363,185.695926 L199.363,185.695926 Z" id="triangle" fill="#FFFFFF"></path>
                    <path d="M233.235,163.729373 L231.0012,145.856073 C230.971766,145.618806 231.046268,145.380395 231.20564,145.20186 C231.365011,145.023325 231.593782,144.921996 231.8334,144.923782 L240.3014,144.923782 C240.542321,144.926192 240.770817,145.030857 240.92967,145.211591 C241.088522,145.392325 241.16269,145.632015 241.1336,145.870639 L238.8122,163.729373 C238.796689,163.916736 238.63544,164.058311 238.4472,164.049839 L233.5854,164.049839 C233.402732,164.050473 233.250221,163.910991 233.235,163.729373 Z M231.775,173.037473 L231.775,168.347006 C231.775,167.429882 232.520177,166.686406 233.4394,166.686406 L238.71,166.686406 C239.150096,166.686406 239.571956,166.861808 239.881777,167.173657 C240.191598,167.485506 240.363695,167.907933 240.359865,168.347006 L240.359865,173.037473 C240.363695,173.476546 240.191598,173.898973 239.881777,174.210822 C239.571956,174.522671 239.150096,174.69809 238.71,174.698073 L233.4394,174.698073 C232.992936,174.705889 232.562049,174.53439 232.24357,174.222116 C231.92509,173.909842 231.7458,173.482986 231.7458,173.037473 L231.775,173.037473 Z" id="Shape" fill="#FF5986"></path>
                    <line x1="122.9612" y1="146.992273" x2="139.0212" y2="165.826973" id="Path"></line>
                    <line x1="134.0572" y1="147.647773" x2="138.0138" y2="152.294539" id="Path"></line>
                    <line x1="119.6908" y1="155.499206" x2="128.261" y2="165.564773" id="Path"></line>
                </g>
            </g>
            <g id="Group" transform="translate(583.000000, 480.000000)" fill-rule="nonzero" stroke="#0D052C" stroke-linecap="round" stroke-linejoin="round" stroke-width="1.5">
                <g id="Shapes-/-colored-cylinder" transform="translate(126.500000, 126.500000) scale(-1, 1) rotate(-180.000000) translate(-126.500000, -126.500000) ">
                    <g transform="translate(-21.926667, 16.023333)">
                        <path d="M289.010333,203.631267 C277.395971,221.26634 253.685221,226.148187 236.049,214.535567 L215.6319,201.092833 C232.914952,208.272799 252.86109,202.132107 263.113435,186.474994 C273.36578,170.81788 271.019733,150.08017 257.5287,137.109133 L278.106033,150.6615 C295.742152,162.279061 300.623761,185.992425 289.010333,203.631267 Z" id="light_pink_part" fill="#FFB8D2"></path>
                        <path d="M269.461941,165.1584 C269.456488,178.157193 262.961985,190.295207 252.150767,197.512284 C241.339549,204.72936 227.638982,206.072654 215.6319,201.092833 L179.764933,177.4795 C197.075841,184.674235 217.055874,178.500099 227.289933,162.793546 C237.523992,147.086994 235.101107,126.315588 221.5268,113.386167 L257.5287,137.092267 C265.171229,144.426196 269.482566,154.566217 269.461941,165.1584 Z" id="green_part" fill="#6DE4A2"></path>
                        <path d="M233.535929,141.511333 C233.535929,154.500774 227.053891,166.633509 216.255673,173.853209 C205.457455,181.072908 191.768314,182.426948 179.764933,177.462633 L179.764933,177.462633 L140.1873,151.403633 C157.544612,158.473475 177.475474,152.16253 187.600168,136.390735 C197.724863,120.618941 195.165016,99.8700986 181.510633,87.032 L221.5521,113.403033 C229.223867,120.738455 233.554888,130.897 233.535929,141.511333 L233.535929,141.511333 Z" id="yellow_part" fill="#FFE483"></path>
                        <path d="M193.71368,115.334267 C193.704628,128.275785 187.26614,140.367075 176.533388,147.598326 C165.800635,154.829578 152.176402,156.255656 140.178867,151.403633 L140.178867,151.403633 L99.9940333,124.939833 C117.250285,132.203425 137.232867,126.148008 147.554408,110.527388 C157.875949,94.9067681 155.609772,74.1501766 142.1607,61.1248 L181.485333,87.032 C189.296263,94.3716957 193.722429,104.615979 193.71368,115.334267 Z" id="violet_part" fill="#9E59FF"></path>
                        <path d="M153.958962,89.056 C153.950977,102.080951 147.428097,114.238497 136.580001,121.447396 C125.731906,128.656294 111.996834,129.960789 99.9856,124.922967 L61.3272,99.5133333 C78.6058233,106.781215 98.6103972,100.697023 108.916495,85.0395241 C119.222592,69.3820248 116.900603,48.6020169 103.392667,35.6055333 L142.118533,61.1079333 C149.697318,68.4291956 153.971729,78.5185103 153.958962,89.056 Z" id="light_blue_part" fill="#9AF3FF"></path>
                        <path d="M115.258387,63.5704667 C115.261425,76.5943067 108.752719,88.7572568 97.9151859,95.9800192 C87.0776529,103.202782 73.3465825,104.528796 61.3272,99.5133333 L61.3272,99.5133333 L17.6003667,70.6797667 C34.9654062,82.3185764 58.4577126,77.8620101 70.3538804,60.672255 C82.2500482,43.4825 78.1438901,19.9264199 61.1332333,7.77553333 L103.392667,35.6055333 C110.984981,42.9265784 115.269123,53.0233902 115.258387,63.5704667 L115.258387,63.5704667 Z" id="pink_part" fill="#FF81AF"></path>
                        <path d="M77.1397107,38.8861 C77.1526152,56.2729606 65.4434423,71.483588 48.631798,75.9188675 C31.8201537,80.3541469 14.1313461,72.8993496 5.56549441,57.7689408 C-3.00035724,42.6385319 -0.290378315,23.6352708 12.1633826,11.5023846 C24.6171435,-0.630501502 43.6846549,-2.84362739 58.5863667,6.11416667 C58.6262577,6.12687087 58.6634354,6.14688962 58.696,6.1732 L61.1163667,7.78396667 C71.1764641,14.9469962 77.1471563,26.536424 77.1397107,38.8861 Z" id="white_circle" fill="#FFFFFF"></path>
                        <g id="lines" transform="translate(26.986667, 25.300000)">
                            <line x1="3.48296667" y1="0.767433333" x2="18.2750333" y2="19.8520667" id="Path"></line>
                            <line x1="13.6957333" y1="1.43366667" x2="17.3473667" y2="6.13946667" id="Path"></line>
                            <line x1="0.463833333" y1="9.3863" x2="8.36586667" y2="19.5737667" id="Path"></line>
                        </g>
                        <g id="line" transform="translate(201.556667, 123.970000)">
                            <path d="M11.1488667,8.6779 C11.1519529,5.96624915 10.8234257,3.26439636 10.1706,0.6325" id="Path"></path>
                            <path d="M0.640933333,32.89 C6.20902517,27.6939125 9.81335578,20.7354693 10.8452667,13.1897333" id="Path"></path>
                        </g>
                    </g>
                </g>
            </g>
        </g>
    </g>
</svg>