<?xml version="1.0" encoding="UTF-8"?>
<svg width="1000px" height="1000px" viewBox="0 0 1000 1000" version="1.1" xmlns="http://www.w3.org/2000/svg" xmlns:xlink="http://www.w3.org/1999/xlink">
    <title>Reload</title>
    <g id="All-Scenes" stroke="none" stroke-width="1" fill="none" fill-rule="evenodd">
        <g id="Reload">
            <rect id="BG" x="0" y="0" width="1000" height="1000"></rect>
            <g id="Group" transform="translate(106.000000, 225.000000)" fill-rule="nonzero" stroke="#0D052C" stroke-linecap="round" stroke-linejoin="round" stroke-width="1.5">
                <g id="Windows-/-orange-screen-with-perspective-grid" transform="translate(50.245000, 5.390000)">
                    <g id="main_screen">
                        <path d="M673.07429,10.0639 L673.07429,36.7752 L0.57975,36.7752 L0.57975,10.2256 C0.57975,4.9013541 4.91272028,0.5852 10.25771,0.5852 L663.55093,0.5852 C668.807519,0.5852 673.07429,4.82771324 673.07429,10.0639 Z" id="upper_screen" fill="#FFE2BF"></path>
                        <g id="browser_circle" transform="translate(34.785000, 13.090000)">
                            <ellipse id="Oval" fill="#FF5986" cx="5.68928" cy="5.6595" rx="5.03223" ry="5.0127"></ellipse>
                            <ellipse id="Oval" fill="#FFE483" cx="27.99806" cy="5.544" rx="5.03223" ry="5.0127"></ellipse>
                            <ellipse id="Oval" fill="#53F2D4" cx="50.29911" cy="5.6595" rx="5.03223" ry="5.0127"></ellipse>
                        </g>
                        <rect id="search_bar" x="150.66543" y="13.7137" width="131.58006" height="9.9099" rx="4.65"></rect>
                        <line x1="628.24029" y1="37.1294" x2="628.24029" y2="0.5775" id="line"></line>
                        <g id="cross_close" transform="translate(643.136000, 11.550000)">
                            <line x1="0.6957" y1="0.0462" x2="15.98564" y2="14.2142" id="Path"></line>
                            <line x1="15.98564" y1="0.0462" x2="0.6957" y2="14.2142" id="Path"></line>
                        </g>
                        <g id="main_screen-2" transform="translate(0.000000, 36.190000)" fill="#FFFFFF">
                            <path d="M673.07429,0.5852 L673.07429,480.4107 C673.07429,486.911154 667.7809,492.184 661.25512,492.184 L12.40665,492.184 C5.87785105,492.184 0.57975,486.914159 0.57975,480.4107 L0.57975,0.5852 L673.07429,0.5852 Z" id="Path"></path>
                        </g>
                    </g>
                    <g id="_--_Generator:_Adobe_Illustrator_23.0.3_SVG_Export_Plug-In_--_" transform="translate(0.000000, 36.190000)">
                        <rect id="Rectangle" x="100.7219" y="74.2049" width="472.21024" height="345.191"></rect>
                        <rect id="Rectangle" x="193.00264" y="142.3037" width="285.90178" height="209.0011"></rect>
                        <polyline id="Path" points="0.57975 0.5852 335.95353 246.6387 673.06656 0.5852"></polyline>
                        <polyline id="Path" points="5.35689 489.8586 335.95353 246.6387 668.83825 489.4274"></polyline>
                        <polyline id="Path" points="416.40737 0.9394 335.95353 246.6387 257.21575 0.9394"></polyline>
                        <polyline id="Path" points="416.40737 492.184 335.95353 246.6387 256.64373 492.184"></polyline>
                        <polyline id="Path" points="0.57975 180.3802 335.95353 246.6387 0.57975 286.1474"></polyline>
                        <polyline id="Path" points="0.57975 85.008 335.95353 246.6387 0.57975 383.691"></polyline>
                        <polyline id="Path" points="673.06656 178.9403 335.95353 246.6387 673.07429 285.2542"></polyline>
                        <polyline id="Path" points="673.06656 83.0753 335.95353 246.6387 671.32731 382.5976"></polyline>
                        <polyline id="Path" points="134.03047 0.5852 335.95353 246.6387 555.33093 0.9394"></polyline>
                        <polyline id="Path" points="132.39171 492.184 335.95353 246.6387 557.44895 492.184"></polyline>
                    </g>
                    <g id="lines-3" transform="translate(325.433000, 70.840000)">
                        <path d="M0.64932,0.6468 C6.59369,6.93 18.552,19.6889 18.552,19.6889" id="Path"></path>
                        <path d="M12.20567,2.5564 C14.37007,4.8202 17.91041,8.5624 20.38401,11.1881" id="Path"></path>
                        <path d="M2.2417,11.9427 C3.0147,12.7127 4.62254,14.3605 8.16288,18.1027" id="Path"></path>
                    </g>
                </g>
            </g>
            <g id="Group" transform="translate(121.560148, 91.340892)" fill-rule="nonzero" stroke="#0D052C" stroke-linecap="round" stroke-linejoin="round" stroke-width="1.5">
                <g id="Objects-/-arrow-(2)" transform="translate(186.817500, 186.693683) rotate(-189.000000) translate(-186.817500, -186.693683) ">
                    <g transform="translate(-39.854400, 26.137116)">
                        <path d="M422.905002,20.8225688 C409.454142,57.2153907 391.519662,95.6493969 367.993111,129.167136 C357.385196,144.474964 345.286846,158.695695 331.875061,171.62128 C323.290307,179.808262 314.161065,187.405376 304.549888,194.36057 C229.685889,248.526631 155.668795,240.411679 155.668795,240.411679 L162.319499,265.926482 L169.792198,294.552847 C155.095888,291.839565 141.321211,288.665773 128.480622,285.205716 C61.898865,267.345354 20.3631075,241.594072 6.301977,231.923339 C2.9018985,229.583445 1.095996,228.189466 0.946542,228.065003 C0.946542,228.065003 76.918992,182.847793 133.101241,137.767492 L146.091285,187.428011 C146.091285,187.428011 156.615337,186.693683 173.11755,181.715185 C196.256703,174.610032 218.081225,163.780674 237.731496,149.653656 C274.970451,123.093368 315.472485,78.1375294 342.49875,2.04118427 C342.776879,1.23473586 343.626331,0.775146351 344.454106,0.983253397 L422.905002,20.8225688 Z" id="arrow-2" fill="#FFE483"></path>
                        <path d="M173.11755,181.715185 C156.577974,186.693683 146.041467,187.452904 146.041467,187.452904 L133.051423,137.792384 L163.913674,156.93471 C165.135156,157.675713 166.026446,158.85589 166.404574,160.232965 C167.425843,164.116194 169.87938,173.002813 173.11755,181.715185 Z" id="shadow" fill="#1D1E5F"></path>
                        <path d="M450.416992,58.7960639 C451.138087,59.7689957 451.342359,61.0309361 450.96499,62.1814427 C447.761984,71.90328 443.83618,81.3722187 439.220397,90.5090975 C432.707295,103.98326 425.214514,116.962138 416.802297,129.341384 L416.802297,129.341384 C405.116753,146.57036 391.997128,162.783114 377.583076,177.807064 C317.440296,240.897082 246.35001,259.877607 215.163942,265.391293 C209.87348,266.391462 204.536293,267.126708 199.172364,267.594279 L199.595817,269.286968 L206.906608,298.075134 L212.635678,320.689962 C212.697886,320.946292 212.636952,321.21695 212.470885,321.421957 C212.304817,321.626963 212.052603,321.742878 211.788772,321.735784 C205.254311,321.469927 198.861001,321.03016 192.608842,320.416145 C179.885902,319.182032 167.247335,317.195447 154.759617,314.46684 C54.7998,292.48677 2.6528085,230.255542 0.9839055,228.102342 C2.7773535,229.483875 53.8158945,268.75178 148.45764,290.246446 C155.34913,291.814673 162.460649,293.279181 169.792199,294.63997 L164.3994,273.892079 L155.68125,240.461464 C155.68125,240.461464 248.865819,250.6176 331.887516,171.62128 C373.186638,132.30359 402.043714,76.3203776 421.684461,24.1083776 C422.195095,22.7641831 422.419276,22.154317 422.929911,20.8225688 L450.416992,58.7960639 Z" id="shadow-2" fill="#1D1E5F"></path>
                        <g id="line" transform="translate(280.226250, 109.526961)">
                            <path d="M65.5978515,15.3213282 C68.6247949,10.6062548 71.389725,5.72824489 73.880094,0.709435995" id="Path"></path>
                            <path d="M0.099636,71.8895142 C0.099636,71.8895142 33.726786,58.8831876 59.9684175,23.4736191" id="Path"></path>
                        </g>
                        <g id="line-2" transform="translate(337.516950, 3.733874)">
                            <path d="M14.098494,20.7229988 C10.4112269,31.2296233 5.68853469,41.344162 0,50.9175905" id="Path"></path>
                            <path d="M19.9272,0.535188558 C19.9272,0.535188558 18.9682035,5.51368677 16.639212,13.1432353" id="Path"></path>
                        </g>
                        <g id="lines" transform="translate(68.499750, 226.521669)">
                            <path d="M0.49818,9.4591466 C12.3024295,11.7906828 24.3097184,12.9414178 36.342231,12.8943104" id="Path"></path>
                            <path d="M11.20905,0.958360906 C15.141809,1.32189263 19.0925013,1.45488038 23.040825,1.35664076" id="Path"></path>
                            <path d="M15.219399,22.1792095 C15.219399,22.1792095 26.627721,23.2495867 27.1632645,23.1500167" id="Path"></path>
                        </g>
                    </g>
                </g>
            </g>
            <g id="Group" transform="translate(511.850848, 532.325951)" fill-rule="nonzero" stroke="#0D052C" stroke-linecap="round" stroke-linejoin="round" stroke-width="1.5">
                <g id="Objects-/-arrow-(2)" transform="translate(186.817500, 186.693683) rotate(-22.000000) translate(-186.817500, -186.693683) ">
                    <g transform="translate(-39.854400, 26.137116)">
                        <path d="M422.905002,20.8225688 C409.454142,57.2153907 391.519662,95.6493969 367.993112,129.167136 C357.385196,144.474964 345.286846,158.695695 331.875062,171.62128 C323.290307,179.808262 314.161065,187.405376 304.549889,194.36057 C229.685889,248.526631 155.668796,240.411679 155.668796,240.411679 L162.319499,265.926482 L169.792199,294.552847 C155.095889,291.839565 141.321212,288.665773 128.480622,285.205716 C61.898865,267.345354 20.3631075,241.594072 6.301977,231.923339 C2.9018985,229.583445 1.095996,228.189466 0.946542,228.065003 C0.946542,228.065003 76.918992,182.847793 133.101242,137.767492 L146.091285,187.428011 C146.091285,187.428011 156.615338,186.693683 173.11755,181.715185 C196.256703,174.610032 218.081225,163.780674 237.731496,149.653656 C274.970451,123.093368 315.472485,78.1375294 342.49875,2.04118427 C342.776879,1.23473586 343.626331,0.775146351 344.454107,0.983253397 L422.905002,20.8225688 Z" id="arrow-2" fill="#FF81AF"></path>
                        <path d="M173.11755,181.715185 C156.577974,186.693683 146.041467,187.452904 146.041467,187.452904 L133.051423,137.792384 L163.913675,156.93471 C165.135156,157.675713 166.026446,158.85589 166.404575,160.232965 C167.425844,164.116194 169.87938,173.002813 173.11755,181.715185 Z" id="shadow" fill="#1D1E5F"></path>
                        <path d="M450.416993,58.7960639 C451.138087,59.7689957 451.342359,61.0309361 450.964991,62.1814427 C447.761984,71.90328 443.83618,81.3722187 439.220397,90.5090975 C432.707295,103.98326 425.214514,116.962138 416.802297,129.341384 L416.802297,129.341384 C405.116753,146.57036 391.997128,162.783114 377.583077,177.807064 C317.440296,240.897082 246.35001,259.877607 215.163942,265.391293 C209.87348,266.391462 204.536293,267.126708 199.172364,267.594279 L199.595817,269.286968 L206.906609,298.075134 L212.635679,320.689962 C212.697886,320.946292 212.636952,321.21695 212.470885,321.421957 C212.304817,321.626963 212.052603,321.742878 211.788773,321.735784 C205.254312,321.469927 198.861002,321.03016 192.608843,320.416145 C179.885902,319.182032 167.247335,317.195447 154.759617,314.46684 C54.7998,292.48677 2.6528085,230.255542 0.9839055,228.102342 C2.7773535,229.483875 53.8158945,268.75178 148.45764,290.246446 C155.34913,291.814673 162.46065,293.279181 169.792199,294.63997 L164.3994,273.892079 L155.68125,240.461464 C155.68125,240.461464 248.865819,250.6176 331.887516,171.62128 C373.186638,132.30359 402.043715,76.3203776 421.684461,24.1083776 C422.195096,22.7641831 422.419277,22.154317 422.929911,20.8225688 L450.416993,58.7960639 Z" id="shadow-2" fill="#1D1E5F"></path>
                        <g id="line" transform="translate(280.226250, 109.526961)">
                            <path d="M65.5978515,15.3213282 C68.6247949,10.6062548 71.389725,5.72824489 73.880094,0.709435995" id="Path"></path>
                            <path d="M0.099636,71.8895142 C0.099636,71.8895142 33.726786,58.8831876 59.9684175,23.4736191" id="Path"></path>
                        </g>
                        <g id="line-2" transform="translate(337.516950, 3.733874)">
                            <path d="M14.098494,20.7229988 C10.4112269,31.2296233 5.68853469,41.344162 0,50.9175905" id="Path"></path>
                            <path d="M19.9272,0.535188558 C19.9272,0.535188558 18.9682035,5.51368677 16.639212,13.1432353" id="Path"></path>
                        </g>
                        <g id="lines" transform="translate(68.499750, 226.521669)">
                            <path d="M0.49818,9.4591466 C12.3024295,11.7906828 24.3097184,12.9414178 36.342231,12.8943104" id="Path"></path>
                            <path d="M11.20905,0.958360906 C15.141809,1.32189263 19.0925013,1.45488038 23.040825,1.35664076" id="Path"></path>
                            <path d="M15.219399,22.1792095 C15.219399,22.1792095 26.627721,23.2495867 27.1632645,23.1500167" id="Path"></path>
                        </g>
                    </g>
                </g>
            </g>
            <g id="Group" transform="translate(293.310915, 238.807313)" fill-rule="nonzero" stroke="#0D052C" stroke-linecap="round" stroke-linejoin="round" stroke-width="1.5">
                <g id="Devices-/-joystick" transform="translate(215.222500, 215.079857) rotate(-342.000000) translate(-215.222500, -215.079857) ">
                    <g id="joystick" transform="translate(-21.522250, 4.301597)">
                        <path d="M297.537819,169.799515 L336.005254,169.799515 C308.063826,188.615071 295.842878,223.561438 305.974541,255.673733 C291.193193,255.958978 277.280512,262.707584 267.911895,274.136731 C258.543277,285.565878 254.661199,300.525802 257.291212,315.06445 L215.466306,315.06445 C215.979483,312.119203 216.238702,309.135367 216.241107,306.145806 C216.239537,278.683133 194.271976,256.258709 166.797325,255.673733 C176.93474,223.567832 164.726044,188.623106 136.795308,169.799515 L287.020613,169.799515" id="Path" fill="#87D4FF"></path>
                        <path d="M216.255463,306.131467 C216.231721,334.004512 193.627091,356.59416 165.73556,356.617879 C145.085604,356.573765 126.526421,344.016334 118.817055,324.872092 C116.473739,318.934613 115.252628,312.614325 115.215665,306.231838 C115.214617,306.126003 115.164894,306.026538 115.080843,305.962142 C114.996793,305.897746 114.887766,305.875583 114.78522,305.902049 C110.095426,307.207734 105.290391,308.057662 100.437054,308.439991 C98.4426587,308.597716 96.4339153,308.669409 94.3964757,308.669409 C53.5969484,308.63219 20.0968945,276.426131 18.4803258,235.685645 C18.4803258,234.696277 18.4085806,233.721249 18.4085806,232.731881 C18.4003097,208.358987 30.1057333,185.465061 49.8741145,171.190365 C49.9745517,171.104333 50.089337,171.046978 50.1897742,170.975285 C75.2817463,153.051632 108.721946,152.049091 134.843957,168.437343 L135.145269,168.638084 C135.733544,168.99655 136.321819,169.369355 136.895745,169.756499 C163.809998,187.924274 176.227102,221.154721 167.816044,252.504889 C167.609097,253.244297 167.738477,254.037258 168.16974,254.672673 C168.601003,255.308089 169.290384,255.721474 170.054358,255.80278 C196.196013,258.044275 216.269534,279.911158 216.255463,306.131467 L216.255463,306.131467 Z" id="Path" fill="#9E59FF"></path>
                        <path d="M454.305888,237.176865 C451.995472,274.757585 422.58312,305.027478 385.061636,308.439991 C375.905133,309.274803 366.67303,308.468743 357.800119,306.059774 C357.705849,306.038593 357.607025,306.059764 357.529727,306.1177 C357.452428,306.175636 357.40442,306.264515 357.398371,306.360886 C357.274387,333.657554 335.45039,355.906353 308.14352,356.574476 C280.836649,357.242598 257.949278,336.087762 256.488725,308.829863 C255.028173,281.571963 275.524085,258.095613 302.746204,255.845796 C303.51242,255.769326 304.20517,255.357001 304.637406,254.720152 C305.069642,254.083303 305.19679,253.287606 304.984518,252.547905 C296.548866,221.193302 308.977905,187.946343 335.919165,169.799515 C336.392655,169.484065 336.880492,169.168614 337.353982,168.881841 C337.447736,168.809516 337.548708,168.747051 337.655293,168.695438 C363.684578,152.145161 397.149323,152.989728 422.309477,170.831898 C422.395566,170.91793 422.524699,170.989624 422.610788,171.061317 C443.845666,186.190228 455.815419,211.15897 454.305888,237.176865 L454.305888,237.176865 Z" id="Path" fill="#9E59FF"></path>
                        <path d="M129.291217,341.074774 L94.855617,395.561672 C82.1861858,415.635792 57.8516952,425.887931 34.9520212,419.49289 C16.858983,414.388328 1.59253367,399.820253 0.243805999,373.36543 C-2.4679975,320.455785 18.3368442,235.714322 18.3368442,235.714322 L18.3368442,235.714322 C19.9611259,276.454714 53.4675964,308.654528 94.2673422,308.683748 C96.3047818,308.683748 98.3135252,308.612055 100.30792,308.454329 C105.161496,308.073872 109.966711,307.223913 114.656087,305.916387 C114.766364,305.890242 114.882555,305.915615 114.971868,305.985344 C115.061181,306.055074 115.11393,306.161598 115.115228,306.274854 C115.158397,312.633473 116.379445,318.92913 118.716618,324.843415 C121.141846,330.894728 124.734975,336.40996 129.291217,341.074774 L129.291217,341.074774 Z" id="Path" fill="#9AF3FF"></path>
                        <path d="M135.030484,158.586685 L135.030484,168.623745 L134.729172,168.423004 C108.60716,152.034752 75.1669609,153.037293 50.0749888,170.960946 L50.0749888,158.529331 C50.1066555,142.765841 62.9112654,130.008222 78.6852332,130.024065 L106.448936,130.024065 C122.234089,130.024065 135.030484,142.811994 135.030484,158.586685 Z" id="Path" fill="#9AF3FF"></path>
                        <path d="M422.668181,158.586685 L422.668181,171.061317 C422.582092,171.061317 422.452958,170.91793 422.366869,170.831898 C397.206716,152.989728 363.741971,152.145161 337.712686,168.695438 L337.712686,158.586685 C337.720603,142.815272 350.512361,130.031992 366.294234,130.02408 L394.072285,130.02408 C409.85976,130.02408 422.660259,142.809675 422.668181,158.586685 L422.668181,158.586685 Z" id="Path" fill="#9AF3FF"></path>
                        <path d="M343.408908,341.203822 L377.844508,395.690719 C390.513939,415.764839 414.84843,426.016979 437.748104,419.636277 C455.841142,414.560392 471.107591,399.992317 472.456319,373.537494 C475.168123,320.613511 454.363281,235.886386 454.363281,235.886386 L454.29154,235.886386 C452.674971,276.626872 419.174918,308.832932 378.37539,308.870151 C376.337951,308.870151 374.329207,308.784119 372.334812,308.640732 C367.308766,308.243559 362.3344,307.350208 357.48446,305.973742 L357.48446,306.289192 C357.506987,319.316562 352.459457,331.842182 343.408908,341.218161 L343.408908,341.203822 Z" id="Path" fill="#9AF3FF"></path>
                        <line x1="136.78096" y1="169.799515" x2="136.752264" y2="169.799515" id="Path"></line>
                        <line x1="260.132149" y1="315.06445" x2="257.291212" y2="315.06445" id="Path"></line>
                        <line x1="215.466306" y1="315.06445" x2="210.946633" y2="315.06445" id="Path"></line>
                        <rect id="buttons" fill="#6DE4A2" x="191.648349" y="206.520816" width="37.5491522" height="20.7910528" rx="3"></rect>
                        <path d="M254.206356,211.023154 L254.206356,222.80953 C254.203927,223.789287 254.702192,224.702479 255.527646,225.231116 C256.3531,225.759753 257.391492,225.830668 258.281235,225.419166 L270.620659,219.683703 C271.702989,219.180069 272.395057,218.095124 272.395057,216.902004 C272.395057,215.708884 271.702989,214.623939 270.620659,214.120304 L258.281235,208.384841 C257.386845,207.9711 256.342567,208.044982 255.515427,208.580521 C254.688286,209.11606 254.194024,210.038317 254.206356,211.023154 Z" id="Path" fill="#FF5986"></path>
                        <path d="M349.851235,154.242072 C349.851235,154.242072 352.54869,141.050507 369.034734,141.581038" id="line"></path>
                        <path d="M138.273187,224.128687 L138.273187,243.84434 C138.273187,247.011949 135.703612,249.579803 132.533903,249.579803 L107.883752,249.579803 L107.883752,274.227955 C107.883752,277.395564 105.314195,279.963418 102.144486,279.963418 L82.4014083,279.963418 C79.2316989,279.963418 76.6621417,277.395564 76.6621417,274.227955 L76.6621417,249.579803 L52.0119913,249.579803 C48.8422819,249.579803 46.2727247,247.011949 46.2727247,243.84434 L46.2727247,224.128687 C46.2727247,220.961078 48.8422819,218.393224 52.0119913,218.393224 L76.6477935,218.393224 L76.6477935,193.759411 C76.6477935,190.591802 79.2173507,188.023948 82.3870602,188.023948 L102.130137,188.023948 C105.299847,188.023948 107.869404,190.591802 107.869404,193.759411 L107.869404,218.378885 L132.519554,218.378885 C134.046677,218.375065 135.512353,218.979619 136.592195,220.058746 C137.672037,221.137872 138.276992,222.602577 138.273187,224.128687 L138.273187,224.128687 Z" id="Path" fill="#FF5986"></path>
                        <ellipse id="Oval" fill="#FFE483" cx="92.272947" cy="233.979344" rx="9.8571905" ry="9.85065745"></ellipse>
                        <path d="M95.5586772,366.339488 L83.6496988,385.180484 C74.8464295,399.362168 58.362274,406.848971 41.8821857,404.150527" id="Path"></path>
                        <line x1="105.918053" y1="349.964742" x2="99.160067" y2="360.647041" id="Path"></line>
                        <ellipse id="Oval" fill="#FF81AF" cx="165.73556" cy="306.145806" rx="26.1997523" ry="26.1823879"></ellipse>
                        <path d="M167.414296,290.574024 C173.829451,292.103172 179.031462,296.7781 181.23158,302.991301" id="Path"></path>
                        <path d="M321.240991,284.150306 C310.006166,276.903926 295.112031,279.286558 286.702097,289.675532 C278.292164,300.064507 279.071551,315.118131 288.509465,324.584275 C297.947378,334.050418 313.008041,334.884224 323.43453,326.517836 C333.861018,318.151448 336.299572,303.275979 329.089438,292.022228" id="Path" fill="#FF81AF"></path>
                        <path d="M310.824222,290.574024 C317.239377,292.103172 322.441387,296.7781 324.641506,302.991301" id="Path"></path>
                        <path d="M456.185498,341.76303 L458.610338,363.916255 C460.533207,380.475751 452.304178,396.566584 437.748104,404.709735" id="Path"></path>
                        <line x1="454.076318" y1="322.506213" x2="455.453742" y2="335.066877" id="Path"></line>
                        <ellipse id="Oval" fill="#FFE483" cx="340.725801" cy="232.975638" rx="16.0699467" ry="16.059296"></ellipse>
                        <ellipse id="Oval" fill="#FFE483" cx="416.182809" cy="232.975638" rx="16.0699467" ry="16.059296"></ellipse>
                        <ellipse id="Oval" fill="#FFE483" cx="378.447131" cy="198.290427" rx="16.0699467" ry="16.059296"></ellipse>
                        <path d="M379.480199,188.740881 C383.413858,189.681462 386.604616,192.546385 387.959966,196.354708" id="Path"></path>
                        <ellipse id="Oval" fill="#FFE483" cx="378.432783" cy="267.675189" rx="16.0699467" ry="16.059296"></ellipse>
                        <path d="M379.480199,258.182998 C383.408829,259.133138 386.595642,261.994519 387.959966,265.796825" id="Path"></path>
                        <line x1="28.5527388" y1="334.163542" x2="52.2559102" y2="364.733559" id="Path"></line>
                        <line x1="43.8622327" y1="335.855503" x2="57.2203758" y2="353.090569" id="Path"></line>
                        <line x1="26.5439955" y1="349.634953" x2="40.4043245" y2="367.50092" id="Path"></line>
                        <line x1="48.5540832" y1="335.855503" x2="27.2040112" y2="363.400064" id="Path"></line>
                        <line x1="37.2333797" y1="332.414226" x2="28.5527388" y2="343.612717" id="Path"></line>
                        <line x1="55.1398917" y1="345.419388" x2="41.5091333" y2="362.998581" id="Path"></line>
                        <line x1="233.932396" y1="247.687101" x2="247.964903" y2="265.782486" id="Path"></line>
                        <line x1="243.617409" y1="248.318001" x2="247.075317" y2="252.777324" id="Path"></line>
                        <line x1="231.077111" y1="255.860135" x2="238.566854" y2="265.52439" id="Path"></line>
                        <path d="M61.2952552,154.242072 C61.2952552,154.242072 63.9927105,141.050507 80.478754,141.581038" id="Path"></path>
                        <path d="M124.800241,154.242072 C124.800241,154.242072 122.102785,141.050507 105.63109,141.581038" id="Path"></path>
                        <path d="M238.925558,160.35034 C235.012772,151.889591 233.309706,142.575797 233.975441,133.278955 C234.506323,126.109627 237.246823,117.936592 245.453974,116.88987 C251.193241,116.158599 254.923764,120.144745 253.044154,125.636451 C251.078456,131.371914 242.369118,130.267837 238.20815,126.037933 C230.230569,117.965269 231.206245,103.784338 238.20815,94.8943702 C246.400953,84.5848757 260.677379,80.555713 273.547685,80.4123264 C275.715219,80.3920535 277.845933,80.9727721 279.703048,82.0899493 L279.84653,82.1759813 C282.671633,83.8636222 284.148942,87.1286859 283.550879,90.3631188 C282.952815,93.5975517 280.405472,96.1194225 277.163423,96.6867023 C270.018036,97.8624722 261.495225,93.560875 258.783421,86.3915465 C255.124639,76.5552277 260.663031,65.084302 269.314975,59.1480979 C277.96692,53.2118939 288.943267,51.7923668 299.446125,51.7493508 C307.380662,51.7493508 316.663925,53.6994082 322.331451,58.5458743 C326.635901,62.2165706 321.771873,68.8983848 317.065674,65.7868962 C314.196041,63.8798548 312.459913,60.3095292 311.527282,56.1513186 C308.967073,44.535191 311.863471,32.3868342 319.390077,23.1724072 C328.730734,11.6441268 347.871188,-1.67648563 386.066008,0.173201142" id="Path"></path>
                        <path d="M224.491303,156.851684 L248.280563,156.851684 C250.657845,156.851684 252.585013,158.777598 252.585013,161.153305 L252.585013,169.756499 L220.172505,169.756499 L220.172505,161.153305 C220.172505,160.009962 220.627971,158.913655 221.438317,158.106536 C222.248664,157.299416 223.347208,156.847896 224.491303,156.851684 L224.491303,156.851684 Z" id="Path" fill="#1D1E5F"></path>
                    </g>
                </g>
            </g>
            <g id="Group" transform="translate(746.769422, 306.489240)" fill-rule="nonzero" stroke="#0D052C" stroke-linecap="round" stroke-linejoin="round" stroke-width="1.5">
                <g id="Shapes-/-violet-triangle" transform="translate(96.140000, 96.076281) rotate(-249.000000) translate(-96.140000, -96.076281) ">
                    <g transform="translate(-4.486533, 12.810171)">
                        <polygon id="triangle" fill="#9E59FF" points="22.9454133 166.717968 200.413444 166.717968 111.676224 16.6980577"></polygon>
                        <path d="M87.891188,0.570052602 L111.676224,16.6980577 L22.9454133,166.717968 L0.897306667,148.674843 C0.465483906,148.322028 0.356520416,147.706792 0.640933333,147.227293 L87.1669333,0.742989909 C87.3231071,0.500896507 87.6423685,0.424663379 87.891188,0.570052602 Z" id="shadow" fill="#1D1E5F"></path>
                        <g id="little_lines" transform="translate(39.737867, 33.946953)">
                            <line x1="51.6592267" y1="76.1180351" x2="60.0169973" y2="82.9842867" id="Path"></line>
                            <line x1="76.950456" y1="46.9877066" x2="70.489848" y2="55.6665974" id="Path"></line>
                            <line x1="111.778773" y1="66.7922308" x2="103.215904" y2="73.408684" id="Path"></line>
                            <line x1="83.9174013" y1="70.8658651" x2="86.526" y2="81.3638001" id="Path"></line>
                            <line x1="80.18076" y1="97.4597797" x2="70.0924693" y2="101.373287" id="Path"></line>
                            <line x1="54.8895307" y1="97.4597797" x2="48.4289227" y2="106.13867" id="Path"></line>
                            <line x1="118.200925" y1="86.2572853" x2="126.558696" y2="93.1235369" id="Path"></line>
                            <line x1="95.313196" y1="45.9244625" x2="95.8259427" y2="56.7298416" id="Path"></line>
                            <line x1="136.012463" y1="107.253155" x2="125.193508" y2="107.150674" id="Path"></line>
                            <line x1="51.6592267" y1="118.942436" x2="60.0169973" y2="125.815093" id="Path"></line>
                            <line x1="89.756304" y1="117.635799" x2="83.295696" y2="126.31469" id="Path"></line>
                            <line x1="126.661245" y1="122.503664" x2="118.098376" y2="129.120117" id="Path"></line>
                            <line x1="141.287344" y1="117.635799" x2="143.895943" y2="128.133734" id="Path"></line>
                            <line x1="65.4200653" y1="29.1495437" x2="54.6139293" y2="28.5923013" id="Path"></line>
                            <line x1="75.1686613" y1="0.345874613" x2="68.7080533" y2="9.02476536" id="Path"></line>
                            <line x1="77.58498" y1="21.7260497" x2="85.94916" y2="28.5923013" id="Path"></line>
                            <line x1="102.703157" y1="101.802428" x2="103.215904" y2="112.601402" id="Path"></line>
                            <line x1="58.1198347" y1="54.5521125" x2="53.5563893" y2="44.7459267" id="Path"></line>
                            <line x1="9.85755467" y1="107.201915" x2="18.2217347" y2="114.068166" id="Path"></line>
                            <line x1="30.841712" y1="93.6807793" x2="20.0227573" y2="93.3028793" id="Path"></line>
                            <line x1="34.7321773" y1="61.5080353" x2="35.2513333" y2="72.3134144" id="Path"></line>
                            <line x1="6.95412667" y1="120.00568" x2="0.493518667" y2="128.684571" id="Path"></line>
                            <line x1="34.2194307" y1="116.572555" x2="34.7321773" y2="127.377934" id="Path"></line>
                        </g>
                    </g>
                </g>
            </g>
            <g id="Group" transform="translate(222.392612, 646.219688)" fill-rule="nonzero" stroke="#0D052C" stroke-linecap="round" stroke-linejoin="round" stroke-width="1.5">
                <g id="Shapes-/-circle-with-a-hole-inside" transform="translate(98.325000, 97.713945) rotate(-264.000000) translate(-98.325000, -97.713945) ">
                    <g transform="translate(3.933000, 3.908558)">
                        <path d="M164.222415,45.4369845 L162.662325,43.9061327 C159.508253,40.8822163 156.1198,38.1094517 152.528295,35.6134759 C151.138635,34.649365 149.72057,33.7286825 148.2741,32.8514284 C115.2167,12.7554365 72.6019091,17.8313145 45.259531,45.1215669 C17.9171528,72.4118194 12.9939228,114.783335 33.358395,147.548057 C34.276095,149.026795 35.23968,150.466447 36.24915,151.880042 C37.76554,153.999349 39.375885,156.040485 41.080185,158.003449 C56.9718788,176.413704 80.1642168,187.005029 104.571915,186.998437 C138.312193,186.998437 168.753978,166.867262 181.786408,135.938941 C194.818839,105.010621 187.894241,69.3302594 164.222415,45.4369845 Z M104.571915,150.642336 C85.3485648,150.650237 68.0136467,139.148419 60.6516767,121.501 C53.2897067,103.853581 57.3507816,83.5365963 70.9409308,70.0253142 C84.53108,56.514032 104.973434,52.4697868 122.734257,59.7787003 C140.495079,67.0876138 152.076,84.3100398 152.076,103.413925 C152.079621,129.491313 130.812377,150.635138 104.571915,150.642336 Z" id="yellow_circle" fill="#FFFEAA"></path>
                        <path d="M162.662325,43.9061327 C159.508253,40.8822163 156.1198,38.1094517 152.528295,35.6134759 C151.138635,34.649365 149.72057,33.7286825 148.2741,32.8514284 C115.2167,12.7554365 72.6019091,17.8313145 45.259531,45.1215669 C17.9171528,72.4118194 12.9939228,114.783335 33.358395,147.548057 C34.276095,149.026795 35.23968,150.466447 36.24915,151.880042 C37.76554,153.999349 39.375885,156.040485 41.080185,158.003449 L27.76698,145.118237 C5.57201395,125.006319 -4.07857031,94.6183025 2.47829565,65.4885557 C9.0351616,36.3588089 30.7942373,12.9532456 59.4964391,4.15590615 C88.1986408,-4.64143328 119.443602,2.51818108 141.371685,22.9171773 L141.50934,23.0474625 L144.832725,26.304594 L162.662325,43.9061327 Z" id="shadow" fill="#1D1E5F"></path>
                        <path d="M152.076004,103.413925 C152.046906,125.854432 136.132291,145.176036 114.002374,149.638329 C91.8724568,154.100621 69.6385773,142.471306 60.810735,121.816718 C78.6111286,128.386929 98.6428064,123.561508 111.440295,109.620588 C124.237783,95.6796688 127.238958,75.4142951 119.02569,58.4003679 C138.722061,64.663305 152.084398,82.8624192 152.076004,103.413925 L152.076004,103.413925 Z" id="pink_part" fill="#FF81AF"></path>
                        <path d="M142.2435,50.1989108 C141.15537,49.4432563 140.04102,48.7201731 138.90045,48.0296612 C112.914014,32.266114 79.4401654,36.2713381 57.9614168,57.7142052 C36.4826683,79.1570724 32.605149,112.440819 48.58566,138.193576 C49.30671,139.353114 50.064905,140.488768 50.860245,141.600535 C52.053255,143.261672 53.311815,144.857667 54.65559,146.414575 C70.3265453,164.524904 94.6863201,172.704063 118.198617,167.750098 C141.710914,162.796132 160.635179,145.497165 167.562995,122.625348 C174.49081,99.7535301 168.320034,74.9475226 151.466385,57.9183124 L150.2406,56.7131738" id="circle_line"></path>
                        <g id="lines" transform="translate(72.760500, 67.096909)">
                            <line x1="17.93448" y1="55.6187776" x2="41.303055" y2="82.5161696" id="Path"></line>
                            <line x1="32.414475" y1="48.2446319" x2="56.903955" y2="76.4318479" id="Path"></line>
                            <line x1="43.308885" y1="36.6166724" x2="68.80128" y2="65.956913" id="Path"></line>
                            <line x1="49.916325" y1="20.3375291" x2="76.64106" y2="51.0978791" id="Path"></line>
                            <line x1="49.58202" y1="0.13028526" x2="79.32861" y2="34.3627374" id="Path"></line>
                            <line x1="0.124545" y1="57.4492855" x2="21.900255" y2="82.5161696" id="Path"></line>
                        </g>
                    </g>
                </g>
            </g>
            <g id="Group" transform="translate(518.239745, 92.125393)" fill-rule="nonzero" stroke="#0D052C" stroke-linecap="round" stroke-linejoin="round" stroke-width="1.5">
                <g id="Shapes-/-Z-shape" transform="translate(108.157500, 108.085816) rotate(-226.000000) translate(-108.157500, -108.085816) ">
                    <g transform="translate(31.726200, -2.882288)">
                        <path d="M26.794218,95.7640334 L26.794218,221.792095 L91.688718,221.792095 C91.8997772,221.792095 92.0708745,221.621111 92.0708745,221.410192 L92.0708745,161.019044 L153.035652,161.019044 C153.146568,161.019044 153.252941,160.975012 153.33137,160.896634 C153.4098,160.818257 153.453861,160.711954 153.453861,160.601112 L153.453861,30.8981321 L88.328625,30.8981321 L88.328625,95.7496219 L26.794218,95.7640334 Z" id="blue_shape" fill="#9AF3FF"></path>
                        <g id="shadow">
                            <polygon id="Path" fill="#62A3FF" points="153.417808 30.9269549 118.735303 0.540429082 57.496527 0.540429082 88.328625 30.9269549"></polygon>
                            <polygon id="Path" fill="#62A3FF" points="88.328625 95.7640334 57.496527 65.3775075 0.5407875 65.3775075 26.808639 95.7640334"></polygon>
                            <polygon id="Path" fill="#1D1E5F" points="57.496527 0.540429082 57.496527 65.3703018 88.328625 95.7640334 88.328625 30.9269549"></polygon>
                            <polygon id="Path" fill="#1D1E5F" points="0.5407875 65.3775075 0.5407875 193.76184 26.794218 221.792095 26.808639 95.7640334"></polygon>
                        </g>
                        <g id="dots" transform="translate(33.168300, 41.072610)">
                            <path d="M17.2258845,149.014312 C19.03572,149.014312 19.03572,146.204081 17.2258845,146.204081 C15.416049,146.204081 15.4088385,149.014312 17.2258845,149.014312 Z" id="Path"></path>
                            <path d="M36.0525,167.410518 C37.8623355,167.410518 37.869546,164.600287 36.0525,164.600287 C34.235454,164.600287 34.2426645,167.410518 36.0525,167.410518 Z" id="Path"></path>
                            <path d="M36.0525,132.455565 C37.8623355,132.455565 37.869546,129.645334 36.0525,129.645334 C34.235454,129.645334 34.2426645,132.455565 36.0525,132.455565 Z" id="Path"></path>
                            <path d="M36.0525,106.327621 C37.8623355,106.327621 37.869546,103.517389 36.0525,103.517389 C34.235454,103.517389 34.2426645,106.327621 36.0525,106.327621 Z" id="Path"></path>
                            <path d="M54.7349055,88.695221 C56.544741,88.695221 56.544741,85.8849897 54.7349055,85.8849897 C52.92507,85.8849897 52.9178595,88.695221 54.7349055,88.695221 Z" id="Path"></path>
                            <path d="M54.7349055,149.014312 C56.544741,149.014312 56.544741,146.204081 54.7349055,146.204081 C52.92507,146.204081 52.9178595,149.014312 54.7349055,149.014312 Z" id="Path"></path>
                            <path d="M36.0525,68.1372987 C37.8623355,68.1372987 37.869546,65.3270675 36.0525,65.3270675 C34.235454,65.3270675 34.2426645,68.1372987 36.0525,68.1372987 Z" id="Path"></path>
                            <path d="M94.45755,53.0629302 C96.2673855,53.0629302 96.274596,50.2526989 94.45755,50.2526989 C92.640504,50.2526989 92.6477145,53.0629302 94.45755,53.0629302 Z" id="Path"></path>
                            <path d="M75.5299875,34.9477473 C77.339823,34.9477473 77.339823,32.1375161 75.5299875,32.1375161 C73.720152,32.1375161 73.720152,34.9477473 75.5299875,34.9477473 Z" id="Path"></path>
                            <path d="M112.418906,68.1372987 C114.228741,68.1372987 114.228741,65.3270675 112.418906,65.3270675 C110.60907,65.3270675 110.60186,68.1372987 112.418906,68.1372987 Z" id="Path"></path>
                            <path d="M112.418906,34.9477473 C114.228741,34.9477473 114.228741,32.1375161 112.418906,32.1375161 C110.60907,32.1375161 110.60186,34.9477473 112.418906,34.9477473 Z" id="Path"></path>
                            <path d="M94.45755,18.4250288 C96.2673855,18.4250288 96.274596,15.6147976 94.45755,15.6147976 C92.640504,15.6147976 92.6477145,18.4250288 94.45755,18.4250288 Z" id="Path"></path>
                            <path d="M112.418906,3.30022026 C114.228741,3.30022026 114.228741,0.489989035 112.418906,0.489989035 C110.60907,0.489989035 110.60186,3.30022026 112.418906,3.30022026 Z" id="Path"></path>
                            <path d="M75.5299875,3.30022026 C77.339823,3.30022026 77.339823,0.489989035 75.5299875,0.489989035 C73.720152,0.489989035 73.720152,3.30022026 75.5299875,3.30022026 Z" id="Path"></path>
                            <path d="M17.2258845,88.695221 C19.03572,88.695221 19.03572,85.8849897 17.2258845,85.8849897 C15.416049,85.8849897 15.4088385,88.695221 17.2258845,88.695221 Z" id="Path"></path>
                            <path d="M94.45755,88.3637578 C96.2673855,88.3637578 96.274596,85.5535266 94.45755,85.5535266 C92.640504,85.5535266 92.6477145,88.3637578 94.45755,88.3637578 Z" id="Path"></path>
                            <path d="M75.5299875,106.327621 C77.339823,106.327621 77.339823,103.517389 75.5299875,103.517389 C73.720152,103.517389 73.720152,106.327621 75.5299875,106.327621 Z" id="Path"></path>
                            <path d="M75.5299875,68.1372987 C77.339823,68.1372987 77.339823,65.3270675 75.5299875,65.3270675 C73.720152,65.3270675 73.720152,68.1372987 75.5299875,68.1372987 Z" id="Path"></path>
                            <path d="M112.418906,106.327621 C114.228741,106.327621 114.228741,103.517389 112.418906,103.517389 C110.60907,103.517389 110.60186,106.327621 112.418906,106.327621 Z" id="Path"></path>
                            <path d="M1.4421,106.327621 C3.2519355,106.327621 3.2519355,103.517389 1.4421,103.517389 C-0.3677355,103.517389 -0.3677355,106.327621 1.4421,106.327621 Z" id="Path"></path>
                            <path d="M1.4421,68.1372987 C3.2519355,68.1372987 3.2519355,65.3270675 1.4421,65.3270675 C-0.3677355,65.3270675 -0.3677355,68.1372987 1.4421,68.1372987 Z" id="Path"></path>
                            <path d="M1.4421,132.455565 C3.2519355,132.455565 3.2519355,129.645334 1.4421,129.645334 C-0.3677355,129.645334 -0.3677355,132.455565 1.4421,132.455565 Z" id="Path"></path>
                            <path d="M1.4421,167.410518 C3.2519355,167.410518 3.2519355,164.600287 1.4421,164.600287 C-0.3677355,164.600287 -0.3677355,167.410518 1.4421,167.410518 Z" id="Path"></path>
                        </g>
                    </g>
                </g>
            </g>
        </g>
    </g>
</svg>