<?xml version="1.0" encoding="utf-8"?>
<!-- Generator: Adobe Illustrator 26.3.1, SVG Export Plug-In . SVG Version: 6.00 Build 0)  -->
<svg version="1.1" id="Layer_1" xmlns="http://www.w3.org/2000/svg" xmlns:xlink="http://www.w3.org/1999/xlink" x="0px" y="0px"
	 viewBox="0 0 1000 1000" style="enable-background:new 0 0 1000 1000;" xml:space="preserve">
<style type="text/css">
	.st0{fill:none;}
	.st1{fill:#7774FF;stroke:#0D052C;stroke-width:1.5;stroke-linecap:round;stroke-linejoin:round;}
	.st2{fill:#FF81AF;stroke:#0D052C;stroke-width:1.5;stroke-linecap:round;stroke-linejoin:round;}
	.st3{fill:#FFFEAA;stroke:#0D052C;stroke-width:1.5;stroke-linecap:round;stroke-linejoin:round;}
	.st4{fill:none;stroke:#0D052C;stroke-width:1.5;stroke-linecap:round;stroke-linejoin:round;}
	.st5{fill:#FFE483;stroke:#0D052C;stroke-width:1.5;stroke-linecap:round;stroke-linejoin:round;}
	.st6{fill:#FFBA68;stroke:#0D052C;stroke-width:1.5;stroke-linecap:round;stroke-linejoin:round;}
	.st7{fill:#1D1E5F;stroke:#0D052C;stroke-width:1.5;stroke-linecap:round;stroke-linejoin:round;}
	.st8{fill:#FFFFFF;stroke:#0D052C;stroke-width:1.5;stroke-linecap:round;stroke-linejoin:round;}
	.st9{fill:#87D4FF;stroke:#0D052C;stroke-width:1.5;stroke-linecap:round;stroke-linejoin:round;}
	.st10{fill:none;stroke:#0D052C;stroke-width:0.6;stroke-linecap:round;stroke-linejoin:round;}
	.st11{fill:#9AF3FF;stroke:#0D052C;stroke-width:1.5;stroke-linecap:round;stroke-linejoin:round;}
	.st12{fill:#62A3FF;stroke:#0D052C;stroke-width:1.5;stroke-linecap:round;stroke-linejoin:round;}
	.st13{fill:#FFE2BF;stroke:#0D052C;stroke-width:1.5;stroke-linecap:round;stroke-linejoin:round;}
	.st14{fill:#9E59FF;stroke:#0D052C;stroke-width:1.5;stroke-linecap:round;stroke-linejoin:round;}
	.st15{fill:#FF5986;stroke:#0D052C;stroke-width:1.5;stroke-linecap:round;stroke-linejoin:round;}
	.st16{opacity:0.2;}
	.st17{fill:#FFFFFF;stroke:#0D052C;stroke-width:1.5;stroke-linecap:round;stroke-linejoin:round;stroke-miterlimit:4.0001;}
	.st18{opacity:0.3;}
	.st19{fill:#47DDDF;stroke:#0D052C;stroke-width:1.5;stroke-linecap:round;stroke-linejoin:round;}
</style>
<g id="All-Scenes">
	<g id="Password">
		<rect id="BG" class="st0" width="1000" height="1000"/>
		<g id="Group" transform="translate(465.687542, 101.111173)">
			
				<g id="Shapes-_x2F_-colored-cube-with-lines" transform="translate(136.244094, 136.312655) rotate(-37.000000) translate(-136.244094, -136.312655) ">
				<g transform="translate(-7.266352, -25.445029)">
					<path id="violet_part" class="st1" d="M143.5,159.9l0,162.1L1.8,237.3c-0.7-0.4-1.1-1.2-1.1-2l0-158.1L143.5,159.9z"/>
					<path id="pink_part" class="st2" d="M286.4,77.2l0,158.1c0,0.8-0.4,1.6-1.1,2l-141.7,84.6l0-162.1L286.4,77.2z"/>
					<path id="yellow_part" class="st3" d="M286.4,77.2l-142.9,82.6L0.7,77.2L141,1.3c1.6-0.8,3.4-0.8,5,0L286.4,77.2z"/>
					<g id="lines" transform="translate(18.165879, 8.178759)">
						<line id="Path" class="st4" x1="0.7" y1="79" x2="141.1" y2="0.3"/>
						<line id="Path_00000098910081656580500620000015976942433548475576_" class="st4" x1="18.6" y1="89.8" x2="160" y2="10.5"/>
						<line id="Path_00000008151250832316743340000006376432485370510232_" class="st4" x1="36.5" y1="99.5" x2="177.9" y2="20.2"/>
						
							<line id="Path_00000062910079151567026570000010570530018069024959_" class="st4" x1="54.4" y1="110.2" x2="196.8" y2="30.4"/>
						<line id="Path_00000019662321744584894980000017127862742578827950_" class="st4" x1="72.3" y1="120.3" x2="215" y2="40.3"/>
						
							<line id="Path_00000130605985328515536520000000337706988517904802_" class="st4" x1="90.2" y1="130.1" x2="232.5" y2="50.3"/>
						
							<line id="Path_00000109023667204871753620000013358581770296339840_" class="st4" x1="108.1" y1="140.8" x2="251.9" y2="60.2"/>
					</g>
				</g>
			</g>
		</g>
		<g id="Group_00000036242182525281425050000017728652143385648787_" transform="translate(214.000000, 216.000000)">
			<g id="Shapes-_x2F_-three-dimensional-square-_x28_3_x29_" transform="translate(-48.416667, 38.733333)">
				<rect id="yellow_square" x="304.7" y="133.5" class="st5" width="369.4" height="369.4"/>
				<path id="orange_part" class="st6" d="M1.5,245.8V1.5l303.2,132v369.4L1.8,246.5C1.6,246.3,1.5,246.1,1.5,245.8z"/>
				<path id="light_yellow_part" class="st3" d="M1.5,1.5h267.4c0.2,0,0.3,0,0.5,0l404.8,131.9H304.7L1.5,1.5z"/>
				<g id="side_grid" transform="translate(0.000000, 27.113333)">
					<line id="Path_00000139256505365232246880000008269140976442490247_" class="st4" x1="1.5" y1="40.4" x2="304.7" y2="200.3"/>
					<line id="Path_00000024687952012785343830000003778742753251791517_" class="st4" x1="1.5" y1="106.4" x2="304.7" y2="286.4"/>
					<line id="Path_00000092418739577450266350000004456538163793969846_" class="st4" x1="1.5" y1="160.8" x2="304.7" y2="385.2"/>
					<line id="Path_00000128479356246287744680000016112221822593719743_" class="st4" x1="61" y1="269.5" x2="61" y2="0.3"/>
					
						<line id="Path_00000139997183865062157080000001428805811463871677_" class="st4" x1="131.1" y1="328.8" x2="131.1" y2="30.8"/>
					
						<line id="Path_00000183947944860881901980000017203887619353565334_" class="st4" x1="206.9" y1="392.9" x2="206.9" y2="63.8"/>
				</g>
				<g id="top_grid" transform="translate(60.036667, 0.000000)">
					<line id="Path_00000136369421270159559170000012055363279356524716_" class="st4" x1="506.9" y1="133.5" x2="148.6" y2="1.5"/>
					<line id="Path_00000072976425268367790870000009730442872786797468_" class="st4" x1="78.3" y1="1.5" x2="425.8" y2="133.5"/>
					<line id="Path_00000108283484788472961930000010125638715591371137_" class="st4" x1="10.8" y1="1.5" x2="332.8" y2="133.5"/>
					<line id="Path_00000110434176307897813710000008271296341914023319_" class="st4" x1="1" y1="27.4" x2="288.1" y2="27.4"/>
					<line id="Path_00000161611492904034924350000003367879419059849604_" class="st4" x1="71.1" y1="57.9" x2="382.2" y2="57.9"/>
					<line id="Path_00000113353838207347367390000004474811188532055176_" class="st4" x1="146.8" y1="90.9" x2="483.4" y2="90.9"/>
				</g>
			</g>
		</g>
		<g id="Group_00000108273648949430097540000003588024542615821494_" transform="translate(495.000000, 398.000000)">
			<g id="profile" transform="translate(13.310000, 15.730000)">
				<path id="shadow" class="st7" d="M27.8,0.9h262.8c14.8,0,26.9,12,26.9,26.9v262.8c0,14.8-12,26.9-26.9,26.9H27.8
					c-14.8,0-26.9-12-26.9-26.9V27.8C0.9,12.9,12.9,0.9,27.8,0.9z"/>
				<g id="profile-2" transform="translate(19.360000, 14.520000)">
					<g id="square_frame">
						<path id="square_frame-2" class="st8" d="M27.5,0.6h262.8c14.8,0,26.9,12,26.9,26.9v262.8c0,14.8-12,26.9-26.9,26.9H27.5
							c-14.8,0-26.9-12-26.9-26.9V27.4C0.7,12.6,12.7,0.6,27.5,0.6z"/>
						<g id="line" transform="translate(18.150000, 15.730000)">
							<path id="Path_00000023981041240490931700000005538332133942105751_" class="st4" d="M19.5,286.6c-11.6-1.5-18.4-9.9-18.4-19
								"/>
							<path id="Path_00000168081632797694152660000006381298370744664250_" class="st4" d="M266.2,0.9c11.6,1.4,17.3,9,17.3,18.1"
								/>
						</g>
					</g>
					<g id="profile-3" transform="translate(107.690000, 33.880000)">
						<g id="blue_circle">
							<path id="blue_circle-2" class="st9" d="M102.3,51.9c0,28.2-22.9,51.1-51.1,51.1s-51-22.9-51-51.1S23,0.8,51.2,0.8
								c13.6,0,26.6,5.4,36.1,14.9S102.3,38.3,102.3,51.9L102.3,51.9z"/>
							<path id="line-2" class="st10" d="M59.3,11.2c6.2,1.1,11.8,4.3,15.9,9.1"/>
						</g>
						<g id="man_figure" transform="translate(21.780000, 22.990000)">
							<path id="Path_00000119809134246643895450000003559887503644929935_" class="st8" d="M58.7,69.1v1.7
								C41.1,83,17.8,83,0.2,70.7V69C0,58.5,5.5,48.6,14.7,43.2s20.4-5.4,29.6,0S58.9,58.5,58.7,69.1L58.7,69.1z"/>
							<circle id="Oval" class="st8" cx="29.5" cy="16.3" r="15.9"/>
						</g>
					</g>
					<g id="password_box" transform="translate(88.330000, 212.960000)">
						<path id="rectangle_box" class="st3" d="M3.8,0.1h133.7c2.1,0,3.8,1.7,3.8,3.8v18.3c0,2.1-1.7,3.8-3.8,3.8H3.8
							C1.7,26,0,24.3,0,22.2V3.9C0,1.8,1.7,0.1,3.8,0.1z"/>
						<g id="dots_password" transform="translate(29.040000, 9.680000)">
							<path id="Path_00000097458792826318707500000005166470276971519878_" class="st7" d="M3.2,5.7c3,0,3-4.7,0-4.7
								S0.2,5.7,3.2,5.7z"/>
							<path id="Path_00000171713735400062437920000009707899235833141127_" class="st7" d="M22.4,5.7c3,0,3-4.7,0-4.7
								S19.4,5.7,22.4,5.7z"/>
							<path id="Path_00000085942688356922534710000006848162170197311423_" class="st7" d="M41.6,5.7c3,0,3-4.7,0-4.7
								S38.6,5.7,41.6,5.7z"/>
							<path id="Path_00000134942013143096706930000006484588353080773293_" class="st7" d="M60.9,5.7c3,0,3-4.7,0-4.7
								C57.8,1,57.8,5.7,60.9,5.7z"/>
							<path id="Path_00000139269466167839750230000002999690454950507929_" class="st7" d="M80.1,5.7c3,0,3-4.7,0-4.7
								C77,1,77,5.7,80.1,5.7z"/>
						</g>
					</g>
					<g id="login_box" transform="translate(88.330000, 162.140000)">
						<path id="rectangle" class="st2" d="M116.3,1.1h20.5c2.5,0,4.5,2,4.5,4.5v16.8c0,2.5-2,4.5-4.5,4.5H4.6c-2.5,0-4.5-2-4.5-4.5
							V5.6c0-2.5,2-4.5,4.5-4.5h104.6"/>
						<g id="text_line_inside" transform="translate(15.730000, 13.310000)">
							<line id="Path_00000118392318896014307400000006952864978925238199_" class="st4" x1="51.9" y1="0.7" x2="109.8" y2="0.7"/>
							<line id="Path_00000039123024428710330050000013495802107584339107_" class="st4" x1="0.1" y1="0.7" x2="38.9" y2="0.7"/>
						</g>
					</g>
					<g id="line-3" transform="translate(39.930000, 47.190000)">
						<line id="Path_00000158744384368494090610000015796336247496956857_" class="st4" x1="0.9" y1="11.7" x2="10" y2="27.9"/>
						<line id="Path_00000017478373304994537510000018115602693019327875_" class="st4" x1="7.7" y1="1.1" x2="23" y2="28.6"/>
						<line id="Path_00000027564077836060731260000009217012395908066181_" class="st4" x1="22.5" y1="5" x2="27.5" y2="14.1"/>
					</g>
				</g>
			</g>
		</g>
		<g id="Group_00000052802337012154678600000003335432912272450211_" transform="translate(143.000000, 410.000000)">
			<g id="Shapes-_x2F_-cube" transform="translate(-28.166667, 7.886667)">
				<path id="white_cube_part" class="st8" d="M158.7,139.8l129.9-139H134.7c-0.2,0-0.4,0.1-0.5,0.2L0.8,136.7L158.7,139.8z"/>
				<path id="light_blue_cube_part" class="st11" d="M254.6,321.9l-158-8.1c-0.7,0-1.3-0.4-1.6-1L0.8,136.7l157.8,3.1L254.6,321.9z"
					/>
				<path id="blue_cube" class="st12" d="M392.5,181.6L254.6,321.9l-95.9-182.2L288.6,0.8l104.2,178
					C393.3,179.7,393.1,180.8,392.5,181.6z"/>
				<g id="texture" transform="translate(189.280000, 40.560000)">
					<polyline id="Path_00000161596097847911462770000015044812147738618281_" class="st4" points="76.8,87.6 67.1,70.5 57.4,87.6 
											"/>
					<polyline id="Path_00000022531235910994485130000014885499534488689840_" class="st4" points="57.4,181.8 37.9,179.4 
						45.7,197.3 					"/>
					<polyline id="Path_00000165914102093252759690000001374263230940418477_" class="st4" points="171.3,152 185,137.9 
						165.9,133.3 					"/>
					<polyline id="Path_00000181086308195987196480000013524172776300599693_" class="st4" points="122.3,188.8 141.2,183.5 
						127,169.9 					"/>
					<polyline id="Path_00000123438678069140343080000012426563701320730521_" class="st4" points="131.7,88.5 150.6,83.2 
						136.4,69.6 					"/>
					<polyline id="Path_00000058579271351542156460000012183407434501771693_" class="st4" points="96.5,100.7 97.3,120.3 
						113.8,109.6 					"/>
					<polyline id="Path_00000047779641462452468270000006318287888961182653_" class="st4" points="0.3,110.5 19.2,105.2 5,91.6 
											"/>
					<polyline id="Path_00000056417574245559339160000006764723562865080229_" class="st4" points="94.8,17.9 103.5,0.4 84,1.8 
											"/>
					<polyline id="Path_00000122700465121432603620000009838323432308332219_" class="st4" points="70.3,234 76.8,252.5 89.4,237.5 
											"/>
					<line id="Path_00000095297430730049626870000003776799872736490626_" class="st4" x1="37.8" y1="74.1" x2="34" y2="54.9"/>
					<line id="Path_00000123420790763409133870000009870446289788780186_" class="st4" x1="43.5" y1="145" x2="24.5" y2="140.3"/>
					
						<line id="Path_00000074400432219099119670000007863381947358758067_" class="st4" x1="153.2" y1="121.5" x2="136.9" y2="110.5"/>
					<line id="Path_00000051363435908619766630000002096495663123805083_" class="st4" x1="100" y1="151.1" x2="84" y2="162.4"/>
					<line id="Path_00000062902586786730039840000016321592860427318920_" class="st4" x1="103.1" y1="54.9" x2="84.4" y2="49.2"/>
					<line id="Path_00000156578218976033814410000018112500875682681767_" class="st4" x1="98.9" y1="223.2" x2="96.5" y2="203.8"/>
					<path id="Path_00000027575189582852641120000001274530226281550214_" class="st4" d="M57.4,118.2c2.8,0,2.8-4.4,0-4.4
						C54.5,113.8,54.5,118.2,57.4,118.2z"/>
					<path id="Path_00000142170675545801582880000014691394005534320546_" class="st4" d="M67.1,31.9c2.8,0,2.8-4.4,0-4.4
						C64.2,27.5,64.2,31.9,67.1,31.9z"/>
					<path id="Path_00000103240761222185775390000012691035611105620624_" class="st4" d="M141.2,153.3c2.8,0,2.8-4.4,0-4.4
						C138.3,148.9,138.3,153.3,141.2,153.3z"/>
					<path id="Path_00000130607981483831836140000012209684595657710990_" class="st4" d="M24.5,164.6c2.8,0,2.8-4.4,0-4.4
						S21.7,164.6,24.5,164.6z"/>
					<path id="Path_00000158029007734381934880000017593293831407945111_" class="st4" d="M76.8,202.7c2.8,0,2.8-4.4,0-4.4
						S74,202.7,76.8,202.7z"/>
					<path id="Path_00000030489316552179584200000013766114924310706594_" class="st4" d="M126.2,46.2c2.8,0,2.8-4.4,0-4.4
						S123.4,46.2,126.2,46.2z"/>
				</g>
				<g id="line_00000068654189630405025630000005520733647509698974_" transform="translate(24.786667, 137.453333)">
					<line id="light_blue_cube_part-2" class="st4" x1="93.4" y1="177.5" x2="0.9" y2="0.2"/>
					<line id="light_blue_cube_part-3" class="st4" x1="122.5" y1="178.9" x2="28.2" y2="0.2"/>
					<line id="light_blue_cube_part-4" class="st4" x1="152.3" y1="180.5" x2="56" y2="0.8"/>
					<line id="light_blue_cube_part-5" class="st4" x1="180.7" y1="181.9" x2="83.5" y2="1.3"/>
					<line id="light_blue_cube_part-6" class="st4" x1="205.7" y1="182.8" x2="110.7" y2="1.9"/>
				</g>
			</g>
		</g>
		<g id="Group_00000125561165090011741530000009871141087047520146_" transform="translate(355.000000, 615.000000)">
			<g id="Objects-_x2F_-finger" transform="translate(34.926667, 21.406667)">
				<path id="Path_00000060031192371875998800000018066416083315612302_" class="st4" d="M207.4,92.6c-1.9,1.2-4.3,1.5-6.4,0.7
					l-0.3-0.1C202.9,93.9,205.4,93.7,207.4,92.6L207.4,92.6z"/>
				<path id="red_circle_form" class="st13" d="M103.1,290.7c-25.7,13.3-74.1-7-93.2-36.8c-11-17.2-11.3-38.6-4.5-47.2l0,0l0.9-1
					v-0.1l0.1-0.1c6.3-6,24.7-2.9,31.6,0C106.5,233.8,103.1,290.7,103.1,290.7z"/>
				<g id="nail" transform="translate(150.973333, 0.000000)">
					<path id="nail-2" class="st8" d="M91.1,49.1c-6,9.4-11.7,15.9-18.4,27.6c-0.6,1.1-1.3,2.2-2.1,3.2l-0.5,0.6c-0.8,1-1.7,2-2.6,3
						c-0.2,0.2-0.3,0.3-0.5,0.5c-0.4,0.4-0.7,0.7-1.1,1.1c-1.8,1.7-3.6,3.2-5.5,4.7l-1,0.8c-1,0.7-1.9,1.4-2.8,1.9l-0.2,0.1
						c-2.1,1.2-4.5,1.4-6.8,0.6h-0.2c-11.3-4-43.6-16.9-48.6-30.7c0.5-1.4,1.1-2.7,1.9-4c5.5-9,11.9-17.4,19-25.2
						c6-6.4,14.8-16.2,24.9-23.8c4.6-3.7,9.8-6.6,15.4-8.6L65.7,2c0.2,0.9-1.9,4.1-5.8,7.8c3.5-1.9,6.8-4.2,9.8-6.8
						c4,0.7,6.6,2.1,10.6,4c7,3.4,13.6,7.5,19.7,12.2c0.9,0.7,1.6,1.8,1.7,3c0,0.1,0,0.3,0,0.4C102.9,32.9,94.8,43.3,91.1,49.1z"/>
					<path id="line_00000053518936525076007470000014037429074944246938_" class="st4" d="M48.6,73.2c3.1,5.6,4.1,11.5,3,16.3"/>
					<path id="line-2_00000149352817944704814470000013890184188538111362_" class="st4" d="M9.7,56.8c7-1.7,16.2-0.2,23.2,2.7
						c4.8,2,9.1,5.1,12.4,9.1"/>
					<g id="lines_00000004521185306307164330000009351466201938542519_" transform="translate(64.220000, 19.153333)">
						<line id="Path_00000099660459240599357630000016564152335762075779_" class="st4" x1="9.1" y1="0.5" x2="3.3" y2="9"/>
						<line id="Path_00000003089911396148414020000010832126387323480494_" class="st4" x1="10.6" y1="4.8" x2="9.1" y2="6.7"/>
						<line id="Path_00000080927941370822366820000009087478024579931326_" class="st4" x1="3.3" y1="0.5" x2="1" y2="3.4"/>
					</g>
				</g>
				<g id="circles_linjes" transform="translate(13.520000, 215.193333)">
					<path id="Path_00000003106431092506623340000013480116723081934014_" class="st4" d="M56.1,64.6C38.2,62.4,16,49.8,6.7,35.3
						c-7.3-11.4-7.5-25.7-3-31.4l0,0l0.6-0.6l0,0l0.1-0.1c4.2-4,16.4-1.9,21.1,0c33.9,14,43.7,40.1,46.5,52.5c0.5,2,0.1,4.1-1.1,5.8
						s-3,2.9-5,3.2"/>
					<path id="Path_00000121982434208389592500000014248620534030353035_" class="st4" d="M34.1,17.6C45.4,23.8,53.4,34.7,56,47.3
						c0.3,1.2,0.1,2.4-0.6,3.4c-0.6,1-1.7,1.7-2.8,2C42.4,54.3,26.2,45.5,20,35.1c-4-6.9-4.2-15.5-1.6-18.9l0,0l0.3-0.4l0,0l0,0
						c1.1-1.2,3.4-1.5,5.7-1.3"/>
					<path id="Path_00000132779135205155434910000001774825458304851074_" class="st4" d="M43.6,38.6c0.1,0.4,0,0.9-0.2,1.3
						c-0.2,0.4-0.6,0.6-1,0.7c-3.8,0.6-9.7-2.7-11.9-6.5c-1.5-2.5-1.5-5.6-0.6-6.9l0,0l0.1-0.1l0,0l0,0c0.8-0.9,3.4-0.4,4.3,0
						C39,29.1,42.5,33.4,43.6,38.6L43.6,38.6z"/>
				</g>
				<g id="finger-2" transform="translate(5.633333, 21.406667)">
					<path id="finger-3" class="st13" d="M251,87.6c-25.7,54.7-59.5,89.8-92.4,124.4c-19.2,20.3-39.6,39.4-61.1,57.3
						c0,0,3.4-56.9-65-85.1c-6.9-2.9-25.4-6-31.6,0l-0.1,0.1c6.2-7,44.9-44.6,63.4-65.1c68.6-75.8,82-78.6,82-78.6s0.1,0.3,0.1,0.4
						c5,13.9,37.3,26.8,48.6,30.7h0.2c2.2,0.8,4.7,0.6,6.8-0.6L202,71c0.8-0.6,1.8-1.2,2.8-1.9c0.3-0.2,0.7-0.5,1-0.8
						c1.9-1.5,3.8-3,5.5-4.7c0.4-0.3,0.7-0.7,1.1-1.1c0.2-0.2,0.3-0.3,0.5-0.5c0.9-0.9,1.8-1.9,2.6-3c0.2-0.2,0.3-0.4,0.5-0.6
						c0.8-1,1.5-2.1,2.1-3.2c6.7-11.7,12.4-18.2,18.4-27.6c3.7-5.8,11.8-16.2,10.6-26.6C247.7,1.8,276.4,33.4,251,87.6z"/>
					<g id="lines-2" transform="translate(236.600000, 33.800000)">
						<path id="Path_00000088094706566348003300000013852304182527832239_" class="st4" d="M14.5,17.6C13.9,26.5,11,38.2,2.3,50.8"
							/>
						<path id="Path_00000087390120915725328090000017671931387263871380_" class="st4" d="M13.1,0.9c1,3.6,1.6,7.4,1.6,11.2"/>
						<path id="Path_00000150094846774590409590000014400193471133617547_" class="st4" d="M5.1,8c0,0,4.1,12.5-4.7,27.6"/>
					</g>
					<g id="line-3_00000140011607828947690020000018311571393322518204_" transform="translate(118.300000, 141.960000)">
						<path id="Path_00000117671634881607570180000002530741458887175041_" class="st4" d="M72.4,16.8C53.3,37.8,19.8,74.2,0,92.5"
							/>
						<path id="Path_00000067953634627910935330000011730635873834801312_" class="st4" d="M86.9,0.7c0,0-3.2,3.6-8.4,9.4"/>
					</g>
					<g id="lines-3" transform="translate(82.246667, 105.906667)">
						<path id="Path_00000054948242156524311490000017026725466022739902_" class="st4" d="M0.3,8c0,0,28.2,1.6,41.1,27.9"/>
						<path id="Path_00000069397105300180501620000013416498666569135758_" class="st4" d="M36.7,11.6c1.7,1.7,3.3,3.5,4.7,5.4"/>
						<path id="Path_00000059305895857014979990000015188696272146541233_" class="st4" d="M14.6,0.9c0,0,8.4-0.1,17.8,7"/>
						<path id="Path_00000072970550053049748690000009644556508106581678_" class="st4" d="M8.3,22c0,0,6.3,2.4,9.6,5.9"/>
					</g>
				</g>
			</g>
		</g>
		<g id="Devices-_x2F_-gopro-camera">
			<g id="gopro-camera">
				<g id="Group-3">
					<path id="Rectangle" class="st8" d="M181,248.9h225.8c10.6,0,19.1,8.6,19.1,19.1v160.4c0,10.6-8.6,19.1-19.1,19.1H181
						c-10.6,0-19.2-8.6-19.2-19.1V268.1C161.8,257.5,170.4,248.9,181,248.9z"/>
					<path id="Path_00000109008100667488413430000004022522683036517011_" class="st4" d="M171.6,270.2c0-2.7,1.1-5.3,3-7.3
						c1.9-1.9,4.5-3,7.3-3"/>
					<path id="Path_00000106854615340291504360000012496941170056463292_" class="st4" d="M414.1,427.6c0,5.7-4.6,10.3-10.3,10.3"/>
					<path id="Path_00000052091746623668919300000013696710028804800693_" class="st8" d="M269.1,230.2H290c3.4,0,6.2,2.8,6.2,6.2
						v12.5h-33.3v-12.4c0-1.7,0.6-3.2,1.8-4.4S267.5,230.2,269.1,230.2z"/>
					<path id="Path_00000137850444501437689160000017046914418510643354_" class="st4" d="M266.9,238.4c0-2.2,1.8-4,4-4"/>
					<path id="Path_00000032640286662917296060000014740159053702751624_" class="st8" d="M316.8,230.2h21.7c3.7,0,6.7,3,6.7,6.7v12
						H310v-12C310,233.2,313.1,230.2,316.8,230.2L316.8,230.2z"/>
					<path id="Path_00000096055276118309557820000003138296793749599895_" class="st4" d="M314.3,238.4c0-2.2,1.8-4,4-4"/>
					<path id="blue_button" class="st12" d="M371.1,235.3H386c2.9,0,5.3,2.4,5.3,5.3v8.3h-25.6v-8.3
						C365.8,237.7,368.2,235.3,371.1,235.3L371.1,235.3z"/>
					<path id="violet_button" class="st14" d="M226.2,235.3h13.6c1.7,0,3.3,0.7,4.5,1.8c1.2,1.2,1.9,2.8,1.9,4.5v7.3H220v-7.3
						C219.9,238.2,222.7,235.3,226.2,235.3z"/>
					<path id="low_black_part" class="st7" d="M215.6,447.6h161v1.5c0,2.3-0.9,4.4-2.5,6s-3.8,2.5-6,2.5h-144
						c-4.7,0-8.6-3.8-8.6-8.6L215.6,447.6L215.6,447.6z"/>
					<circle id="red_button" class="st15" cx="268.1" cy="396.6" r="6.1"/>
					<path id="Rectangle_00000168799866951585456350000001882468752805171373_" class="st7" d="M302.7,242.1h100.6
						c17.1,0,31,13.9,31,31v86.5c0,17.1-13.9,31-31,31H302.7c-17.1,0-31-13.9-31-31v-86.5C271.7,256,285.6,242.1,302.7,242.1z"/>
					<g id="Rectangle-2" transform="translate(129.600000, 11.900000)" class="st16">
						<path id="Rectangle_00000139984416820416235070000001042828241404493184_" class="st8" d="M173.1,230.2h100.6
							c17.1,0,31,13.9,31,31v86.5c0,17.1-13.9,31-31,31H173.1c-17.1,0-31-13.9-31-31v-86.5C142.1,244.1,156,230.2,173.1,230.2z"/>
					</g>
					<circle id="Oval_00000124874516604974060030000001239945081293877912_" class="st8" cx="305.3" cy="260.3" r="4.7"/>
					<circle id="Oval_00000096737353051206761740000004981389852475582080_" class="st8" cx="284.6" cy="280.4" r="4.7"/>
					<circle id="Oval_00000139255232947258261000000016153995809692264848_" class="st8" cx="399.1" cy="260.3" r="4.7"/>
					<circle id="Oval_00000129171348632368821710000014454352427915350172_" class="st8" cx="419.8" cy="280.4" r="4.7"/>
					<circle id="Oval_00000169540008870963796080000012286241380647346094_" class="st8" cx="305.3" cy="377" r="4.7"/>
					<circle id="Oval_00000093875572436087490590000003055944351153755034_" class="st8" cx="284.6" cy="356.9" r="4.7"/>
					<ellipse id="Oval_00000003076674408526954470000005180413918126546573_" class="st17" cx="399.2" cy="377" rx="4.7" ry="4.7"/>
					<circle id="Oval_00000089532219962953027840000009811425547924273539_" class="st8" cx="419.8" cy="356.9" r="4.7"/>
					<path id="Rectangle_00000018226918834747444210000004519973285924820159_" class="st7" d="M305.1,269.3H400c5,0,9,4,9,9v76.4
						c0,5-4,9-9,9h-94.8c-5,0-9-4-9-9v-76.4C296.1,273.4,300.2,269.3,305.1,269.3z"/>
					<g id="Rectangle-3" transform="translate(166.050000, 49.460000)" class="st18">
						<path id="Rectangle_00000050640513738735674590000016710855248650994819_" class="st8" d="M151.1,230.2h70.1c5,0,9,4,9,9V295
							c0,5-4,9-9,9h-70.1c-5,0-9-4-9-9v-55.7C142.1,234.3,146.1,230.2,151.1,230.2z"/>
					</g>
					<circle id="Oval_00000149368522617054825450000005096351866966064801_" class="st7" cx="352.6" cy="316.3" r="29.9"/>
					<path id="Path_00000169522389085232102860000005944905456143254170_" class="st4" d="M356.3,297.2c5.6,1.1,10.6,4.4,13.8,9.2"
						/>
					<path id="Path_00000004537361523726004570000008868200397657931430_" class="st8" d="M156.6,370.8h5.2v35h-5.2
						c-3.8,0-6.9-3.1-6.9-6.9v-21.2C149.7,373.9,152.8,370.8,156.6,370.8z"/>
					<path id="Path_00000066509381822698983830000004104913606925704114_" class="st7" d="M145.6,380h4.1v16.6h-4.1
						c-1.5,0-2.7-1.2-2.7-2.7v-11.2C142.9,381.2,144.1,380,145.6,380z"/>
					<circle id="Oval_00000106112659663557952430000013620944651868176779_" class="st5" cx="213.3" cy="396.6" r="19.5"/>
					<circle id="Oval_00000095327544246252238150000000680667330901591449_" class="st8" cx="213.3" cy="396.6" r="6.6"/>
					<path id="Path_00000076583267325492785300000001680598596036470431_" class="st4" d="M215.6,382.9c3.4,0.8,6.5,2.8,8.6,5.5"/>
					<path id="frame" class="st8" d="M249.6,309.9V340c0,6.1-4.9,11-11,11.1h-48c-6.1,0-11.1-5-11.1-11.1v-58.7
						c0-6.1,5-11.1,11.1-11.1h47.9c6.1,0,11,5,11,11.1v15.9"/>
					<path id="Rectangle_00000163051600766157962590000005168965816415351482_" class="st19" d="M196.1,284.3H233c1.1,0,2,0.9,2,2
						v48.8c0,1.1-0.9,2-2,2h-36.8c-1.1,0-2-0.9-2-2v-48.8C194.1,285.2,195,284.3,196.1,284.3z"/>
					
						<line id="Path_00000173882668353453071480000008196099017430083980_" class="st4" x1="209.2" y1="302.7" x2="222.7" y2="318.6"/>
					
						<line id="Path_00000127007744778139854570000010192699746977721746_" class="st4" x1="218.5" y1="303.3" x2="221.8" y2="307.2"/>
					
						<line id="Path_00000052082396232323223860000017942106758924384427_" class="st4" x1="206.4" y1="309.9" x2="213.6" y2="318.4"/>
					<line id="Path_00000019673196370190673050000016707084573335130289_" class="st4" x1="344.4" y1="406" x2="366.7" y2="434.8"/>
					
						<line id="Path_00000167392532411285156100000013777175836000202629_" class="st4" x1="358.8" y1="407.6" x2="371.4" y2="423.9"/>
					
						<line id="Path_00000018934089015082112150000003063448878469980557_" class="st4" x1="342.5" y1="420.6" x2="355.6" y2="437.5"/>
					
						<line id="Path_00000054979532249136708280000002401044662212528267_" class="st4" x1="363.3" y1="407.6" x2="343.1" y2="433.6"/>
					
						<line id="Path_00000065055358251102645690000014290469812205014405_" class="st4" x1="352.6" y1="404.4" x2="344.4" y2="414.9"/>
					
						<line id="Path_00000180336078283722059900000005957925441161939332_" class="st4" x1="369.5" y1="416.6" x2="356.6" y2="433.2"/>
				</g>
			</g>
		</g>
	</g>
</g>
</svg>
