<?xml version="1.0" encoding="UTF-8"?>
<svg width="1000px" height="1000px" viewBox="0 0 1000 1000" version="1.1" xmlns="http://www.w3.org/2000/svg" xmlns:xlink="http://www.w3.org/1999/xlink">
    <title>Sign In</title>
    <g id="All-Scenes" stroke="none" stroke-width="1" fill="none" fill-rule="evenodd">
        <g id="Sign-In">
            <rect id="BG" x="0" y="0" width="1000" height="1000"></rect>
            <g id="Group" transform="translate(138.368456, 358.500000)" fill-rule="nonzero" stroke="#0D052C" stroke-linecap="round" stroke-linejoin="round" stroke-width="1.5">
                <g id="Shapes-/-black-and-yellow-square-with-lines" transform="translate(212.000000, 212.000000) scale(1, -1) translate(-212.000000, -212.000000) ">
                    <g transform="translate(5.653333, 8.480000)">
                        <rect id="black_square" fill="#1D1E5F" x="1.06" y="1.06" width="362.251467" height="362.251467"></rect>
                        <g id="yellow_square_with_lines" transform="translate(50.880000, 45.226667)">
                            <rect id="yellow_square" fill="#FFE483" x="0.3816" y="0.113066667" width="362.251467" height="362.251467"></rect>
                            <g id="lines">
                                <polyline id="Path" points="318.098933 44.6472 362.633067 0.113066667 225.963733 362.3504 0.3816 0.113066667 362.633067 362.3504 0.3816 181.231733 362.633067 181.231733 196.976267 0.113066667 0.3816 110.296533 80.984 0.113066667 75.1893333 362.3504"></polyline>
                                <polyline id="Path" points="362.633067 0.113066667 139.397067 362.3504 139.397067 0.113066667 0.3816 362.3504 309.4352 53.2968"></polyline>
                                <polyline id="Path" points="196.976267 0.113066667 284.899733 362.3504 362.633067 260.788267 0.3816 181.231733 40.9584 362.3504"></polyline>
                            </g>
                        </g>
                    </g>
                </g>
            </g>
            <g id="Group" transform="translate(109.694162, 171.000000)" fill-rule="nonzero" stroke="#0D052C" stroke-linecap="round" stroke-linejoin="round" stroke-width="1.5">
                <g id="cloud" transform="translate(-15.400000, 52.190000)">
                    <g id="cloud-2" fill="#FFFFFF">
                        <path d="M337.116267,143.0313 C337.116267,175.762031 310.499345,202.297116 277.662,202.302767 L276.892,202.302767 L52.1238667,201.443167 C32.0028538,201.346476 13.7173666,189.765646 5.08263399,171.650332 C-3.55209859,153.535019 -1.0083916,132.09024 11.626573,116.48151 C24.2615375,100.872779 44.7523407,93.8616434 64.3412,98.4446667 C52.1050915,59.6752228 73.0627936,18.2432858 111.610902,4.99571268 C150.159011,-8.2518604 192.281183,11.5018347 206.616667,49.5498 C219.534382,40.1577022 236.649356,38.7924904 250.901207,46.0173507 C265.153059,53.2422109 274.126597,67.8327821 274.12,83.7700667 L274.12,83.9133333 C275.300667,83.8417 276.4916,83.811 277.6928,83.811 C310.500427,83.8279329 337.09361,110.330195 337.116267,143.0313 L337.116267,143.0313 Z" id="Path"></path>
                        <path d="M206.616667,49.5498 C209.743546,57.9251226 211.342932,66.7902243 211.339339,75.7266667 C211.33922,78.3860333 211.198714,81.0435518 210.9184,83.6882" id="Path"></path>
                        <path d="M64.3412,98.4344333 C72.6869416,100.4333 80.4117098,104.446555 86.8354667,110.1209" id="Path"></path>
                        <path d="M253.309467,88.9481333 C260.967737,85.5233635 269.268279,83.7584237 277.662,83.7700667" id="Path"></path>
                    </g>
                    <path d="M26.8781333,170.7534 C19.9828646,164.685231 16.0374895,155.955308 16.0467836,146.786933 C16.0488081,144.97276 16.2033489,143.161945 16.5088,141.3735" id="line" fill="#FFFFFF"></path>
                    <g id="line-2" transform="translate(83.160000, 27.630000)" fill="#FFFFFF">
                        <path d="M16.7038667,2.98813333 C18.6937554,1.85484013 20.8279349,0.994301967 23.0486667,0.4298" id="Path"></path>
                        <path d="M0.687866667,28.6533333 C0.687866667,19.9857 5.62613333,11.3283 12.5356,5.78183333" id="Path"></path>
                    </g>
                    <g id="line-3" transform="translate(249.480000, 134.056667)">
                        <line x1="0.759733333" y1="9.1793" x2="7.75133333" y2="21.7151333" id="Path"></line>
                        <line x1="5.9752" y1="0.9517" x2="17.8537333" y2="22.2268" id="Path"></line>
                        <line x1="17.4636" y1="3.95006667" x2="21.3752" y2="10.9701333" id="Path"></line>
                    </g>
                </g>
            </g>
            <g id="Group" transform="translate(265.000000, 64.706070)" fill-rule="nonzero" stroke="#0D052C" stroke-linecap="round" stroke-linejoin="round" stroke-width="1.5">
                <g id="Windows-/-orange-screen-with-two-text-boxes" transform="translate(18.800000, 63.450000)">
                    <g id="screen" transform="translate(0.000000, 28.983333)" fill="#FFBA68">
                        <path d="M432.400004,0.642333333 L432.400004,306.784667 C432.400004,308.615607 431.675665,310.372156 430.380994,311.666827 C429.086323,312.961499 427.329774,313.685838 425.498833,313.685838 L7.48866667,313.685838 C3.67725756,313.685838 0.5875,310.596076 0.5875,306.784667 L0.5875,0.642333333 L432.400004,0.642333333 Z" id="Path"></path>
                    </g>
                    <path d="M5.27183333,0.5875 L427.7,0.5875 C430.295738,0.5875 432.4,2.69176168 432.4,5.2875 L432.4,29.6491667 L0.5875,29.6491667 L0.5875,5.27183333 C0.596097463,2.68831704 2.68831704,0.596097463 5.27183333,0.5875 Z" id="upper_screen" fill="#1D1E5F"></path>
                    <g id="browser_circles" transform="translate(21.933333, 9.400000)">
                        <circle id="Oval" fill="#FF5986" cx="5.41283333" cy="5.828" r="5.18566667"></circle>
                        <circle id="Oval" fill="#FFE483" cx="28.3958333" cy="5.71833333" r="5.18566667"></circle>
                        <circle id="Oval" fill="#53F2D4" cx="51.371" cy="5.828" r="5.18566667"></circle>
                    </g>
                    <g id="minimize_button" transform="translate(336.833333, 6.266667)">
                        <rect id="square" fill="#FFFFFF" x="0.133166667" y="0.7755" width="15.792" height="16.3638333"></rect>
                        <line x1="3.6895" y1="13.16" x2="12.3766667" y2="13.16" id="line"></line>
                    </g>
                    <g id="maximize_button" transform="translate(369.733333, 6.266667)">
                        <rect id="square-2" fill="#FFFFFF" x="0.1645" y="0.7755" width="15.792" height="16.3638333"></rect>
                        <rect id="square-3" x="4.10466667" y="4.8645" width="7.91166667" height="8.2015"></rect>
                    </g>
                    <g id="close_button" transform="translate(402.633333, 6.266667)">
                        <rect id="square-4" fill="#FFFFFF" x="0.195833333" y="0.7755" width="15.792" height="16.3638333"></rect>
                        <g id="cross" transform="translate(3.916667, 4.700000)">
                            <line x1="0.219333333" y1="0.1645" x2="8.131" y2="8.366" id="Path"></line>
                            <line x1="0.219333333" y1="8.366" x2="8.131" y2="0.1645" id="Path"></line>
                        </g>
                    </g>
                    <g id="text_box" transform="translate(119.066667, 112.016667)">
                        <rect id="text_box-2" fill="#FFFFFF" x="0.2115" y="0.321166667" width="194.783667" height="37.741"></rect>
                        <g id="text_lines" transform="translate(21.150000, 18.800000)">
                            <line x1="101.809833" y1="0.5" x2="149.5775" y2="0.5" id="Path"></line>
                            <line x1="0.219333333" y1="0.5" x2="89.77" y2="0.5" id="Path"></line>
                        </g>
                    </g>
                    <g id="text_box-3" transform="translate(119.066667, 180.166667)">
                        <rect id="text_box-4" fill="#FFFFFF" x="0.2115" y="0.297666667" width="194.783667" height="37.741"></rect>
                        <line x1="22.5521667" y1="19.1681667" x2="170.939" y2="19.1681667" id="text_line"></line>
                    </g>
                </g>
            </g>
            <g id="Group" transform="translate(563.194162, 294.000000)" fill-rule="nonzero" stroke="#0D052C" stroke-linecap="round" stroke-linejoin="round" stroke-width="1.5">
                <g id="cloud" transform="translate(-17.200000, 58.480000)">
                    <g id="cloud-2" fill="#FFFFFF">
                        <path d="M376.519467,160.2696 C376.519467,196.945077 346.791477,226.678201 310.116,226.684533 L309.256,226.684533 L58.2162667,225.721333 C35.7434471,225.612989 15.3206951,212.636425 5.6767081,192.337832 C-3.96727895,172.039239 -1.12625555,148.009911 12.9855231,130.519998 C27.0973017,113.030085 49.9831338,105.173959 71.8616,110.309333 C58.195297,66.8673506 81.6026006,20.4419879 124.656333,5.59780183 C167.710065,-9.24638429 214.755606,12.8880493 230.766667,55.5216 C245.194245,44.9975556 264.30967,43.4678068 280.227322,51.5634157 C296.144974,59.6590246 306.167368,76.0080686 306.16,93.8661333 L306.16,94.0266667 C307.478667,93.9464 308.8088,93.912 310.1504,93.912 C346.792685,93.9309736 376.494162,123.627319 376.519467,160.2696 L376.519467,160.2696 Z" id="Path"></path>
                        <path d="M230.766667,55.5216 C234.259025,64.9063263 236.045353,74.8398604 236.04134,84.8533333 C236.041206,87.8332099 235.884278,90.8110157 235.5712,93.7744" id="Path"></path>
                        <path d="M71.8616,110.297867 C81.1828179,112.537639 89.8104811,117.034577 96.9850667,123.3928" id="Path"></path>
                        <path d="M282.917067,99.6682667 C291.47046,95.8307396 300.741194,93.8530872 310.116,93.8661333" id="Path"></path>
                    </g>
                    <path d="M30.0197333,191.3328 C22.3185241,184.533288 17.9120013,174.751225 17.9223816,164.477867 C17.9246428,162.445047 18.0972469,160.41599 18.4384,158.412" id="line" fill="#FFFFFF"></path>
                    <g id="line-2" transform="translate(92.880000, 30.960000)" fill="#FFFFFF">
                        <path d="M18.6562667,3.34826667 C20.8787398,2.07838763 23.2623688,1.11413641 25.7426667,0.4816" id="Path"></path>
                        <path d="M0.768266667,32.1066667 C0.768266667,22.3944 6.28373333,12.6936 14.0008,6.47866667" id="Path"></path>
                    </g>
                    <g id="line-3" transform="translate(278.640000, 150.213333)">
                        <line x1="0.848533333" y1="10.2856" x2="8.65733333" y2="24.3322667" id="Path"></line>
                        <line x1="6.6736" y1="1.0664" x2="19.9405333" y2="24.9056" id="Path"></line>
                        <line x1="19.5048" y1="4.42613333" x2="23.8736" y2="12.2922667" id="Path"></line>
                    </g>
                </g>
            </g>
            <g id="Group" transform="translate(350.000000, 395.959374)" fill-rule="nonzero" stroke="#0D052C" stroke-linecap="round" stroke-linejoin="round" stroke-width="1.5">
                <g id="Objects-/-arrow" transform="translate(37.000000, -16.000000)">
                    <g id="arrow-2">
                        <path d="M175.76,176.09 C192.81,225.82 215,291 215.83,295.44 L10.56,295.44 C11.36,291.02 33.56,225.82 50.62,176.09 C61.36,144.76 70,119.58 70,119.58 L0.75,128.74 L112,1.28 C112.292526,0.941630656 112.717713,0.747161854 113.165,0.747161854 C113.612287,0.747161854 114.037474,0.941630656 114.33,1.28 L225.63,128.74 L156.34,119.58 C156.34,119.58 165,144.76 175.76,176.09 Z" id="Path" fill="#FF81AF"></path>
                        <path d="M70,119.58 C70,119.58 61.32,144.76 50.58,176.09 L0.75,128.74 L70,119.58 Z" id="Path" fill="#1D1E5F"></path>
                        <path d="M225.63,128.74 L175.76,176.09 C165.03,144.76 156.34,119.58 156.34,119.58 L225.63,128.74 Z" id="Path" fill="#1D1E5F"></path>
                        <path d="M215.83,295.44 L195.14,331 C194.996847,331.252083 194.72989,331.408443 194.44,331.41 L31.94,331.41 C31.6506716,331.406409 31.3846531,331.250598 31.24,331 L10.56,295.44 L215.83,295.44 Z" id="Path" fill="#1D1E5F"></path>
                    </g>
                    <g id="stroke_lines" transform="translate(106.000000, 225.000000)">
                        <g id="lines">
                            <line x1="1.9" y1="0.03" x2="18.79" y2="21.83" id="Path"></line>
                            <line x1="0.47" y1="11.06" x2="10.34" y2="23.81" id="Path"></line>
                        </g>
                        <g id="lines-2" transform="translate(0.000000, 1.000000)">
                            <line x1="16.16" y1="0.24" x2="0.94" y2="19.88" id="Path"></line>
                            <line x1="18.63" y1="9.93" x2="11.14" y2="19.6" id="Path"></line>
                        </g>
                    </g>
                    <g id="line" transform="translate(137.000000, 50.000000)">
                        <path d="M19.34,23 C21.45,25.41 23.41,27.63 25.02,29.4" id="Path"></path>
                        <path d="M0,0.37 C0,0.37 7.46,9.25 14.83,17.81" id="Path"></path>
                    </g>
                </g>
            </g>
            <g id="Group" transform="translate(537.000000, 537.706070)" fill-rule="nonzero" stroke="#0D052C" stroke-linecap="round" stroke-linejoin="round" stroke-width="1.5">
                <g id="globe" transform="translate(-8.000000, 2.000000)">
                    <circle id="shadow" fill="#1D1E5F" cx="147.51" cy="148.26" r="146.76"></circle>
                    <g id="planet_globe" transform="translate(20.000000, 0.000000)">
                        <path d="M287.66,103.39 C311.500407,178.573365 271.600506,259.146691 197.35213,285.756503 C123.103754,312.366315 41.1073432,275.479303 11.7646732,202.267889 C-17.5779968,129.056475 16.2454647,45.7495936 88.3193682,13.7143646 C160.393272,-18.3208643 244.896209,12.3925938 279.58,83.23" id="Path" fill="#87D4FF"></path>
                        <line x1="147.38" y1="0.76" x2="147.38" y2="295.02" id="Path"></line>
                        <ellipse id="Oval" cx="147.38" cy="147.88" rx="84.05" ry="147.13"></ellipse>
                        <line x1="0.26" y1="147.89" x2="294.51" y2="147.89" id="Path"></line>
                        <path d="M254.66,47.21 C228.31,63.42 190,73.6 147.38,73.6 C104.76,73.6 66.47,63.42 40.1,47.21 C67.905525,17.5670903 106.737051,0.750361721 147.38,0.750361721 C188.022949,0.750361721 226.854475,17.5670903 254.66,47.21 L254.66,47.21 Z" id="Path"></path>
                        <path d="M254.66,248.55 C226.854475,278.19291 188.022949,295.009638 147.38,295.009638 C106.737051,295.009638 67.905525,278.19291 40.1,248.55 C66.47,232.35 104.75,222.16 147.38,222.16 C190.01,222.16 228.31,232.35 254.66,248.55 Z" id="Path"></path>
                        <line x1="174.68" y1="108.32" x2="181.62" y2="120.79" id="Path"></line>
                        <line x1="179.86" y1="100.14" x2="191.63" y2="121.3" id="Path"></line>
                        <line x1="191.24" y1="103.12" x2="195.13" y2="110.1" id="Path"></line>
                    </g>
                </g>
            </g>
            <g id="Group" transform="translate(267.000000, 285.000000)">
                <g id="4-man" transform="translate(12.100000, 233.200000)">
                    <g id="legs" transform="translate(17.600000, 181.500000)" stroke-linecap="round" stroke-linejoin="round">
                        <g id="leg_part" transform="translate(72.600000, 123.200000)" fill-rule="nonzero" stroke="#0D052C" stroke-width="1.5">
                            <path d="M287.859,16.5 L282.128,66.264 L0.858,65.054 C10.967,65.054 27.324,51.854 35.398,45.056 L64.966,20.339 L88.858,0.374 L287.859,16.5 Z" id="Path" fill="#7774FF"></path>
                            <g id="lines" transform="translate(104.500000, 25.300000)">
                                <line x1="3.278" y1="0.264" x2="14.047" y2="14.157" id="Path"></line>
                                <line x1="10.714" y1="0.748" x2="13.365" y2="4.18" id="Path"></line>
                                <line x1="1.078" y1="6.534" x2="6.831" y2="13.959" id="Path"></line>
                            </g>
                        </g>
                        <g id="shoe" transform="translate(240.900000, 145.200000)" fill-rule="nonzero" stroke="#0D052C" stroke-width="1.5">
                            <path d="M99.847,44.154 L19.646,43.813 C17.8467335,43.7959038 16.2391823,42.6849944 15.587,41.008 L0.187,0.704 L62.029,0.704 L67.881,20.9 C67.881,20.9 90.981,27.357 100.771,42.471 C100.982119,42.8087618 100.994153,43.2342658 100.802461,43.5834197 C100.610769,43.9325736 100.245302,44.1508223 99.847,44.154 Z" id="Path" fill="#FFFFFF"></path>
                            <path d="M67.881,20.9 C62.2401447,19.4642766 56.4083491,18.9260141 50.6,19.305" id="Path"></path>
                            <path d="M66.121,28.457 C69.179,28.963 74.701,30.162 78.298,32.505" id="Path"></path>
                        </g>
                        <g id="shoe-2" transform="translate(354.200000, 115.500000)" fill-rule="nonzero" stroke="#0D052C" stroke-width="1.5">
                            <path d="M57.97,3.861 L42.636,69.542 C42.025258,72.1821813 39.6698887,74.049131 36.96,74.0410265 L0.528,73.92 L6.259,24.2 L29.282,26.059 C37.433,10.494 48.884,2.706 54.769,0.869 C55.6320161,0.620269687 56.5622478,0.843509202 57.218391,1.45681143 C57.8745342,2.07011366 58.1599809,2.9831784 57.97,3.861 Z" id="Path" fill="#FFFFFF"></path>
                            <path d="M29.282,26.015 C26.9783483,29.550114 25.1616625,33.3795839 23.881,37.4" id="Path"></path>
                            <path d="M36.652,26.015 C36.652,26.015 37.488,22.077 42.647,17.402" id="Path"></path>
                        </g>
                        <g id="leg">
                            <g id="leg_part-2" fill-rule="nonzero" stroke="#0D052C" stroke-width="1.5">
                                <path d="M302.896,145.904 L241.054,145.904 L234.773,129.459 L234.113,127.787 L234.113,127.787 L233.222,125.587 L214.522,79.123 L161.458,123.53 L137.566,143.495 L107.998,168.212 C99.924,174.966 83.567,188.21 73.458,188.21 L47.41,188.1 C21.9749693,188.010616 1.14679849,167.857297 0.22,142.439 C0.088,138.193 0.22,135.465 0.22,135.465 L123.706,54.395 L152.537,35.464 C154.33,34.287 156.112,33.11 157.883,31.9 C159.654,30.69 161.183,29.634 162.822,28.479 C163.713,27.841 164.681,27.181 165.715,26.466 L165.715,26.466 C175.209356,19.951846 185.215353,14.2167908 195.635,9.317 C196.845,8.767 198.077,8.217 199.309,7.711 C200.024,7.392 200.75,7.095 201.509,6.809 C214.357,1.617 227.843,-1.364 238.315,2.222 C269.874,13.002 283.987,78.232 283.987,78.232 L298.606,131.153 L299.651,134.75 L302.896,145.904 Z" id="leg_part-3" fill="#7774FF"></path>
                                <polyline id="Path" points="161.458 123.53 214.577 79.123 233.189 63.558"></polyline>
                                <path d="M224.994,16.808 C222.629,15.378 221.276,13.695 221.628,12.265" id="Path"></path>
                                <path d="M231,10.01 C231.781,10.131 232.584,10.285 233.398,10.483 C239.283,11.935 243.573,15.081 242.979,17.512 C242.385,19.943 237.116,20.735 231.231,19.294 C229.840256,18.9557223 228.482008,18.4956113 227.172,17.919" id="Path"></path>
                                <path d="M228.063,13.849 C228.195,13.288 230.208,13.299 232.54,13.849 C234.872,14.399 236.665,15.345 236.522,15.906" id="Path"></path>
                                <path d="M40.909,171.985 C43.3626209,172.819571 45.9299078,173.272185 48.521,173.327" id="Path"></path>
                                <path d="M21.901,155.463 C21.901,155.463 27.027,164.934 36.564,170.082" id="Path"></path>
                            </g>
                            <path d="M99.77,158.4 C105.976553,154.085307 111.680721,149.089548 116.776,143.506" id="Path" stroke="#FFFFFF" stroke-width="0.8"></path>
                        </g>
                    </g>
                    <path d="M145.849,190.795 L122.815,201.3 C113.663,178.2 106.062,151.525 99.022,136.796 C95.106,128.59 90.552,121.506 85.316,116.468 C84.744,115.929 84.216,115.368 83.578,114.906 C102.575,127.699 134.541,184.536 145.849,190.795 Z" id="hand" stroke="#0D052C" stroke-width="1.5" fill="#C0FF97" fill-rule="nonzero" stroke-linecap="round" stroke-linejoin="round"></path>
                    <g id="body" transform="translate(7.700000, 107.800000)" stroke-linecap="round" stroke-linejoin="round">
                        <g id="body-2" fill-rule="nonzero" stroke="#0D052C" stroke-width="1.5">
                            <path d="M133.606,128.095 L10.12,209.165 C10.12,209.165 2.618,112.827 0.22,58.542 C-1.331,24.442 15.268,10.252 27.83,4.466 C33.5676606,1.86134067 39.7998569,0.525602027 46.101,0.549671698 L59.84,0.549671698 C65.736,0.549671698 71.071,2.959 75.878,7.051 C76.461,7.535 77.044,8.074 77.616,8.613 C82.852,13.651 87.406,20.713 91.322,28.941 C98.362,43.67 105.963,70.312 115.115,93.445 C120.637,107.404 126.731,120.076 133.606,128.095 Z" id="Path" fill="#C0FF97"></path>
                            <path d="M61.512,13.002 C63.14,12.672 64.812,12.243 66.594,11.704" id="Path"></path>
                            <path d="M33.517,8.69 C33.517,8.69 41.569,15.29 56.705,13.761" id="Path"></path>
                        </g>
                        <path d="M12.441,34.738 C12.441,34.738 12.584,26.356 22.528,18.634" id="Path" stroke="#FFFFFF" stroke-width="0.8"></path>
                    </g>
                    <g id="smartphone" transform="translate(180.400000, 48.400000)" stroke-linecap="round" stroke-linejoin="round">
                        <g id="screen" transform="translate(2.200000, 2.200000)" fill="#FFE483" fill-rule="nonzero" stroke="#0D052C" stroke-width="1.5">
                            <path d="M59.62,14.377 L43.34,80.586 C42.6077358,83.0498744 40.0200628,84.4568601 37.554,83.732 L4.136,75.515 C2.91773952,75.2760441 1.84501947,74.5612443 1.15542079,73.5289109 C0.465822109,72.4965776 0.216257734,71.2319097 0.462,70.015 L16.742,3.795 C17.4788881,1.3299572 20.072735,-0.0727873181 22.539,0.66 L55.946,8.877 C57.1657203,9.11322883 58.2403149,9.8274326 58.9304197,10.8605236 C59.6205245,11.8936146 59.8688205,13.1597859 59.62,14.377 Z" id="yellow_screen"></path>
                        </g>
                        <path d="M58.619,9.042 L25.3,0.847 C21.7708845,-0.198840089 18.0610221,1.80861861 17.006,5.335 L0.627,71.951 C-0.0734897979,75.5636242 2.27612114,79.0634631 5.885,79.783 L39.204,88 C42.7331155,89.0458401 46.4429779,87.0383814 47.498,83.512 L63.877,16.896 C64.5910896,13.2757764 62.2382077,9.76122059 58.619,9.042 L58.619,9.042 Z M45.54,82.742 C44.8077358,85.2058744 42.2200628,86.6128601 39.754,85.888 L6.336,77.671 C5.11773952,77.4320441 4.04501947,76.7172443 3.35542079,75.6849109 C2.66582211,74.6525776 2.41625773,73.3879097 2.662,72.171 L18.942,5.951 C19.6788881,3.4859572 22.272735,2.08321268 24.739,2.816 L31.592,4.499 L31.306,5.698 C31.1172941,6.71378612 31.7783504,7.69312882 32.791,7.898 L48.653,11.803 C49.6513117,12.0879951 50.6938189,11.5202447 50.996,10.527 L51.293,9.328 L58.146,11.022 C59.3657203,11.2582288 60.4403149,11.9724326 61.1304197,13.0055236 C61.8205245,14.0386146 62.0688205,15.3047859 61.82,16.522 L45.54,82.742 Z" id="Shape" stroke="#0D052C" stroke-width="1.5" fill="#1D1E5F" fill-rule="nonzero"></path>
                        <line x1="36.014" y1="7.073" x2="42.735" y2="8.723" id="Path" stroke="#FFFFFF" stroke-width="0.8"></line>
                        <g id="lines-2" transform="translate(25.300000, 35.200000)" fill-rule="nonzero" stroke="#0D052C" stroke-width="1.5">
                            <line x1="12.045" y1="12.144" x2="14.047" y2="14.729" id="Path"></line>
                            <line x1="3.278" y1="0.836" x2="9.768" y2="9.207" id="Path"></line>
                            <line x1="10.714" y1="1.32" x2="13.365" y2="4.752" id="Path"></line>
                            <line x1="1.089" y1="7.106" x2="6.831" y2="14.531" id="Path"></line>
                        </g>
                    </g>
                    <g id="neck" transform="translate(46.200000, 91.300000)" stroke="#0D052C" stroke-width="1.5">
                        <path d="M28.094,0.473 L28.094,18.799 C28.039,21.23 21.736,23.199 13.981,23.199 C8.789,23.199 4.257,22.319 1.815,20.999 C1.00307155,20.5827133 0.421420423,19.8233354 0.231,18.931 C0.177733731,18.7300665 0.151833236,18.5228626 0.153874506,18.315 L0.153874506,0.715 C9.02820192,4.83111472 19.2790251,4.75847109 28.094,0.517 L28.094,0.473 Z" id="Path" fill="#FFBEA4"></path>
                        <path d="M21.78,10.593 C21.78,10.593 18.931,13.541 14.63,10.593" id="Path" stroke-linecap="round" stroke-linejoin="round" fill-rule="nonzero"></path>
                    </g>
                    <g id="face" transform="translate(16.500000, 28.600000)">
                        <g id="head" stroke="#0D052C" stroke-width="1.5">
                            <path d="M76.2302591,19.305 L76.2302591,33.792 C76.2548788,46.3186058 69.0841804,57.7463714 57.794,63.173 C48.9790251,67.4144711 38.7282019,67.4871147 29.854,63.371 C25.3498428,61.2614224 21.3821892,58.1587549 18.249,54.296 C17.5265666,53.3964122 16.8510029,52.460169 16.225,51.491 C14.6970692,49.1366801 13.4840859,46.5923738 12.617,43.923 C12.617,43.824 12.551,43.714 12.507,43.604 C12.463,43.494 12.408,43.252 12.353,43.087 C12.347998,43.02844 12.347998,42.96956 12.353,42.911 C11.9554853,42.9662709 11.5551967,42.9993223 11.154,43.01 L11,43.01 C10.7142441,43.0267119 10.4277559,43.0267119 10.142,43.01 L9.548,42.9 L9.031,42.812 C8.87056189,42.7834013 8.71246265,42.7429573 8.558,42.691 C8.07232838,42.5602353 7.59783113,42.3910348 7.139,42.185 L6.776,42.02 C6.556,41.91 6.325,41.778 6.116,41.646 C3.4757616,40.1089959 1.64231861,37.4915148 1.1,34.485 C0.865596971,33.066603 0.884217786,31.6179036 1.155,30.206 C1.68040701,27.5555199 3.65508967,25.4276291 6.259,24.706 C7.83241211,24.2517592 9.51727316,24.3846717 11,25.08 C11.363,20.46 12.837,14.531 17.842,13.211 C21.67,12.21 22.726,8.877 23.342,6.908 C23.8327107,5.40012288 24.7085936,4.04648576 25.883,2.981 C26.9811746,2.00823903 28.3373924,1.37406394 29.788,1.155 C32.0189262,0.871465319 34.2654717,1.54702792 35.97,3.014 C38.698,5.214 43.604,5.775 46.057,4.114 C47.905,2.816 49.258,2.079 50.897,2.013 C56.914,1.771 56.958,5.379 59.213,6.633 C61.3664034,7.99366314 64.1105966,7.99366314 66.264,6.633 C68.794,5.269 72.743,7.634 73.469,10.868 C73.8888211,13.034146 74.6303624,15.1252924 75.669,17.072 C76.0451064,17.75563 76.2383422,18.5247844 76.2302591,19.305 Z" id="Path" fill="#FFBEA4"></path>
                            <path d="M8.679,30.041 C7.43821293,30.5043894 6.57960843,31.6463334 6.479,32.967 C6.35623569,34.1498852 6.78860913,35.3228793 7.64973072,36.1430977 C8.51085232,36.963316 9.70348376,37.338139 10.879,37.158" id="Path" stroke-linecap="round" stroke-linejoin="round" fill-rule="nonzero"></path>
                            <path d="M11.759,40.491 C11.9776264,41.6761194 12.2640976,42.8477129 12.617,44" id="Path" fill="#FFBEA4"></path>
                            <path d="M11,25.08 C10.9715469,26.7430482 11.107879,28.404826 11.407,30.041" id="Path" stroke-linecap="round" stroke-linejoin="round" fill-rule="nonzero"></path>
                        </g>
                        <g id="eyebrows" transform="translate(31.900000, 20.900000)" fill-rule="nonzero" stroke="#0D052C" stroke-linecap="round" stroke-linejoin="round" stroke-width="1.5">
                            <path d="M40.502,3.014 C38.665,2.189 33.462,-1.012 30.525,1.661" id="Path"></path>
                            <path d="M0.088,3.63 C0.088,3.63 9.053,-0.605 12.188,1.705" id="Path"></path>
                        </g>
                        <path d="M52.305,36.3 C52.8646575,36.738831 53.5636445,36.9614134 54.274,36.927 C54.4608152,36.9387567 54.6481848,36.9387567 54.835,36.927 C55.0175702,36.9043514 55.1915443,36.8362746 55.341,36.729 C55.341,36.729 57.794,35.629 55.814,32.329" id="nose" stroke="#0D052C" stroke-width="1.5" stroke-linecap="round" stroke-linejoin="round" fill-rule="nonzero"></path>
                        <g id="eyes" transform="translate(38.500000, 27.500000)" fill="#0D052C" fill-rule="nonzero">
                            <path d="M2.706,5.5 C5.896,5.5 5.896,0.55 2.706,0.55 C-0.484,0.55 -0.484,5.5 2.706,5.5 Z" id="Path"></path>
                            <path d="M28.6,5.72 C31.779,5.72 31.79,0.77 28.6,0.77 C25.41,0.77 25.41,5.72 28.6,5.72 Z" id="Path"></path>
                        </g>
                        <path d="M44.363,40.887 C46.3894261,43.6363416 49.6393878,45.2119559 53.053,45.1 C57.453,45.1 59.345,42.735 60.027,41.558" id="mouth" stroke="#0D052C" stroke-width="1.5" stroke-linecap="round" stroke-linejoin="round" fill-rule="nonzero"></path>
                    </g>
                    <path d="M218.735,156.552 C218.537,160.369 217.734,175.417 216.942,189.189 C215.71,189.706 214.478,190.289 213.268,190.795 C194.095,179.377 173.008,186.549 166.54,189.233 C169.642,175.461 173.602,161.733 174.955,157.19 C175.233943,156.25177 176.099203,155.610671 177.078,155.616954 L217.855,155.616954 C218.09824,155.616524 218.330828,155.71675 218.497537,155.893877 C218.664245,156.071005 218.750203,156.309235 218.735,156.552 L218.735,156.552 Z" id="hand_part" stroke="#0D052C" stroke-width="1.5" fill="#C0FF97" fill-rule="nonzero" stroke-linecap="round" stroke-linejoin="round"></path>
                    <g id="hand_part-2" transform="translate(163.900000, 183.700000)" stroke="#0D052C" stroke-width="1.5">
                        <path d="M49.368,7.095 C38.9498129,11.9806733 28.9438568,17.7009901 19.448,24.2 L19.448,24.2 C18.414,24.915 17.446,25.575 16.555,26.213 C14.916,27.368 13.255,28.501 11.616,29.634 L8.899,23.848 L1.914,9.009 L0.671,6.369 C0.671,6.369 1.375,6.006 2.673,5.467 C9.108,2.849 30.195,-4.323 49.368,7.095 Z" id="Path" fill="#FFBEA4"></path>
                        <path d="M28.743,7.81 C28.743,7.81 37.708,7.095 41.745,10.835" id="Path" stroke-linecap="round" stroke-linejoin="round" fill-rule="nonzero"></path>
                        <path d="M29.524,14.949 C29.524,14.949 34.287,14.949 34.243,14.949" id="Path" stroke-linecap="round" stroke-linejoin="round" fill-rule="nonzero"></path>
                        <path d="M27.951,4.323 C27.951,4.323 29.249,8.151 27.61,11.231" id="Path" stroke-linecap="round" stroke-linejoin="round" fill-rule="nonzero"></path>
                    </g>
                    <g id="hand_part-3" transform="translate(178.200000, 105.600000)" stroke="#0D052C" stroke-width="1.5">
                        <path d="M40.117,30.459 C40.117,32.659 40.227,43.109 37.818,50.017 L0.286,50.017 C0.286,50.017 8.855,2.42 15.4,0.594 C21.318,-1.056 21.604,6.039 21.076,16.269 C20.9,19.69 21.934,23.287 24.618,25.421 C27.808,27.918 31.757,28.468 40.117,30.459 Z" id="Path" fill="#FFBEA4"></path>
                        <path d="M21.098,16.269 L20.944,25.751 C20.9341216,26.4882623 21.2624226,27.1894482 21.835,27.654 C23.562,29.062 26.994,32.604 25.553,37.697" id="Path" stroke-linecap="round" stroke-linejoin="round" fill-rule="nonzero"></path>
                        <path d="M12.892,4.972 C13.6490442,5.90466884 14.9888115,6.11371053 15.994,5.456" id="Path" stroke-linecap="round" stroke-linejoin="round" fill-rule="nonzero"></path>
                        <path d="M35.266,37.532 C35.266,37.532 36.366,42.064 33.759,44.99" id="Path" stroke-linecap="round" stroke-linejoin="round" fill-rule="nonzero"></path>
                    </g>
                    <g id="hair" fill-rule="nonzero" stroke="#0D052C" stroke-linecap="round" stroke-linejoin="round" stroke-width="1.5">
                        <path d="M104.016,49.214 C104.016,49.214 110.055,56.551 100.716,62.513 C99.616,63.206 99.011,64.504 98.769,66.429 C98.527,68.354 98.505,70.543 98.076,72.567 C97.504,75.306 95.117,77.374 92.488,78.353 C91.0690084,78.8555069 89.5892614,79.1662538 88.088,79.277 C91.1565925,74.181761 92.7626484,68.3398277 92.73,62.392 L92.73,47.905 C92.7407181,47.112649 92.5434936,46.3313364 92.158,45.639 C91.1193624,43.6922924 90.3778211,41.601146 89.958,39.435 C89.232,36.201 85.283,33.836 82.753,35.2 C80.5995966,36.5606631 77.8554034,36.5606631 75.702,35.2 C73.502,33.946 73.403,30.338 67.386,30.58 C65.747,30.646 64.394,31.383 62.546,32.681 C60.093,34.386 55.187,33.858 52.459,31.581 C50.7544717,30.1140279 48.5079262,29.4384653 46.277,29.722 C44.8263924,29.9410639 43.4701746,30.575239 42.372,31.548 C41.1975936,32.6134858 40.3217107,33.9671229 39.831,35.475 C39.171,37.444 38.115,40.777 34.331,41.778 C29.282,43.131 27.808,49.06 27.5,53.68 C26.0385748,52.9835705 24.3756166,52.8352315 22.814,53.262 C20.2100897,53.9836291 18.235407,56.1115199 17.71,58.762 C17.4157077,60.1848962 17.3784537,61.6489782 17.6,63.085 C18.1453013,66.0874524 19.9783781,68.7003909 22.616,70.235 C22.825,70.367 23.056,70.499 23.276,70.609 L23.639,70.774 C24.0978311,70.9800348 24.5723284,71.1492353 25.058,71.28 L25.531,71.401 C25.7011667,71.4418853 25.8738894,71.4712849 26.048,71.489 L26.609,71.566 C26.8947637,71.5824407 27.1812363,71.5824407 27.467,71.566 L27.61,71.566 C28.0105819,71.5662716 28.4108682,71.5442375 28.809,71.5 C28.803998,71.55856 28.803998,71.61744 28.809,71.676 C28.864,71.841 28.908,72.017 28.963,72.193 C29.018,72.369 29.029,72.413 29.073,72.512 C29.9400859,75.1813738 31.1530692,77.7256801 32.681,80.08 C30.5785548,81.1062092 28.1026453,81.0154258 26.081,79.838 C25.2511648,79.2185389 24.3801544,78.6562411 23.474,78.155 C22.106457,77.7805936 20.7071271,77.5338697 19.294,77.418 C16.9675623,76.8899062 15.0551068,75.2412377 14.19,73.018 C14.0261307,72.3576996 13.7387371,71.7343913 13.343,71.181 C12.452,70.191 10.901,70.301 9.636,69.883 C7.381,69.135 6.171,66.583 5.94,64.229 C5.786,62.469 7.304,59.158 6.149,55.814 C5.88490435,55.1033652 5.45499069,54.466037 4.895,53.955 C3.22073703,52.5164603 1.94424677,50.6717993 1.188,48.598 C0.306542491,46.2015593 0.722282888,43.5200338 2.288,41.503 C2.915,40.788 3.718,40.227 4.345,39.523 C7.931,35.508 5.192,28.523 8.294,24.123 C8.82775189,23.3204651 9.59598666,22.7020362 10.494,22.352 C11.5487244,22.0965459 12.6319993,21.978236 13.717,22 C16.1278081,21.7042801 18.2852961,20.3598753 19.613,18.326 C21.285,15.708 21.417,12.221 23.485,9.922 C25.234,7.964 28.05,7.282 30.668,7.227 C33.286,7.172 35.937,7.612 38.566,7.403 C39.190411,7.34119404 39.8063177,7.2121118 40.403,7.018 C42.3764713,6.39044214 44.1487732,5.25191843 45.54,3.718 C45.54,3.718 52.14,-3.157 59.455,4.532 C64.097,9.328 67.1,7.172 67.98,6.809 C68.189,6.721 68.86,6.303 69.839,5.819 C74.734,3.443 80.377,3.795 83.039,10.384 C83.039,10.384 84.458,14.278 90.2,13.552 C94.171,13.046 99.594,12.914 99.308,20.306 C99.308,20.306 99.44,24.915 102.41,26.51 C106.161,28.512 110.825,33.286 105.38,39.908 C103.653,42.031 101.035,44.418 104.016,49.214 Z" id="Path" fill="#FF5986"></path>
                        <path d="M25.531,35.42 C26.2917889,35.2568422 27.003798,34.9177903 27.61,34.43 C29.414,32.978 29.81,30.382 29.634,28.072" id="Path"></path>
                        <path d="M20.449,35.255 C21.2852729,35.4113355 22.1300942,35.5178564 22.979,35.574" id="Path"></path>
                        <path d="M76.527,19.393 C77.133646,19.0560412 77.6186296,18.536416 77.913,17.908" id="Path"></path>
                        <path d="M55.418,16.038 C56.364,18.909 58.179,20.713 62.161,20.691 C64.174,20.691 67.661,18.491 68.211,16.533 C69.311,18.843 70.224,19.635 72.116,20.141 C72.8367033,20.3183904 73.587333,20.3371561 74.316,20.196" id="Path"></path>
                        <path d="M30.481,15.4 C31.515,16.346 32.736,17.358 34.133,17.204 C35.4253052,16.902679 36.5031865,16.0159691 37.048,14.806" id="Path"></path>
                        <path d="M95.7,32.89 C95.6713013,33.784461 96.0183519,34.6500928 96.657,35.277 C97.3917372,35.6732519 98.2678458,35.7097564 99.033,35.376" id="Path"></path>
                        <path d="M10.329,42.988 C10.2974207,43.8808155 10.6403864,44.7462056 11.275,45.375 C12.0108306,45.7815191 12.895034,45.8181912 13.662,45.474" id="Path"></path>
                        <path d="M96.14,55.66 C96.7631051,56.30673 97.6292292,56.6619606 98.527,56.639 C99.3225643,56.388923 99.9566878,55.7832537 100.243,55" id="Path"></path>
                        <path d="M9.9,64.009 C10.5204935,64.6528758 11.3820236,65.0078581 12.276,64.988 C13.0731409,64.7364149 13.7101064,64.1319061 14.003,63.349" id="Path"></path>
                    </g>
                    <g id="hand-2" transform="translate(11.000000, 165.000000)" fill-rule="nonzero" stroke="#0D052C" stroke-linecap="round" stroke-linejoin="round" stroke-width="1.5">
                        <path d="M55.968,0.242 L68.827,55.737 L111.815,36.3 L139.227,23.87 L148.28,19.767 C149.528867,19.2046446 150.997931,19.7481985 151.58,20.988 L164.428,48.488 C164.428,48.488 150.018,59.587 131.934,72.688 C110.473,88.297 83.853,106.788 70.081,112.948 C48.455,122.65 33.781,107.844 26.158,93.984 C19.14,81.29 3.586,21.901 0.99,11.88" id="Path" fill="#C0FF97"></path>
                        <path d="M51.513,99.77 C50.5438041,100.105658 49.8433615,100.954679 49.698,101.97 C49.698,103.653 52.195,105.083 55.352,105.138 C56.656084,105.18817 57.9552947,104.951608 59.158,104.445" id="Path"></path>
                        <path d="M68.827,55.737 C68.827,55.737 56.254,63.371 51.513,68.475" id="Path"></path>
                    </g>
                </g>
            </g>
            <g id="Group" transform="translate(701.308622, 514.581115)" fill-rule="nonzero" stroke="#0D052C" stroke-linecap="round" stroke-linejoin="round" stroke-width="1.5">
                <g id="Objects-/-smile-(2)" transform="translate(56.000000, 56.000000) rotate(-19.000000) translate(-56.000000, -56.000000) ">
                    <g transform="translate(0.746667, 0.373333)">
                        <path d="M93.9978667,16.0010667 C115.365336,36.8485045 116.333464,70.8905885 96.1853397,92.9186951 C76.0372154,114.946802 42.0440019,117.011309 19.3781334,97.5834221 C-3.28773498,78.1555349 -6.44647779,44.2464933 12.2409968,20.9664012 C30.9284714,-2.31369086 64.7181269,-6.56338859 88.5882667,11.3642667" id="circle" fill="#FFBA68"></path>
                        <g id="line" transform="translate(65.706667, 8.213333)">
                            <path d="M14.6981333,6.60053333 C15.6872447,7.33794992 16.6379975,8.12546727 17.5466667,8.96" id="Path"></path>
                            <path d="M0.0746666667,0.287466667 C4.44923502,1.05868265 8.63297488,2.67005639 12.3946667,5.03253333" id="Path"></path>
                        </g>
                        <g id="lines" transform="translate(94.453333, 56.373333)">
                            <line x1="1.2544" y1="0.3584" x2="6.37653333" y2="6.97013333" id="Path"></line>
                            <line x1="4.7936" y1="0.589866667" x2="6.05546667" y2="2.2176" id="Path"></line>
                            <line x1="0.209066667" y1="3.34506667" x2="2.9456" y2="6.8768" id="Path"></line>
                        </g>
                        <g id="eyes" transform="translate(29.120000, 44.053333)" fill="#1D1E5F">
                            <circle id="Oval" cx="5.44693333" cy="5.53653333" r="5.43573333"></circle>
                            <circle id="Oval" cx="46.9728" cy="5.53653333" r="5.43573333"></circle>
                        </g>
                        <path d="M71.5530667,68.6261333 C68.6298667,72.2773333 62.4624,74.7936 55.3317333,74.7936 C48.2010667,74.7936 42.0298667,72.2773333 39.1066667,68.6261333" id="mouth"></path>
                        <g id="lines-2" transform="translate(8.213333, 53.386667)">
                            <line x1="1.09386667" y1="0.0410666667" x2="6.21973333" y2="6.64906667" id="Path"></line>
                            <line x1="4.63306667" y1="0.2688" x2="5.89493333" y2="1.90026667" id="Path"></line>
                            <line x1="0.0485333333" y1="3.024" x2="2.78506667" y2="6.55573333" id="Path"></line>
                        </g>
                    </g>
                </g>
            </g>
            <g id="Group" transform="translate(193.097913, 395.621733)" fill-rule="nonzero" stroke="#0D052C" stroke-linecap="round" stroke-linejoin="round" stroke-width="1.5">
                <g id="Objects-/-smile-(2)" transform="translate(56.000000, 56.000000) rotate(-367.000000) translate(-56.000000, -56.000000) ">
                    <g id="Objects-/-dizzy-emoji" transform="translate(0.746667, 0.373333)">
                        <path d="M93.9978667,16.0010667 C115.365336,36.8485045 116.333464,70.8905885 96.1853397,92.9186951 C76.0372154,114.946802 42.0440019,117.011309 19.3781334,97.5834221 C-3.28773498,78.1555349 -6.44647779,44.2464933 12.2409968,20.9664012 C30.9284714,-2.31369086 64.7181269,-6.56338859 88.5882667,11.3642667" id="circle" fill="#53F2D4"></path>
                        <g id="line" transform="translate(65.706667, 8.213333)">
                            <path d="M14.6981333,6.60053333 C15.6872447,7.33794992 16.6379975,8.12546727 17.5466667,8.96" id="Path"></path>
                            <path d="M0.0746666667,0.287466667 C4.44923502,1.05868265 8.63297488,2.67005639 12.3946667,5.03253333" id="Path"></path>
                        </g>
                        <g id="lines" transform="translate(9.333333, 63.840000)">
                            <line x1="1.2544" y1="0.115733333" x2="6.37653333" y2="6.72373333" id="Path"></line>
                            <line x1="4.7936" y1="0.343466667" x2="6.05546667" y2="1.97493333" id="Path"></line>
                            <line x1="0.209066667" y1="3.09866667" x2="2.9456" y2="6.6304" id="Path"></line>
                        </g>
                        <g id="eyes" transform="translate(28.373333, 38.080000)">
                            <path d="M43.568,9.744 C42.3584,9.25493333 40.9546667,10.6064 41.1525333,11.8981333 C41.3504,13.1898667 42.6645333,14.0933333 43.9674667,14.1381333 C44.7199699,14.1628225 45.4605674,13.9456154 46.0805333,13.5184 C48.3466667,11.9989333 48.3466667,8.71733333 46.2933333,6.91786667 C45.2759235,6.06074603 43.9873914,5.59242941 42.6570667,5.59626667 C41.2197333,5.55146667 38.9237333,6.42133333 37.6506667,7.56746667 C37.6506667,7.56746667 35.5637333,9.32213333 35.7541333,12.8912 C36.1274667,20.1488 47.2789333,23.6096 51.9493333,16.9269333 C56.056,11.0506667 52.8752,2.93813333 43.8144,0.2352" id="eye"></path>
                            <path d="M8.0192,9.744 C6.81333333,9.25493333 5.40586667,10.6064 5.60746667,11.8981333 C5.80906667,13.1898667 7.1008,14.0933333 8.4224,14.1381333 C9.17483629,14.1622955 9.9152725,13.9451357 10.5354667,13.5184 C12.8016,11.9989333 12.8016,8.71733333 10.7482667,6.91786667 C9.72526804,6.05821347 8.42954028,5.5910103 7.09333333,5.6 C5.65973333,5.5552 3.36,6.42506667 2.09066667,7.5712 C2.09066667,7.5712 0,9.32586667 0.194133333,12.8949333 C0.567466667,20.1525333 11.7189333,23.6133333 16.3893333,16.9306667 C20.496,11.0544 17.3114667,2.94186667 8.2544,0.238933333" id="eye-2"></path>
                        </g>
                        <path d="M30.9866667,73.4496 C31.8976,71.2730667 33.4096,68.7008 35.9930667,68.7344 C39.4762667,68.7717333 40.8277333,73.4906667 44.2549333,74.0581333 C47.3498667,74.5733333 49.5152,71.5306667 51.9344,69.7162667 C52.4313286,69.2925928 53.0464929,69.03193 53.6965333,68.9696 C54.2601643,68.9837713 54.8075241,69.1614686 55.272,69.4810667 C57.2432,70.6981333 58.2885333,72.8709333 60.2746667,74.0730667 C63.112,75.7829333 67.5210667,74.6928 68.9845333,71.9114667 C69.4325333,71.0602667 69.6490667,70.0746667 70.3621333,69.384 C70.8908527,68.88676 71.585276,68.6034033 72.3109333,68.5888 C73.8453333,68.5477333 75.1109333,69.6266667 76.1077333,70.6832 C77.1045333,71.7397333 78.1536,72.9232 79.6581333,73.1994667" id="mouth"></path>
                    </g>
                </g>
            </g>
            <g id="Group" transform="translate(679.308622, 268.581115)" fill-rule="nonzero" stroke="#0D052C" stroke-linecap="round" stroke-linejoin="round" stroke-width="1.5">
                <g id="Objects-/-smile-(2)" transform="translate(56.000000, 56.000000) rotate(27.000000) translate(-56.000000, -56.000000) ">
                    <g id="Objects-/-smile" transform="translate(0.746667, 0.373333)">
                        <path d="M93.9978667,16.0010667 C115.365336,36.8485045 116.333464,70.8905885 96.1853397,92.9186951 C76.0372154,114.946802 42.0440019,117.011309 19.3781334,97.5834221 C-3.28773498,78.1555349 -6.44647779,44.2464933 12.2409968,20.9664012 C30.9284714,-2.31369086 64.7181269,-6.56338859 88.5882667,11.3642667" id="circle" fill="#FFFEAA"></path>
                        <g id="line" transform="translate(65.706667, 8.213333)">
                            <path d="M14.6981333,6.60053333 C15.6872447,7.33794992 16.6379975,8.12546727 17.5466667,8.96" id="Path"></path>
                            <path d="M0.0746666667,0.287466667 C4.44923502,1.05868265 8.63297488,2.67005639 12.3946667,5.03253333" id="Path"></path>
                        </g>
                        <g id="lines" transform="translate(86.986667, 56.373333)">
                            <line x1="1.3664" y1="0.3584" x2="6.48853333" y2="6.97013333" id="Path"></line>
                            <line x1="4.9056" y1="0.589866667" x2="6.16746667" y2="2.2176" id="Path"></line>
                            <line x1="0.321066667" y1="3.34506667" x2="3.0576" y2="6.8768" id="Path"></line>
                        </g>
                        <g id="lines-2" transform="translate(16.426667, 56.373333)">
                            <line x1="1.17973333" y1="0.3584" x2="6.30186667" y2="6.97013333" id="Path"></line>
                            <line x1="4.71893333" y1="0.589866667" x2="5.9808" y2="2.2176" id="Path"></line>
                            <line x1="0.1344" y1="3.34506667" x2="2.87093333" y2="6.8768" id="Path"></line>
                        </g>
                        <g id="eyes" transform="translate(28.000000, 42.186667)">
                            <path d="M0,8.29546667 C0.8512,3.66613333 4.03573333,0.224 7.84,0.224 C11.6442667,0.224 14.8362667,3.6848 15.68,8.33653333" id="Path"></path>
                            <path d="M38.9872,8.29546667 C39.8384,3.66613333 43.0192,0.224 46.8272,0.224 C50.6352,0.224 53.8234667,3.6848 54.6672,8.33653333" id="Path"></path>
                        </g>
                        <g id="smile-2" transform="translate(33.973333, 64.586667)">
                            <path d="M42.3696002,0.8288 C41.9701333,11.1402667 32.7189333,19.3834667 21.3584,19.3834667 C9.99786667,19.3834667 0.746666667,11.1402667 0.347199707,0.8288 C0.347199707,0.638350701 0.42466432,0.456097057 0.5621225,0.324278186 C0.69958068,0.192459316 0.884924984,0.12251902 1.0752,0.130666667 L41.6453333,0.130666667 C41.834975,0.123562757 42.0193368,0.193967677 42.1559701,0.325670935 C42.2926034,0.457374193 42.3696002,0.639025406 42.3696002,0.8288 L42.3696002,0.8288 Z" id="Path" fill="#1D1E5F"></path>
                            <path d="M37.7626667,0.130666667 C34.8282667,5.1632 28.6794667,8.62773333 21.5637333,8.62773333 C14.448,8.62773333 8.2992,5.1632 5.36853333,0.130666667 L37.7626667,0.130666667 Z" id="Path" fill="#FFFFFF"></path>
                        </g>
                    </g>
                </g>
            </g>
        </g>
    </g>
</svg>