<?xml version="1.0" encoding="utf-8"?>
<!-- Generator: Adobe Illustrator 26.3.1, SVG Export Plug-In . SVG Version: 6.00 Build 0)  -->
<svg version="1.1" id="Layer_1" xmlns="http://www.w3.org/2000/svg" xmlns:xlink="http://www.w3.org/1999/xlink" x="0px" y="0px"
	 viewBox="0 0 1000 1000" style="enable-background:new 0 0 1000 1000;" xml:space="preserve">
<style type="text/css">
	.st0{fill:#F4F7FA;stroke:#000000;stroke-miterlimit:10;}
	.st1{fill:none;}
	.st2{fill:#FFFEAA;stroke:#0D052C;stroke-width:1.5;stroke-linecap:round;stroke-linejoin:round;}
	.st3{fill:#FF81AF;stroke:#0D052C;stroke-width:1.5;stroke-linecap:round;stroke-linejoin:round;}
	.st4{fill:#62A3FF;stroke:#0D052C;stroke-width:1.5;stroke-linecap:round;stroke-linejoin:round;}
	.st5{fill:none;stroke:#0D052C;stroke-width:1.5;stroke-linecap:round;stroke-linejoin:round;}
	.st6{fill:#87D4FF;stroke:#0D052C;stroke-width:1.5;stroke-linecap:round;stroke-linejoin:round;}
	.st7{fill:#FFFFFF;stroke:#0D052C;stroke-width:1.5;stroke-linecap:round;stroke-linejoin:round;}
	.st8{fill:#FFE2BF;stroke:#0D052C;stroke-width:1.5;stroke-linecap:round;stroke-linejoin:round;}
	.st9{fill:#FFB8D2;stroke:#0D052C;stroke-width:1.5;stroke-linecap:round;stroke-linejoin:round;}
	.st10{fill:#6DE4A2;stroke:#0D052C;stroke-width:1.5;stroke-linecap:round;stroke-linejoin:round;}
	.st11{fill:#FFE483;stroke:#0D052C;stroke-width:1.5;stroke-linecap:round;stroke-linejoin:round;}
	.st12{fill:#9E59FF;stroke:#0D052C;stroke-width:1.5;stroke-linecap:round;stroke-linejoin:round;}
	.st13{fill:#9AF3FF;stroke:#0D052C;stroke-width:1.5;stroke-linecap:round;stroke-linejoin:round;}
	.st14{fill:#1D1E5F;stroke:#0D052C;stroke-width:1.5;stroke-linecap:round;stroke-linejoin:round;}
	.st15{fill:#53F2D4;stroke:#0D052C;stroke-width:1.5;stroke-linecap:round;stroke-linejoin:round;}
</style>
<rect class="st0" width="1000" height="1000"/>
<g id="All-Scenes">
	<g id="Error">
		<rect id="BG" class="st1" width="1000" height="1000"/>
		<g id="Group" transform="translate(168.000000, 684.000000)">
			
				<g id="Shapes-_x2F_-three-dimensional-rectangle" transform="translate(274.000000, 110.000000) scale(-1, -1) translate(-274.000000, -110.000000) ">
				<g transform="translate(-65.760000, 41.066667)">
					<rect id="rectangle" x="149.3" y="0.5" class="st2" width="528.2" height="78.4"/>
					<path id="pink_part_rectangle" class="st3" d="M149.3,79l-148,58.5h480.4c0.3,0,0.5,0,0.7-0.1l195-58.4
						C677.4,79,149.3,79,149.3,79z"/>
					<path id="blue_part_rectangle" class="st4" d="M149.3,0.5L3.1,60.4c-1.1,0.5-1.7,1.1-1.7,1.7v75.4l148-58.5L149.3,0.5
						L149.3,0.5z"/>
					<g id="lines" transform="translate(0.000000, 14.666667)">
						<line id="Path" class="st5" x1="149.3" y1="0.6" x2="1.4" y2="61.2"/>
						<line id="Path_00000024700516287888344660000018088522448873227451_" class="st5" x1="149.3" y1="16.8" x2="1.4" y2="77.4"/>
						<line id="Path_00000026841518636784539180000007752709757997056696_" class="st5" x1="149.3" y1="32.5" x2="1.4" y2="93.1"/>
						<line id="Path_00000043423001690380629630000000391815995746429086_" class="st5" x1="149.3" y1="48.4" x2="1.4" y2="108.9"/>
					</g>
				</g>
			</g>
		</g>
		<g id="Group_00000174574243171134203540000013261319218729915063_" transform="translate(233.000000, 178.000000)">
			
				<g id="Windows-_x2F_-blue-screen-with-grid" transform="translate(309.000000, 215.500000) scale(-1, 1) translate(-309.000000, -215.500000) ">
				<g transform="translate(29.046000, 5.541429)">
					<polygon id="screen" class="st6" points="0.5,420.4 564.1,420.4 564.1,420.4 					"/>
					<g id="grid" transform="translate(0.000000, 27.707143)">
						<line id="Path_00000054951247433877371340000003223018988646485402_" class="st5" x1="38" y1="0.5" x2="38" y2="392.7"/>
						<line id="Path_00000174600454449563319800000008551612098011858105_" class="st5" x1="0.5" y1="0.5" x2="564" y2="0.5"/>
						<line id="Path_00000039109692802016355780000007445389315801526156_" class="st5" x1="75.6" y1="0.5" x2="75.6" y2="392.7"/>
						
							<line id="Path_00000085947031009383166670000008677773841732701598_" class="st5" x1="113.2" y1="0.5" x2="113.2" y2="392.7"/>
						
							<line id="Path_00000083783872933543377720000001971324854775107203_" class="st5" x1="150.7" y1="392.7" x2="150.7" y2="0.5"/>
						
							<line id="Path_00000075846815611520164330000011707097077928404615_" class="st5" x1="188.3" y1="0.5" x2="188.3" y2="392.7"/>
						<line id="Path_00000000192463995892381580000000135609852152474781_" class="st5" x1="0.5" y1="39.7" x2="564" y2="39.7"/>
						<line id="Path_00000080182169061704971100000018182923344337751981_" class="st5" x1="0.5" y1="78.9" x2="564" y2="78.9"/>
						<line id="Path_00000156567568505378698350000013669107374960307872_" class="st5" x1="0.5" y1="118.1" x2="564" y2="118.1"/>
						<line id="Path_00000006677198742407837070000017376860689014728597_" class="st5" x1="0.5" y1="157.3" x2="564" y2="157.3"/>
						<line id="Path_00000183954818592467781840000014377720533273751182_" class="st5" x1="0.5" y1="196.6" x2="564" y2="196.6"/>
						
							<line id="Path_00000003810159154191942910000002881415188603728300_" class="st5" x1="225.9" y1="0.5" x2="225.9" y2="392.7"/>
						
							<line id="Path_00000040561561816691547930000001013562538230814342_" class="st5" x1="263.5" y1="0.5" x2="263.5" y2="392.7"/>
						<line id="Path_00000082343181490904431420000001949835317318048938_" class="st5" x1="301" y1="0.5" x2="301" y2="392.7"/>
						
							<line id="Path_00000047751146621577525250000005482825558623520924_" class="st5" x1="338.6" y1="0.5" x2="338.6" y2="392.7"/>
						
							<line id="Path_00000071560845917097745220000015273948326260468153_" class="st5" x1="376.2" y1="0.5" x2="376.2" y2="392.7"/>
						
							<line id="Path_00000031189590468327560300000009593959091674501283_" class="st5" x1="413.8" y1="0.5" x2="413.8" y2="392.7"/>
						
							<line id="Path_00000111152391424111475680000001209782738707335857_" class="st5" x1="451.3" y1="0.5" x2="451.3" y2="392.7"/>
						
							<line id="Path_00000149383221882148770060000001563575094889198741_" class="st5" x1="488.9" y1="0.5" x2="488.9" y2="392.7"/>
						
							<line id="Path_00000046332073580659605640000011473809798585417625_" class="st5" x1="526.5" y1="0.5" x2="526.5" y2="392.7"/>
						
							<line id="Path_00000121239793818311331860000000246869814202639003_" class="st5" x1="0.6" y1="235.8" x2="563.8" y2="235.8"/>
						<line id="Path_00000163050018803824848280000017409685306570955439_" class="st5" x1="0.7" y1="275" x2="563.8" y2="275"/>
						
							<line id="Path_00000085238215277428728110000004482046269915571585_" class="st5" x1="0.7" y1="314.2" x2="563.8" y2="314.2"/>
						
							<line id="Path_00000116197451245419573730000014445377550877322941_" class="st5" x1="0.7" y1="353.5" x2="563.8" y2="353.5"/>
					</g>
					<g id="lines-3" transform="translate(126.690000, 159.470000)">
						<path id="Path_00000178194542671976839690000006093120607797243548_" class="st5" d="M0.3,0.2c5,5.3,15,16,15,16"/>
						<path id="Path_00000108995514010126062700000012988567852401020316_" class="st5" d="M10,1.8c1.8,1.9,4.8,5,6.9,7.3"/>
						<path id="Path_00000069361798796411181520000005752541602780908424_" class="st5" d="M1.6,9.7c0.6,0.6,2,2,4.9,5.2"/>
					</g>
					<polygon id="upper_screen_part" class="st7" points="0.5,28.2 564.1,28.2 564.1,28.2 					"/>
					<g id="minimize_button" transform="translate(13.596000, 6.772857)">
						<polygon id="square" class="st7" points="0.3,14.9 14.6,14.9 14.6,14.9 						"/>
						<line id="line" class="st5" x1="3.6" y1="11.3" x2="11.4" y2="11.3"/>
					</g>
					<g id="maximize_button" transform="translate(43.260000, 6.772857)">
						<polygon id="square-2" class="st7" points="0.5,14.9 14.8,14.9 14.8,14.9 						"/>
						<polygon id="square-3" class="st5" points="4.1,11.2 11.3,11.2 11.3,11.2 						"/>
					</g>
					<g id="close_button" transform="translate(73.542000, 6.772857)">
						<polygon id="square-4" class="st7" points="0.1,14.9 14.4,14.9 14.4,14.9 						"/>
						<g id="cross" transform="translate(3.090000, 3.694286)">
							<line id="Path_00000004521466362069912670000014148482488491084422_" class="st5" x1="0.5" y1="0.1" x2="7.7" y2="7.5"/>
							<line id="Path_00000142173917090572128230000013666975077545424550_" class="st5" x1="0.5" y1="7.5" x2="7.7" y2="0.1"/>
						</g>
					</g>
				</g>
			</g>
		</g>
		<g id="Group_00000170991145747021831140000015737182973122894734_" transform="translate(360.000000, 105.000000)">
			<g id="Objects-_x2F_-hand" transform="translate(188.000000, 187.500000) scale(-1, 1) translate(-188.000000, -187.500000) ">
				<g transform="translate(112.800000, -35.000000)">
					<g id="hand-2">
						<path id="Path_00000140699572900962338310000003084142946603693756_" class="st8" d="M131.6,444.4
							c-3.3-49-3.1-220.4-3.1-220.4s14.8-28.5,13.5-58.8c-0.7-16.7,2-28.9,6-50.7s2.1-33.1-8.7-35.1C128,77.3,122.7,91,122.7,91
							s4.6-20.7-9.2-23.6S95.3,77.8,95.3,77.8s3.7-39,3.1-58.2C97.7,0,86.3,1,86.3,1C69.8-0.6,66.7,34.5,66.7,34.5l-9.5,83.3
							c0,0-12.4-60.2-14.7-77s-6-35.3-17.9-35.1c-8.2,0.2-13.4,5.5-12.1,35.4c1,22.2,5.2,74.9,5.7,80.9c0,0.3-0.1,0.7-0.4,0.8
							c-3.2,1.9-20.2,17.9-16.1,43.6c3.4,20.4,10.7,40,21.7,57.5c0,0-7.5,172-9.5,220.4L131.6,444.4z"/>
						<path id="Path_00000056401454062469224210000004860813600659356837_" class="st5" d="M70.7,121.2c0,0-3.4,7.7,3.2,12.9"/>
						<path id="Path_00000005950318400080979640000017326531000143749258_" class="st5" d="M95.3,77.8c0,0-4.2,38.1-5.6,47.8
							c-1.4,9.8-1,25,9.1,28.1c8.8,2.7,15.6-0.8,19.1-29c3.2-26.1,4.9-33.7,4.9-33.7"/>
						<path id="Path_00000006698357658026325820000006856684850494643359_" class="st5" d="M117,130.2c0,0-5.7,26.5,8.9,28.8
							c11.6,1.8,18.7-23,21.3-40"/>
						<path id="Path_00000165219829570980863040000017870670499890786219_" class="st5" d="M13.8,126.4c0,0,3.4-5.1,13.3-5.5
							c0,0,36.6-3.4,48.1-4.3s14.6,0.3,14.6,7.2c0,6.9-4.8,21.8-38.6,23.2c-0.1,0-0.3,0.1-0.3,0.2c0,0.1,0.1,0.3,0.2,0.3
							c5.3,2.1,24.4,11.2,28.4,35"/>
						<path id="Path_00000175289543477148291360000005016298639604581032_" class="st5" d="M99.7,235.2c0,0,18.3,3.8,28.8-11.1"/>
						<path id="Path_00000057870643076878248070000015412084721502436740_" class="st5" d="M40.9,225.5c0,0,8.3,12.4,34,7.7"/>
						<path id="Path_00000096761056031795441920000003568207618588857773_" class="st5" d="M95.6,132.5c1.6,0,9.6-2.3,14.4,3"/>
						<path id="Path_00000037653871062504578240000010518958940276575931_" class="st5" d="M123.5,137.5c0,0,7.9-0.5,11.5,4.7"/>
					</g>
					<path id="line_00000003092549351582966780000009053997853419761055_" class="st5" d="M23.3,72.9c0,0,4.2-5.8,17.1-2.1"/>
					<path id="line-2" class="st5" d="M71.7,70c0,0,5-5.1,17.2,0.4"/>
					<g id="line-3" transform="translate(99.013333, 101.250000)">
						<path id="Path_00000113339185821002459890000001955604015375718554_" class="st5" d="M12.2,2.2c1,0.3,1.9,0.7,2.9,1.1"/>
						<path id="Path_00000021807516951769345000000015889455355868485022_" class="st5" d="M0.7,1.6C2.9,1,5.3,0.8,7.6,1.1"/>
					</g>
					<g id="lines_00000059308801847111338320000015350508404614701962_" transform="translate(35.093333, 260.000000)">
						<line id="Path_00000029736143852186841160000009169130263028512913_" class="st5" x1="14.6" y1="70.5" x2="13.4" y2="80.6"/>
						<line id="Path_00000119103235738860980580000014768556061805911939_" class="st5" x1="71" y1="0.2" x2="73.1" y2="11.6"/>
						<line id="Path_00000071549084177486345180000011015499396120666499_" class="st5" x1="6.9" y1="5.9" x2="5.8" y2="15.5"/>
						<line id="Path_00000176019283869180365580000005819982767075772816_" class="st5" x1="77.2" y1="87.4" x2="79" y2="98"/>
						<line id="Path_00000023978095206278060980000010398929224528268434_" class="st5" x1="46" y1="41.8" x2="46" y2="51.1"/>
						<line id="Path_00000158006950979428900340000005685251716875101355_" class="st5" x1="0.3" y1="158.6" x2="2.6" y2="147.4"/>
						
							<line id="Path_00000126298109008287790010000015899242022343880844_" class="st5" x1="36.8" y1="130.8" x2="36.8" y2="141.4"/>
						<line id="Path_00000134942484722731547850000012831931945853580185_" class="st5" x1="71" y1="157.3" x2="72.1" y2="167.2"/>
					</g>
					<path id="line-4" class="st5" d="M128.6,107.4c3.9-0.4,7.8,0.6,11,2.9"/>
					<path id="line-5" class="st5" d="M11.6,154.4c0,0-2.2,13,4.2,21.9"/>
				</g>
			</g>
		</g>
		<g id="Group_00000080208818509184737320000004411622476336945803_" transform="translate(142.000000, 203.000000)">
			
				<g id="Shapes-_x2F_-colored-cylinder" transform="translate(126.500000, 126.500000) scale(1, -1) rotate(-180.000000) translate(-126.500000, -126.500000) ">
				<g transform="translate(-21.926667, 16.023333)">
					<path id="light_pink_part" class="st9" d="M289,203.6c-11.6,17.6-35.3,22.5-53,10.9l-20.4-13.4c17.3,7.2,37.2,1,47.5-14.6
						c10.3-15.6,7.9-36.4-5.6-49.4l20.6,13.6C295.7,162.3,300.6,186,289,203.6z"/>
					<path id="green_part" class="st10" d="M269.5,165.2c0,13-6.5,25.1-17.3,32.4c-10.8,7.2-24.5,8.6-36.5,3.6l-35.9-23.6
						c17.3,7.2,37.3,1,47.5-14.7s7.8-36.5-5.8-49.4l36,23.7C265.2,144.4,269.5,154.6,269.5,165.2z"/>
					<path id="yellow_part" class="st11" d="M233.5,141.5c0,13-6.5,25.1-17.3,32.3s-24.5,8.6-36.5,3.6l0,0l-39.6-26.1
						c17.4,7.1,37.3,0.8,47.4-15s7.6-36.5-6.1-49.4l40,26.4C229.2,120.7,233.6,130.9,233.5,141.5L233.5,141.5z"/>
					<path id="violet_part" class="st12" d="M193.7,115.3c0,12.9-6.4,25-17.2,32.3s-24.4,8.7-36.4,3.8l0,0L100,124.9
						c17.3,7.3,37.2,1.2,47.6-14.4c10.3-15.6,8.1-36.4-5.4-49.4L181.5,87C189.3,94.4,193.7,104.6,193.7,115.3z"/>
					<path id="light_blue_part" class="st13" d="M154,89.1c0,13-6.5,25.2-17.4,32.4S112,130,100,124.9L61.3,99.5
						c17.3,7.3,37.3,1.2,47.6-14.5s8-36.4-5.5-49.4l38.7,25.5C149.7,68.4,154,78.5,154,89.1z"/>
					<path id="pink_part" class="st3" d="M115.3,63.6c0,13-6.5,25.2-17.3,32.4s-24.6,8.5-36.6,3.5l0,0L17.6,70.7
						c17.4,11.6,40.9,7.2,52.8-10S78.2,20,61.2,7.8l42.3,27.8C111,42.9,115.3,53,115.3,63.6L115.3,63.6z"/>
					<path id="white_circle" class="st7" d="M77.1,38.9c0,17.4-11.7,32.6-28.5,37s-34.5-3-43.1-18.1s-5.9-34.1,6.6-46.3
						S43.7-2.8,58.6,6.1c0,0,0.1,0,0.1,0.1l2.4,1.6C71.2,14.9,77.1,26.5,77.1,38.9z"/>
					<g id="lines_00000170272519283996830340000003779968052379285944_" transform="translate(26.986667, 25.300000)">
						<line id="Path_00000113348442895129216520000007817492241211793086_" class="st5" x1="3.5" y1="0.8" x2="18.3" y2="19.9"/>
						<line id="Path_00000042700171822260528060000008978655325355496082_" class="st5" x1="13.7" y1="1.4" x2="17.3" y2="6.1"/>
						<line id="Path_00000091008676966295422040000014872526801474098356_" class="st5" x1="0.5" y1="9.4" x2="8.4" y2="19.6"/>
					</g>
					<g id="line_00000137840667511069420920000011504794400192384162_" transform="translate(201.556667, 123.970000)">
						<path id="Path_00000042717475803971122590000007276597086782623106_" class="st5" d="M11.1,8.7c0-2.7-0.3-5.4-1-8"/>
						<path id="Path_00000073679791743972430950000009032884281429310356_" class="st5" d="M0.6,32.9c5.6-5.2,9.2-12.2,10.2-19.7"/>
					</g>
				</g>
			</g>
		</g>
		<g id="Group_00000129896561670087932580000013565504647905206188_" transform="translate(233.000000, 324.000000)">
			<g id="computer" transform="translate(-36.500000, 5.826667)">
				<path id="white_screen_frame-2" class="st7" d="M380.3,0h93.1v341H24.8C11.1,341,0,329.9,0,316.2V24.9C0.1,11.1,11.3,0,25.1,0
					h336"/>
				<path id="line_00000096026917067439677020000016767904287543937211_" class="st5" d="M11.1,23c0-3.3,1.3-6.4,3.6-8.8
					s5.5-3.6,8.8-3.6"/>
				<path id="Path_00000148631146723527361880000008866922136045092261_" class="st5" d="M27.8,332.3c-9.7,0-17.5-7.8-17.5-17.5"/>
				<line id="Path_00000052799222678818975450000007715092142483071901_" class="st5" x1="31.4" y1="332.3" x2="39.3" y2="332.3"/>
				<path id="side_shadow" class="st14" d="M473.4,0h11C499.1,0,511,11.8,511,26.4v297.8c0,9.3-7.5,16.8-16.8,16.8h-20.7V0H473.4z"
					/>
				<path id="yellow_screen" class="st11" d="M24.7,21.8h422.1c1.2,0,2.1,0.9,2.1,2.1v274.8c0,1.2-0.9,2.1-2.1,2.1H24.7
					c-1.2,0-2.1-0.9-2.1-2.1V23.9C22.6,22.7,23.5,21.8,24.7,21.8z"/>
				<path id="pink_holder_part" class="st3" d="M274,413.1H155.6c0,0,30.9-11,47-30.6c15.7-19.1,6.8-41.5,6.8-41.5h111
					C320.4,341,340.4,400.2,274,413.1z"/>
				<path id="aqua_rectangle" class="st15" d="M274,413.1V424H158.3c-1.5,0-2.7-1.2-2.7-2.7v-8.2L274,413.1L274,413.1z"/>
				<path id="side_shadow-2" class="st14" d="M360.7,413v0.1c-1.3,6.2-6.8,10.7-13.1,10.8H274V413c66.3-12.9,46.4-72.1,46.4-72.1
					h25.4C345.9,341,366.8,372.2,360.7,413z"/>
				<path id="Path_00000106112988557235049130000009891634537722729404_" class="st5" d="M283.2,389.8c-2.8,2.1-5.9,3.9-9.1,5.2"/>
				<path id="Path_00000098207865836075471020000005374823107375741856_" class="st5" d="M295,356.4c1.1,7.3,1.1,19.5-7.3,29.1"/>
				
					<line id="Path_00000183231681126471061730000006597796913767372675_" class="st5" x1="248.6" y1="320.9" x2="261.1" y2="320.9"/>
				
					<line id="Path_00000141454848138721066420000010954396481065748874_" class="st5" x1="212.4" y1="320.9" x2="239.4" y2="320.9"/>
				
					<line id="Path_00000172428117282757445560000004945539337606240147_" class="st5" x1="492.2" y1="119.8" x2="492.2" y2="196.6"/>
				
					<line id="Path_00000168104130448772076060000002307447724531412655_" class="st5" x1="492.2" y1="226.9" x2="492.2" y2="243.7"/>
				
					<line id="Path_00000127020103983689432570000017697350637422011044_" class="st5" x1="334.7" y1="241.1" x2="356.5" y2="269.2"/>
				
					<line id="Path_00000072986965866507786460000000211752301708898231_" class="st5" x1="348.8" y1="242.7" x2="361.1" y2="258.5"/>
				
					<line id="Path_00000088844804553547096280000012627737388992790930_" class="st5" x1="332.9" y1="255.3" x2="345.6" y2="271.8"/>
				<line id="Path_00000160884745196922950710000000198087832283101114_" class="st5" x1="353.1" y1="242.7" x2="333.5" y2="268"/>
				
					<line id="Path_00000020376189751467394200000008401180814837117570_" class="st5" x1="342.7" y1="239.5" x2="334.7" y2="249.8"/>
				
					<line id="Path_00000003093502287713590430000003047444655515115670_" class="st5" x1="359.2" y1="251.5" x2="346.6" y2="267.6"/>
				<path id="Path_00000085226338237993124940000000927632145361800097_" class="st5" d="M139,165.8"/>
				<path id="Path_00000176034246337874473650000012101984063220075680_" class="st5" d="M123,147"/>
				<path id="Path_00000108992808008414172560000005539981713762064302_" class="st5" d="M134.1,147.6"/>
				<path id="Path_00000077315263983807216120000016315426496846686100_" class="st5" d="M128.3,165.6"/>
			</g>
		</g>
		<g id="Group_00000093894784055268990260000008463619626398189470_" transform="translate(583.000000, 480.000000)">
			
				<g id="Shapes-_x2F_-colored-cylinder_00000030474689212277652060000017255600852254039970_" transform="translate(126.500000, 126.500000) scale(-1, 1) rotate(-180.000000) translate(-126.500000, -126.500000) ">
				<g transform="translate(-21.926667, 16.023333)">
					<path id="light_pink_part_00000155130467667753000200000008071283670047269259_" class="st9" d="M289,203.6
						c-11.6,17.6-35.3,22.5-53,10.9l-20.4-13.4c17.3,7.2,37.2,1,47.5-14.6c10.3-15.6,7.9-36.4-5.6-49.4l20.6,13.6
						C295.7,162.3,300.6,186,289,203.6z"/>
					<path id="green_part_00000058584377715375330020000016602618041564192191_" class="st10" d="M269.5,165.2
						c0,13-6.5,25.1-17.3,32.4c-10.8,7.2-24.5,8.6-36.5,3.6l-35.9-23.6c17.3,7.2,37.3,1,47.5-14.7s7.8-36.5-5.8-49.4l36,23.7
						C265.2,144.4,269.5,154.6,269.5,165.2z"/>
					<path id="yellow_part_00000111165262332652824520000015812760643783766151_" class="st11" d="M233.5,141.5
						c0,13-6.5,25.1-17.3,32.3s-24.5,8.6-36.5,3.6l0,0l-39.6-26.1c17.4,7.1,37.3,0.8,47.4-15s7.6-36.5-6.1-49.4l40,26.4
						C229.2,120.7,233.6,130.9,233.5,141.5L233.5,141.5z"/>
					<path id="violet_part_00000015347160021646845920000007916358653920094091_" class="st12" d="M193.7,115.3
						c0,12.9-6.4,25-17.2,32.3s-24.4,8.7-36.4,3.8l0,0L100,124.9c17.3,7.3,37.2,1.2,47.6-14.4c10.3-15.6,8.1-36.4-5.4-49.4L181.5,87
						C189.3,94.4,193.7,104.6,193.7,115.3z"/>
					<path id="light_blue_part_00000093856260650322301380000018066756725138318750_" class="st13" d="M154,89.1
						c0,13-6.5,25.2-17.4,32.4S112,130,100,124.9L61.3,99.5c17.3,7.3,37.3,1.2,47.6-14.5s8-36.4-5.5-49.4l38.7,25.5
						C149.7,68.4,154,78.5,154,89.1z"/>
					<path id="pink_part_00000010272324276336281450000015213918971070797746_" class="st3" d="M115.3,63.6c0,13-6.5,25.2-17.3,32.4
						s-24.6,8.5-36.6,3.5l0,0L17.6,70.7c17.4,11.6,40.9,7.2,52.8-10S78.2,20,61.2,7.8l42.3,27.8C111,42.9,115.3,53,115.3,63.6
						L115.3,63.6z"/>
					<path id="white_circle_00000154386072301635365230000002094352194715942533_" class="st7" d="M77.1,38.9
						c0,17.4-11.7,32.6-28.5,37s-34.5-3-43.1-18.1s-5.9-34.1,6.6-46.3S43.7-2.8,58.6,6.1c0,0,0.1,0,0.1,0.1l2.4,1.6
						C71.2,14.9,77.1,26.5,77.1,38.9z"/>
					<g id="lines_00000067219221641149770540000016447884479713775031_" transform="translate(26.986667, 25.300000)">
						<line id="Path_00000147921735500643564170000009673294703962643072_" class="st5" x1="3.5" y1="0.8" x2="18.3" y2="19.9"/>
						<line id="Path_00000027601535067346466020000012744893041610307748_" class="st5" x1="13.7" y1="1.4" x2="17.3" y2="6.1"/>
						<line id="Path_00000030462193179599479800000016459184168915362956_" class="st5" x1="0.5" y1="9.4" x2="8.4" y2="19.6"/>
					</g>
					<g id="line_00000096741647800794783460000016131262562457052061_" transform="translate(201.556667, 123.970000)">
						<path id="Path_00000057133285269859771960000010075609835343984312_" class="st5" d="M11.1,8.7c0-2.7-0.3-5.4-1-8"/>
						<path id="Path_00000181795137952362172260000001324997474923858623_" class="st5" d="M0.6,32.9c5.6-5.2,9.2-12.2,10.2-19.7"/>
					</g>
				</g>
			</g>
		</g>
	</g>
</g>
</svg>
