<?xml version="1.0" encoding="UTF-8"?>
<svg width="360px" height="270px" viewBox="0 0 360 270" version="1.1" xmlns="http://www.w3.org/2000/svg" xmlns:xlink="http://www.w3.org/1999/xlink">
    <title>Devices / tape recorder</title>
    <g id="Devices-/-tape-recorder" stroke="none" stroke-width="1" fill="none" fill-rule="evenodd" stroke-linecap="round" stroke-linejoin="round">
        <g id="tape-recorder" fill-rule="nonzero" stroke="#0D052C" stroke-width="1.5">
            <rect id="Rectangle" fill="#FF81AF" x="138.87" y="216.77" width="83.49" height="52.89"></rect>
            <path d="M359.97,118.41 L359.97,253.15 C359.97,257.53311 358.228133,261.736552 355.127869,264.834941 C352.027605,267.93333 347.823109,269.672653 343.44,269.670003 L222.35,269.670003 L222.35,216.77 L138.87,216.77 L138.87,269.670003 L16.53,269.670003 C7.4046369,269.670003 0.00552048584,262.275361 5.68434189e-13,253.15 L5.68434189e-13,118.41 L359.97,118.41 Z" id="Path" fill="#9E59FF"></path>
            <path d="M359.98,79.77 L359.98,118.41 L-2.04636308e-12,118.41 L-2.04636308e-12,79.77 C-2.04636308e-12,70.9776268 7.12762678,63.85 15.92,63.85 L344.06,63.85 C348.282247,63.85 352.331561,65.5272809 355.31714,68.51286 C358.302719,71.4984392 359.98,75.5477535 359.98,79.77 L359.98,79.77 Z" id="Path" fill="#FFE483"></path>
            <rect id="Rectangle" x="138.86" y="118.41" width="83.49" height="44.42"></rect>
            <rect id="Rectangle" fill="#9AF3FF" x="138.87" y="162.84" width="83.49" height="53.94"></rect>
            <path d="M19.25,263.37 C14.5604803,261.917618 11.1293673,257.890636 10.44,253.03" id="Path"></path>
            <path d="M340.74,263.37 C345.428116,261.915489 348.858308,257.889588 349.55,253.03" id="Path"></path>
            <path d="M19.86,73.15 C15.1748125,74.60297 11.7452748,78.62421 11.05,83.48" id="Path"></path>
            <path d="M341.36,73.15 C346.045187,74.60297 349.474725,78.62421 350.17,83.48" id="Path"></path>
            <circle id="button" fill="#C0FF97" cx="320.56" cy="91.13" r="7.87"></circle>
            <circle id="button-2" fill="#C0FF97" cx="289.69" cy="91.13" r="7.87"></circle>
            <line x1="67.62" y1="78.32" x2="67.62" y2="103.94" id="Path"></line>
            <line x1="61.94" y1="97.74" x2="73.31" y2="97.74" id="Path"></line>
            <line x1="87.77" y1="103.94" x2="87.77" y2="78.32" id="Path"></line>
            <line x1="82.09" y1="84.52" x2="93.45" y2="84.52" id="Path"></line>
            <line x1="156.84" y1="141.55" x2="205.82" y2="141.55" id="Path"></line>
            <line x1="195.07" y1="135.35" x2="195.07" y2="147.96" id="Path"></line>
            <path d="M190.13,173.58 L197.61,173.58 C198.96862,173.58 200.07,174.68138 200.07,176.04 L200.07,182.8 C200.07,183.452433 199.810822,184.078143 199.349483,184.539483 C198.888143,185.000822 198.262433,185.26 197.61,185.26 L163.61,185.26 C162.957567,185.26 162.331857,185.000822 161.870517,184.539483 C161.409178,184.078143 161.15,183.452433 161.15,182.8 L161.15,176.04 C161.15,174.68138 162.25138,173.58 163.61,173.58 L183.14,173.58" id="button-3" fill="#FFE483"></path>
            <rect id="button-4" fill="#FF5986" x="161.14" y="194.35" width="38.93" height="11.68" rx="2.36"></rect>
            <circle id="Oval" fill="#1D1E5F" cx="69.94" cy="194.45" r="52.9"></circle>
            <circle id="Oval" fill="#FF5986" cx="69.94" cy="194.45" r="41.83"></circle>
            <circle id="Oval" fill="#FFFFFF" cx="69.94" cy="194.25" r="15.09"></circle>
            <path d="M80.25,166.53 C86.2571932,168.875501 91.4830609,172.86421 95.33,178.04" id="line"></path>
            <circle id="Oval" fill="#1D1E5F" cx="290.04" cy="194.45" r="52.9"></circle>
            <circle id="Oval" fill="#FF5986" cx="290.13" cy="194.45" r="41.83"></circle>
            <path d="M300.46,183.14 C305.983229,188.454215 306.611636,197.077537 301.917193,203.136344 C297.222749,209.195152 288.715733,210.740228 282.190547,206.719172 C275.665361,202.698116 273.221262,194.404567 276.523004,187.487527 C279.824747,180.570487 287.810107,177.25528 295.04,179.8" id="Path" fill="#FFFFFF"></path>
            <path d="M297.58,164.6 C303.589332,166.941694 308.816168,170.931143 312.66,176.11" id="line-2"></path>
            <rect id="red_rectangle" fill="#FF5986" x="111.17" y="77.6" width="137.21" height="27.07" rx="1.4"></rect>
            <line x1="210.34" y1="88.36" x2="234.79" y2="88.36" id="Path"></line>
            <line x1="123.54" y1="88.36" x2="205.82" y2="88.36" id="Path"></line>
            <line x1="123.54" y1="95.02" x2="234.79" y2="95.02" id="Path"></line>
            <path d="M242.04,0 L291.25,0 C298.933898,0.00552004322 305.16,6.23609983 305.16,13.92 L305.16,26.04 L54.85,26.04 L54.85,13.92 C54.85,6.23219628 61.0821963,0 68.77,0 L230.85,0" id="Path" fill="#9AF3FF"></path>
            <rect id="Rectangle" fill="#62A3FF" x="54.85" y="26.04" width="22.85" height="37.4"></rect>
            <rect id="Rectangle" fill="#62A3FF" x="282.28" y="26.04" width="22.85" height="37.4"></rect>
            <path d="M63.89,12.17 C63.89,12.17 64.7,5.78 71.89,6.04" id="Path"></path>
            <path d="M296.08,12.17 C296.08,12.17 295.28,5.78 288.08,6.04" id="Path"></path>
            <circle id="Oval" fill="#9AF3FF" cx="35.95" cy="91.13" r="10.75"></circle>
            <path d="M35.95,85.89 C38.4048845,86.6548175 40.3984392,88.4618194 41.4,90.83" id="Path"></path>
            <line x1="170.34" y1="230.02" x2="190.13" y2="255.56" id="Path"></line>
            <line x1="183.13" y1="231.44" x2="194.28" y2="245.83" id="Path"></line>
            <line x1="168.66" y1="242.94" x2="180.23" y2="257.88" id="Path"></line>
            <line x1="187.04" y1="231.44" x2="169.22" y2="254.45" id="Path"></line>
            <line x1="177.58" y1="228.56" x2="170.34" y2="237.91" id="Path"></line>
            <line x1="192.54" y1="239.43" x2="181.16" y2="254.12" id="Path"></line>
        </g>
    </g>
</svg>