<?xml version="1.0" encoding="utf-8"?>
<!-- Generator: Adobe Illustrator 26.3.1, SVG Export Plug-In . SVG Version: 6.00 Build 0)  -->
<svg version="1.1" id="Layer_1" xmlns="http://www.w3.org/2000/svg" xmlns:xlink="http://www.w3.org/1999/xlink" x="0px" y="0px"
	 viewBox="0 0 293 260" style="enable-background:new 0 0 293 260;" xml:space="preserve">
<style type="text/css">
	.st0{fill:#7774FF;stroke:#0D052C;stroke-width:1.5;stroke-linecap:round;stroke-linejoin:round;}
	.st1{fill:#FF81AF;stroke:#0D052C;stroke-width:1.5;stroke-linecap:round;stroke-linejoin:round;}
	.st2{fill:#87D4FF;stroke:#0D052C;stroke-width:1.5;stroke-linecap:round;stroke-linejoin:round;}
	.st3{fill:#FFBA68;stroke:#0D052C;stroke-width:1.5;stroke-linecap:round;stroke-linejoin:round;}
	.st4{fill:none;stroke:#0D052C;stroke-width:1.5;stroke-linecap:round;stroke-linejoin:round;}
	.st5{fill:#FFFFFF;stroke:#0D052C;stroke-width:1.5;stroke-linecap:round;stroke-linejoin:round;}
</style>
<g id="Icons_x2F_Soft_x2F_diamond">
	<g id="diamond">
		<g id="diamonds">
			<polygon id="Path" class="st0" points="81.6,83.5 0.8,83.5 51.1,0.8 			"/>
			<polygon id="Path_00000068640495894608566060000006290689459883970467_" class="st1" points="146.5,259.8 0.8,83.5 81.6,83.5 			
				"/>
			<polygon id="Path_00000083054201531833012680000009880215213907942819_" class="st2" points="146.5,0.8 81.6,83.5 51.1,0.8 			
				"/>
			<polyline id="Path_00000083081673976795593210000004579943452063636909_" class="st2" points="217.4,0.8 242,0.8 211.5,83.5 
				146.5,0.8 204,0.8 			"/>
			<polygon id="Path_00000051350447036696940280000017573284749197139843_" class="st0" points="292.3,83.5 211.5,83.5 242,0.8 			
				"/>
			<polygon id="Path_00000156554555518456680910000003689233763627368599_" class="st1" points="292.3,83.5 146.5,259.8 211.5,83.5 
							"/>
			<polygon id="Path_00000041991794384162483100000012623106212218293686_" class="st3" points="211.5,83.5 146.5,259.8 81.6,83.5 
							"/>
			<polygon id="Path_00000142170163534018106810000002138745059766914218_" class="st0" points="211.5,83.5 81.6,83.5 146.5,0.8 			
				"/>
		</g>
		<g id="stroke_lines" transform="translate(126.000000, 109.000000)">
			<g id="lines" transform="translate(5.000000, 0.000000)">
				<line id="Path_00000152224505036308601420000009182838023579411109_" class="st4" x1="7.5" y1="0.1" x2="16" y2="36"/>
				<line id="Path_00000018215102639566035110000005634844718918438565_" class="st4" x1="16.3" y1="4.1" x2="22.1" y2="28.8"/>
				<line id="Path_00000018958032733272013990000009631055470683190681_" class="st4" x1="1" y1="5.8" x2="7.2" y2="32"/>
			</g>
			<g id="lines-2" transform="translate(0.000000, 6.000000)">
				<line id="Path_00000124151350491930487060000018276166255983549360_" class="st4" x1="31.8" y1="2.9" x2="0.3" y2="19.5"/>
				<line id="Path_00000033340016879550881140000009671518767115268498_" class="st4" x1="19.7" y1="0.7" x2="3.7" y2="9.1"/>
				<line id="Path_00000117675731889509481090000005267119614975995061_" class="st4" x1="31.5" y1="11.7" x2="13.6" y2="21.1"/>
			</g>
		</g>
		<g id="glares" transform="translate(73.000000, 11.000000)">
			<path id="glare" class="st5" d="M21.9,11.6c-1.8,0.4-8.6,2.3-10.5,11.2c0,0,0,0.1-0.1,0.1s-0.1,0-0.1-0.1
				c-2-8.9-8.8-10.9-10.5-11.2c0,0-0.1,0-0.1-0.1s0-0.1,0.1-0.1C2.5,11,9.3,9.1,11.2,0.2c0,0,0-0.1,0.1-0.1s0.1,0,0.1,0.1
				c1.9,8.9,8.8,10.8,10.5,11.2C22,11.4,22,11.4,21.9,11.6C22,11.5,22,11.6,21.9,11.6z"/>
			<path id="glare-2" class="st5" d="M34.3,21.9c-3.3,0.8-5.8,3.5-6.3,6.8c-0.5-3.4-3.1-6-6.4-6.8c0,0-0.1,0-0.1,0
				c0,0,0-0.1,0.1-0.1c3.3-0.8,5.7-3.5,6.2-6.8c0.5,3.4,3.1,6,6.4,6.8C34.4,21.8,34.4,21.9,34.3,21.9z"/>
		</g>
		<g id="line" transform="translate(172.000000, 169.000000)">
			<line id="Path_00000135674719701587988650000009196733775360709256_" class="st4" x1="24.5" y1="10.1" x2="30.6" y2="0.2"/>
			<line id="Path_00000019668426477946152350000000471639838906174340_" class="st4" x1="0.5" y1="48.9" x2="20.5" y2="16.5"/>
		</g>
		<line id="line-2" class="st4" x1="89.4" y1="165.7" x2="146.5" y2="259.8"/>
	</g>
</g>
</svg>
