<?xml version="1.0" encoding="UTF-8"?>
<svg width="272px" height="275px" viewBox="0 0 272 275" version="1.1" xmlns="http://www.w3.org/2000/svg" xmlns:xlink="http://www.w3.org/1999/xlink">
    <title>Devices / memory card</title>
    <g id="Devices-/-memory-card" stroke="none" stroke-width="1" fill="none" fill-rule="evenodd" stroke-linecap="round" stroke-linejoin="round">
        <g id="memory-card" transform="translate(-0.000000, 0.000000)" fill-rule="nonzero" stroke="#0D052C" stroke-width="1.5">
            <path d="M271.59,78.9301267 L271.59,271.250127 C271.592657,272.225203 271.207171,273.161253 270.518624,273.851675 C269.830077,274.542098 268.89508,274.93013 267.92,274.930127 L240.64,274.930127 C239.664003,274.930127 238.727981,274.542414 238.037847,273.85228 C237.347713,273.162146 236.96,272.226123 236.96,271.250127 L236.96,266.250127 L33.72,266.250127 L33.72,270.520127 C33.6981402,272.976475 31.7064215,274.959282 29.25,274.970127 L4.49,274.970127 C2.01024147,274.970127 -4.54747351e-13,272.959885 -4.54747351e-13,270.480127 L-4.54747351e-13,18.6801267 C-4.54747351e-13,10.2009366 6.87081175,3.325647 15.35,3.32012669 L234.77,3.32012669 C237.75689,3.32012669 240.619301,4.51678578 242.72,6.64012669 L269.72,33.8601267 C270.937223,35.0970457 271.616522,36.7647428 271.610047,38.5001267 L271.610047,64.3801267" id="memory_card-3" fill="#FF81AF"></path>
            <rect id="little_black_square" fill="#1D1E5F" x="12.21" y="250.920127" width="8.56" height="8.56" rx="1.47"></rect>
            <rect id="little_black_square-2" fill="#1D1E5F" x="248.73" y="250.980127" width="8.56" height="8.56" rx="1.47"></rect>
            <path d="M7.07,20.6501267 C7.07,14.9781623 11.6680356,10.3801267 17.34,10.3801267" id="line"></path>
            <line x1="241.06" y1="106.360127" x2="250.34" y2="117.280127" id="Path"></line>
            <line x1="247.47" y1="106.740127" x2="249.76" y2="109.430127" id="Path"></line>
            <line x1="239.16" y1="111.290127" x2="244.12" y2="117.120127" id="Path"></line>
            <path d="M236.96,143.330127 L236.96,266.250127 L33.72,266.250127 L33.72,143.330127 C33.72,135.432455 40.1223281,129.030127 48.02,129.030127 L222.66,129.030127 C226.452596,129.030127 230.089857,130.53673 232.771627,133.2185 C235.453397,135.90027 236.96,139.537531 236.96,143.330127 Z" id="Path" fill="#1D1E5F"></path>
            <path d="M222.340006,149.420127 L222.340006,266.250127 L47.9999934,266.250127 L47.9999934,149.420127 C47.997272,147.302138 48.8408603,145.270843 50.3431932,143.7779 C51.845526,142.284956 53.8820701,141.45412 55.9999934,141.4699 L214.39,141.4699 C216.499285,141.467468 218.522943,142.304202 220.014434,143.795693 C221.505925,145.287183 222.342658,147.310842 222.340006,149.420127 L222.340006,149.420127 Z" id="Path" fill="#FF5986"></path>
            <path d="M167.89,237.170127 L188.89,237.170127 C190.98164,237.170127 192.987465,238.001709 194.46554,239.48166 C195.943614,240.96161 196.772654,242.968489 196.770006,245.060127 L196.770006,266.250127 L71.42,266.250127 L71.42,245.060127 C71.42,242.967569 72.2512655,240.960716 73.7309275,239.481054 C75.2105895,238.001392 77.2174419,237.170127 79.31,237.170127 L152.12,237.170127" id="Path" fill="#FFE483"></path>
            <line x1="164.48" y1="172.420127" x2="196.64" y2="172.420127" id="Path"></line>
            <line x1="71.26" y1="172.420127" x2="156.68" y2="172.420127" id="Path"></line>
            <line x1="71.26" y1="186.190127" x2="196.64" y2="186.190127" id="Path"></line>
            <line x1="71.26" y1="199.950127" x2="196.64" y2="199.950127" id="Path"></line>
            <line x1="108.96" y1="213.710127" x2="196.62" y2="213.710127" id="Path"></line>
            <line x1="71.25" y1="213.710127" x2="99.79" y2="213.710127" id="Path"></line>
            <path d="M33.72,3.32012669 L100.45,3.32012669 L100.45,97.8301267 L38.73,97.8301267 C35.9685763,97.8301267 33.73,95.5915504 33.73,92.8301267 L33.72,3.32012669 Z" id="Path" fill="#1D1E5F"></path>
            <path d="M210.12,3.55012669 L210.12,92.4501267 C210.12,95.4214186 207.711292,97.8301267 204.74,97.8301267 L100.45,97.8301267 L100.45,3.55012669 C100.455281,2.60155424 100.837861,1.69408372 101.513288,1.02803817 C102.188714,0.361992626 103.101446,-0.00785932728 104.05,-4.97379915e-14 L206.52,-4.97379915e-14 C207.468554,-0.00785932728 208.381286,0.361992626 209.056712,1.02803817 C209.732139,1.69408372 210.114719,2.60155424 210.12,3.55012669 L210.12,3.55012669 Z" id="Path" fill="#87D4FF"></path>
            <rect id="Rectangle" fill="#1D1E5F" x="165.14" y="45.1801267" width="20.93" height="33.03" rx="4.45"></rect>
            <line x1="173.4" y1="15.5201267" x2="186.07" y2="15.5201267" id="Path"></line>
            <line x1="125.22" y1="15.5201267" x2="167.89" y2="15.5201267" id="Path"></line>
            <line x1="124.86" y1="25.2701267" x2="185.71" y2="25.2701267" id="Path"></line>
            <line x1="122.08" y1="49.8601267" x2="137.3" y2="69.5001267" id="Path"></line>
            <line x1="131.92" y1="50.9501267" x2="140.49" y2="62.0201267" id="Path"></line>
            <line x1="120.79" y1="59.8001267" x2="129.69" y2="71.2801267" id="Path"></line>
            <line x1="134.93" y1="50.9501267" x2="121.22" y2="68.6401267" id="Path"></line>
            <line x1="127.65" y1="48.7301267" x2="122.08" y2="55.9301267" id="Path"></line>
            <line x1="139.16" y1="57.0901267" x2="130.4" y2="68.3901267" id="Path"></line>
        </g>
    </g>
</svg>