<svg fill="#000000" xmlns="http://www.w3.org/2000/svg"  viewBox="0 0 24 24" width="24px" height="24px"><path d="M 8 3 A 4 4 0 0 0 4 7 A 4 4 0 0 0 8 11 A 4 4 0 0 0 11.867188 8 L 16 8 L 16 9.8105469 C 16 10.340547 16.640625 10.606422 17.015625 10.232422 L 19.826172 7.421875 C 20.058172 7.189875 20.058172 6.8120781 19.826172 6.5800781 L 17.015625 3.7695312 C 16.640625 3.3945312 16 3.6594531 16 4.1894531 L 16 6 L 11.869141 6 A 4 4 0 0 0 8 3 z M 8 13 A 4 4 0 0 0 4 17 A 4 4 0 0 0 8 21 A 4 4 0 0 0 11.867188 18 L 16 18 L 16 19.810547 C 16 20.340547 16.640625 20.606422 17.015625 20.232422 L 19.826172 17.421875 C 20.058172 17.189875 20.058172 16.812078 19.826172 16.580078 L 17.015625 13.769531 C 16.640625 13.394531 16 13.659453 16 14.189453 L 16 16 L 11.869141 16 A 4 4 0 0 0 8 13 z"/></svg>