<?xml version="1.0" encoding="utf-8"?>
<!-- Generator: Adobe Illustrator 26.3.1, SVG Export Plug-In . SVG Version: 6.00 Build 0)  -->
<svg version="1.1" id="Layer_1" xmlns="http://www.w3.org/2000/svg" xmlns:xlink="http://www.w3.org/1999/xlink" x="0px" y="0px"
	 viewBox="0 0 24 24" style="enable-background:new 0 0 24 24;" xml:space="preserve">
<path d="M7,4C4.8,4,3,5.8,3,8c0,1.8,1.2,3.4,3,3.9V16H4.2c-0.5,0-0.8,0.6-0.4,1l2.8,2.8c0.2,0.2,0.6,0.2,0.8,0l2.8-2.8
	c0.4-0.4,0.1-1-0.4-1H8v-4.1c1.8-0.5,3-2,3-3.9C11,5.8,9.2,4,7,4z M17,4c-2.2,0-4,1.8-4,4c0,1.8,1.2,3.4,3,3.9V16h-1.8
	c-0.5,0-0.8,0.6-0.4,1l2.8,2.8c0.2,0.2,0.6,0.2,0.8,0l2.8-2.8c0.4-0.4,0.1-1-0.4-1H18v-4.1c1.8-0.5,3-2,3-3.9C21,5.8,19.2,4,17,4z"
	/>
</svg>
