<?xml version="1.0" encoding="utf-8"?>
<!-- Generator: Adobe Illustrator 26.3.1, SVG Export Plug-In . SVG Version: 6.00 Build 0)  -->
<svg version="1.1" id="Layer_1" xmlns="http://www.w3.org/2000/svg" xmlns:xlink="http://www.w3.org/1999/xlink" x="0px" y="0px"
	 viewBox="0 0 24 24" style="enable-background:new 0 0 24 24;" xml:space="preserve">
<style type="text/css">
	.st0{fill:#6667AB;}
</style>
<path class="st0" d="M11.5,2C6,2,1.5,6.5,1.5,12s4.5,10,10,10c2.6,0,4.9-1,6.7-2.6c0.4-0.4,0.5-1,0.1-1.4c-0.4-0.4-1-0.5-1.4-0.1
	c0,0,0,0,0,0c-1.4,1.3-3.3,2.1-5.3,2.1c-4.4,0-8-3.6-8-8s3.6-8,8-8c2.1,0,3.9,0.8,5.3,2.1c0.4,0.4,1,0.4,1.4-0.1
	c0.4-0.4,0.4-1-0.1-1.4c0,0,0,0,0,0C16.4,3,14.1,2,11.5,2z M19.2,8.5c-0.3-0.1-0.7,0.2-0.7,0.6V11h-6c-0.6,0-1,0.4-1,1s0.4,1,1,1h6
	v1.9c0,0.5,0.7,0.8,1,0.4l2.7-2.7c0.3-0.3,0.3-0.9,0-1.2l-2.7-2.7C19.4,8.6,19.3,8.5,19.2,8.5z"/>
</svg>
