<?xml version="1.0" encoding="utf-8"?>
<!-- Generator: Adobe Illustrator 26.3.1, SVG Export Plug-In . SVG Version: 6.00 Build 0)  -->
<svg version="1.1" id="Layer_1" xmlns="http://www.w3.org/2000/svg" xmlns:xlink="http://www.w3.org/1999/xlink" x="0px" y="0px"
	 viewBox="0 0 24 24" style="enable-background:new 0 0 24 24;" xml:space="preserve">
<style type="text/css">
	.st0{fill:#9E59FF;}
</style>
<path class="st0" d="M5.7,2c-2.8,0-5,2.3-5,5c0,2.3,1.5,4.3,3.8,4.9V17H2.2c-0.6,0-1,0.8-0.5,1.3l3.5,3.5c0.3,0.3,0.8,0.3,1,0
	l3.5-3.5c0.5-0.5,0.1-1.3-0.5-1.3H7v-5.1c2.3-0.6,3.8-2.5,3.8-4.9C10.7,4.3,8.5,2,5.7,2z M18.3,2c-2.8,0-5,2.3-5,5
	c0,2.3,1.5,4.3,3.8,4.9V17h-2.3c-0.6,0-1,0.8-0.5,1.3l3.5,3.5c0.3,0.3,0.8,0.3,1,0l3.5-3.5c0.5-0.5,0.1-1.3-0.5-1.3h-2.3v-5.1
	c2.3-0.6,3.8-2.5,3.8-4.9C23.3,4.3,21,2,18.3,2z"/>
</svg>
