<svg fill="#000000" xmlns="http://www.w3.org/2000/svg"  viewBox="0 0 24 24" width="24px" height="24px"><path d="M 17.513672 1.9179688 C 16.983672 1.9179687 16.717797 2.5586406 17.091797 2.9316406 L 18.373047 4.2128906 L 16.294922 6.2910156 C 15.179886 5.7767718 13.770445 5.9572557 12.878906 6.8535156 C 11.708906 8.0285156 11.708906 9.9421875 12.878906 11.117188 C 13.444906 11.686187 14.198 12 15 12 C 15.802 12 16.555094 11.686188 17.121094 11.117188 C 18.039184 10.195961 18.228067 8.8242109 17.707031 7.7070312 L 19.787109 5.6269531 L 21.066406 6.90625 C 21.441406 7.28125 22.082031 7.0163281 22.082031 6.4863281 L 22.082031 2.5117188 C 22.082031 2.1837187 21.816281 1.9179688 21.488281 1.9179688 L 17.513672 1.9179688 z M 9 12 C 8.222125 12 7.4439531 12.284016 6.8769531 12.853516 C 5.9542395 13.780172 5.7700627 15.162519 6.3027344 16.283203 L 4.296875 18.289062 L 3.015625 17.009766 C 2.640625 16.634766 2 16.899687 2 17.429688 L 2 21.404297 C 2 21.733297 2.26575 22 2.59375 22 L 6.5703125 22 C 7.1003125 22 7.3652344 21.359375 6.9902344 20.984375 L 5.7109375 19.703125 L 7.7148438 17.699219 C 8.1125313 17.88937 8.5464785 18 9 18 C 9.802 18 10.555094 17.686188 11.121094 17.117188 C 12.291094 15.942187 12.291094 14.028516 11.121094 12.853516 C 10.554594 12.284016 9.777875 12 9 12 z"/></svg>