<?xml version="1.0"?><svg fill="#000000" xmlns="http://www.w3.org/2000/svg"  viewBox="0 0 24 24" width="24px" height="24px">    <path d="M20,4H4C2.897,4,2,4.897,2,6v6h0c0-0.205,0.078-0.41,0.234-0.566l2.4-2.4c0.229-0.229,0.572-0.297,0.872-0.173 C5.806,8.985,6,9.276,6,9.6V11l4.277,0c0.346-0.595,0.984-1,1.723-1c1.105,0,2,0.895,2,2s-0.895,2-2,2c-0.738,0-1.376-0.405-1.723-1 L6,13v1.4c0,0.323-0.195,0.615-0.494,0.739C5.407,15.18,5.303,15.2,5.2,15.2c-0.208,0-0.412-0.081-0.566-0.234l-2.4-2.4 C2.078,12.409,2,12.205,2,12h0v6c0,1.103,0.897,2,2,2h16c1.103,0,2-0.897,2-2V6C22,4.897,21.103,4,20,4z"/></svg>