<?xml version="1.0" encoding="UTF-8"?>
<svg width="290px" height="275px" viewBox="0 0 290 275" version="1.1" xmlns="http://www.w3.org/2000/svg" xmlns:xlink="http://www.w3.org/1999/xlink">
    <title>Icons/stars</title>
    <g id="Icons/stars" stroke="none" stroke-width="1" fill="none" fill-rule="evenodd" stroke-linecap="round" stroke-linejoin="round">
        <g id="star" fill="#FFE483" fill-rule="nonzero" stroke="#0D052C" stroke-width="1.5">
            <path d="M173.476324,56.1531992 L189.351836,88.2089369 C189.876253,89.2873019 190.907162,90.0326055 192.098361,90.1945575 L289.11706,104.25937 C289.504507,104.313821 289.82717,104.583164 289.948979,104.953812 C290.070787,105.32446 289.970539,105.7319 289.69051,106.004309 L219.488147,174.297622 C218.630714,175.134897 218.236502,176.33621 218.431792,177.516734 L235.031663,273.789245 C235.112364,274.180644 234.953474,274.582606 234.626619,274.813932 C234.299764,275.045258 233.866675,275.062257 233.522583,274.857268 L146.690169,229.368507 C145.627169,228.81215 144.35774,228.81215 143.294741,229.368507 L56.5075982,274.842225 C56.1622948,275.03316 55.7377158,275.009658 55.4157433,274.781788 C55.0937708,274.553918 54.9315289,274.162108 54.998519,273.774202 L71.5983898,177.501691 C71.8055066,176.323118 71.4158828,175.11858 70.5571251,174.282579 L0.309490323,106.004309 C0.0294613279,105.7319 -0.0707868978,105.32446 0.0510214934,104.953812 C0.172829885,104.583164 0.495493142,104.313821 0.882940403,104.25937 L97.9167303,90.1945575 C99.1079285,90.0326055 100.138838,89.2873019 100.663254,88.2089369 L144.04928,0.570866532 C144.222012,0.221348747 144.578943,0 144.969818,0 C145.360694,0 145.717625,0.221348747 145.890357,0.570866532 L168.873632,46.992268" id="star-2"></path>
        </g>
    </g>
</svg>