<?xml version="1.0" encoding="utf-8"?>
<!-- Generator: Adobe Illustrator 26.3.1, SVG Export Plug-In . SVG Version: 6.00 Build 0)  -->
<svg version="1.1" id="Layer_1" xmlns="http://www.w3.org/2000/svg" xmlns:xlink="http://www.w3.org/1999/xlink" x="0px" y="0px"
	 viewBox="0 0 1000 1000" style="enable-background:new 0 0 1000 1000;" xml:space="preserve">
<style type="text/css">
	.st0{fill:#6667AB;}
</style>
<g id="Path" transform="translate(4.000000, 4.000000)">
	<path class="st0" d="M976,16c-15.2-15.2-39-16.6-55.8-4.1l-4.8,4.1L465.7,465.7c-16.7,16.7-16.7,43.9,0,60.6
		c15.2,15.2,39,16.6,55.8,4.1l4.8-4.1L976,76.6C992.8,59.9,992.8,32.7,976,16z"/>
	<path class="st0" d="M667.4-4c-23.7,0-42.9,19.2-42.9,42.9c0,21.7,16.1,39.6,37,42.5l5.8,0.4h242.9v242.9c0,21.7,16.1,39.6,37,42.5
		l5.8,0.4c21.7,0,39.6-16.1,42.5-37l0.4-5.8V38.9c0-21.7-16.1-39.6-37-42.5L953.1-4H667.4z"/>
	<path class="st0" d="M496-4C219.9-4-4,219.9-4,496s223.9,500,500,500s500-223.9,500-500c0-23.7-19.2-42.9-42.9-42.9
		s-42.9,19.2-42.9,42.9c0,228.8-185.5,414.3-414.3,414.3S81.7,724.8,81.7,496S267.2,81.7,496,81.7c23.7,0,42.9-19.2,42.9-42.9
		S519.7-4,496-4z"/>
</g>
<polygon id="Path_00000007389573858570718140000003834741294228482488_" class="st0" points="488,488 512,488 512,512 488,512 "/>
</svg>
