<svg id="svg" version="1.1" xmlns="http://www.w3.org/2000/svg" xmlns:xlink="http://www.w3.org/1999/xlink" width="400" height="401.64383561643837" viewBox="0, 0, 400,401.64383561643837"><g id="svgg"><path id="path0" d="M200.499 66.300 L 200.600 132.600 202.800 132.700 C 233.381 134.092,259.892 156.299,266.658 186.193 C 275.834 226.728,244.840 266.744,202.600 268.898 L 200.600 269.000 200.499 335.359 L 200.398 401.719 203.662 401.467 C 207.710 401.155,211.600 400.410,211.600 399.948 C 211.600 399.757,212.005 399.594,212.500 399.587 C 212.995 399.581,214.300 399.132,215.400 398.591 C 216.500 398.050,217.625 397.606,217.900 397.604 C 218.175 397.602,218.400 397.456,218.400 397.280 C 218.400 397.105,219.030 396.733,219.800 396.454 C 220.570 396.176,221.200 395.792,221.200 395.601 C 221.200 395.410,221.539 395.146,221.953 395.015 C 222.368 394.883,223.654 393.881,224.813 392.788 C 225.971 391.695,227.052 390.800,227.214 390.800 C 227.375 390.800,227.777 390.390,228.105 389.889 C 228.433 389.388,229.311 388.353,230.056 387.589 C 231.540 386.068,233.600 383.056,233.600 382.409 C 233.600 382.184,233.758 382.000,233.951 382.000 C 234.145 382.000,234.540 381.415,234.829 380.700 C 235.118 379.985,235.472 379.310,235.616 379.200 C 235.861 379.012,236.493 377.905,237.672 375.600 C 237.954 375.050,238.278 374.510,238.392 374.400 C 238.507 374.290,238.871 373.660,239.200 373.000 C 239.529 372.340,239.901 371.710,240.026 371.600 C 240.267 371.388,242.614 367.459,243.568 365.671 C 243.881 365.086,244.376 364.367,244.668 364.075 C 244.961 363.782,245.200 363.384,245.200 363.189 C 245.200 362.844,246.785 360.281,247.594 359.317 C 247.817 359.051,248.000 358.744,248.000 358.635 C 248.000 358.448,249.618 355.886,250.294 355.000 C 250.462 354.780,250.870 354.060,251.199 353.400 C 251.529 352.740,252.024 352.056,252.299 351.880 C 252.575 351.704,252.800 351.299,252.800 350.980 C 252.800 350.661,252.958 350.400,253.151 350.400 C 253.345 350.400,253.727 349.860,254.000 349.200 C 254.273 348.540,254.633 348.000,254.800 348.000 C 254.967 348.000,255.327 347.460,255.600 346.800 C 255.873 346.140,256.252 345.600,256.441 345.600 C 256.630 345.600,256.898 345.150,257.036 344.600 C 257.174 344.050,257.452 343.600,257.653 343.600 C 257.855 343.600,258.191 343.150,258.400 342.600 C 258.609 342.050,258.943 341.600,259.142 341.600 C 259.340 341.600,259.727 341.060,260.000 340.400 C 260.273 339.740,260.643 339.200,260.822 339.200 C 261.000 339.200,261.255 338.856,261.388 338.437 C 261.522 338.017,262.157 337.072,262.800 336.337 C 263.443 335.601,264.201 334.555,264.484 334.012 C 264.768 333.469,265.270 332.717,265.600 332.341 C 266.386 331.445,266.653 331.095,268.984 327.900 C 270.068 326.415,271.100 325.200,271.277 325.200 C 271.455 325.200,271.600 324.961,271.600 324.670 C 271.600 324.378,272.050 323.717,272.600 323.200 C 273.150 322.683,273.600 322.120,273.600 321.948 C 273.600 321.777,274.005 321.201,274.500 320.668 C 274.995 320.136,275.940 319.019,276.600 318.187 C 277.260 317.355,278.475 315.918,279.300 314.993 C 280.125 314.067,280.800 313.182,280.800 313.024 C 280.800 312.866,281.475 312.053,282.300 311.217 C 284.385 309.104,289.342 303.602,289.676 303.030 C 290.122 302.266,300.687 291.793,303.038 289.785 C 304.223 288.772,305.884 287.281,306.728 286.472 C 307.571 285.662,309.219 284.190,310.388 283.200 C 311.558 282.210,313.434 280.622,314.558 279.672 C 315.681 278.721,316.985 277.596,317.456 277.172 C 317.927 276.747,318.503 276.400,318.737 276.400 C 318.970 276.400,319.304 276.175,319.480 275.900 C 319.656 275.625,320.880 274.547,322.200 273.505 C 323.520 272.463,324.885 271.338,325.234 271.005 C 325.582 270.672,326.017 270.400,326.200 270.400 C 326.383 270.400,326.818 270.124,327.166 269.787 C 328.376 268.617,330.202 267.201,330.500 267.200 C 330.665 267.200,331.130 266.885,331.534 266.500 C 331.938 266.115,332.683 265.530,333.190 265.200 C 333.697 264.870,334.607 264.195,335.213 263.700 C 335.820 263.205,336.432 262.800,336.575 262.800 C 336.717 262.800,337.051 262.623,337.317 262.406 C 339.619 260.529,340.378 260.000,340.770 260.000 C 341.020 260.000,341.329 259.730,341.455 259.400 C 341.582 259.070,341.927 258.800,342.223 258.800 C 342.518 258.800,342.904 258.575,343.080 258.299 C 343.256 258.024,343.940 257.529,344.600 257.200 C 345.260 256.871,345.944 256.376,346.120 256.101 C 346.296 255.825,346.618 255.600,346.836 255.600 C 347.230 255.600,349.313 254.229,350.292 253.326 C 350.574 253.066,351.164 252.738,351.602 252.599 C 352.041 252.460,352.400 252.190,352.400 252.000 C 352.400 251.810,352.782 251.533,353.250 251.384 C 354.005 251.144,358.689 248.148,359.200 247.578 C 359.310 247.455,359.985 247.118,360.700 246.829 C 361.415 246.540,362.000 246.157,362.000 245.978 C 362.000 245.800,362.402 245.526,362.892 245.371 C 363.744 245.100,365.978 243.683,366.400 243.145 C 366.510 243.005,367.230 242.601,368.000 242.247 C 368.770 241.893,369.940 241.269,370.600 240.859 C 373.551 239.028,375.453 237.948,376.100 237.736 C 376.485 237.610,376.800 237.362,376.800 237.184 C 376.800 237.007,377.430 236.654,378.200 236.400 C 378.970 236.146,379.600 235.790,379.600 235.608 C 379.600 235.427,380.140 235.090,380.800 234.860 C 381.460 234.630,382.000 234.252,382.000 234.021 C 382.000 233.789,382.242 233.600,382.539 233.600 C 382.835 233.600,383.510 233.245,384.039 232.811 C 387.136 230.269,388.249 229.281,389.171 228.256 C 389.737 227.627,390.883 226.367,391.717 225.456 C 392.552 224.545,393.336 223.395,393.460 222.900 C 393.585 222.405,393.832 222.000,394.010 222.000 C 394.375 222.000,396.800 217.192,396.800 216.468 C 396.800 216.211,396.966 216.000,397.168 216.000 C 397.371 216.000,397.655 215.458,397.801 214.796 C 397.946 214.134,398.308 213.099,398.604 212.496 C 400.487 208.666,400.316 189.756,398.381 187.821 C 398.171 187.611,398.000 187.194,398.000 186.894 C 398.000 186.594,397.550 185.365,397.000 184.163 C 396.450 182.960,396.000 181.802,396.000 181.588 C 396.000 181.375,395.820 181.200,395.600 181.200 C 395.380 181.200,395.200 180.988,395.200 180.729 C 395.200 179.072,385.578 168.000,384.137 168.000 C 383.864 168.000,383.496 167.775,383.320 167.500 C 383.144 167.225,382.640 166.788,382.200 166.528 C 381.760 166.269,377.915 164.019,373.656 161.528 C 369.397 159.038,365.499 156.730,364.995 156.400 C 364.490 156.070,362.845 155.095,361.339 154.234 C 359.832 153.373,358.510 152.562,358.400 152.431 C 358.100 152.073,354.851 150.000,354.592 150.000 C 354.468 150.000,354.149 149.820,353.883 149.599 C 352.936 148.813,349.390 146.391,348.800 146.127 C 348.470 145.980,347.643 145.441,346.962 144.929 C 346.281 144.418,345.531 144.000,345.296 144.000 C 345.060 144.000,344.807 143.865,344.733 143.700 C 344.660 143.535,344.060 143.025,343.400 142.567 C 342.740 142.108,340.995 140.893,339.523 139.867 C 338.051 138.840,336.656 138.000,336.423 138.000 C 336.190 138.000,336.000 137.844,336.000 137.654 C 336.000 137.464,335.235 136.789,334.300 136.154 C 333.365 135.519,332.251 134.685,331.825 134.300 C 331.398 133.915,330.813 133.600,330.525 133.600 C 330.236 133.600,330.000 133.449,330.000 133.264 C 330.000 133.080,328.535 131.874,326.745 130.585 C 324.954 129.296,323.109 127.924,322.645 127.538 C 322.180 127.151,320.969 126.152,319.952 125.317 C 318.936 124.483,317.676 123.442,317.152 123.005 C 316.629 122.568,315.300 121.509,314.200 120.651 C 313.100 119.794,312.020 118.892,311.800 118.646 C 311.580 118.401,310.680 117.592,309.800 116.850 C 305.897 113.556,302.261 110.150,296.057 103.978 C 289.924 97.877,287.373 95.156,282.208 89.200 C 281.159 87.990,279.829 86.460,279.254 85.800 C 277.801 84.134,273.846 79.182,271.108 75.600 C 269.847 73.950,268.497 72.218,268.107 71.751 C 267.718 71.284,267.130 70.502,266.800 70.013 C 266.208 69.135,263.133 65.002,262.456 64.175 C 262.265 63.941,261.877 63.311,261.594 62.775 C 261.312 62.239,260.968 61.710,260.830 61.600 C 260.692 61.490,259.684 60.050,258.590 58.400 C 257.495 56.750,256.507 55.310,256.394 55.200 C 256.040 54.857,251.200 47.562,251.200 47.372 C 251.200 47.273,250.615 46.330,249.900 45.276 C 248.013 42.496,247.670 41.944,246.923 40.500 C 246.554 39.785,246.105 39.200,245.926 39.200 C 245.747 39.200,245.600 39.041,245.600 38.847 C 245.600 38.418,242.001 32.413,241.300 31.671 C 241.025 31.381,240.800 30.899,240.800 30.600 C 240.800 30.301,240.561 29.818,240.268 29.525 C 239.770 29.027,239.141 27.972,237.928 25.600 C 237.646 25.050,237.301 24.510,237.161 24.400 C 237.020 24.290,236.371 23.195,235.718 21.967 C 233.088 17.017,227.165 9.910,223.576 7.397 C 216.933 2.746,209.142 0.013,202.499 0.003 L 200.398 0.000 200.499 66.300 M192.000 133.832 C 149.762 139.362,123.067 180.387,135.410 220.800 C 143.477 247.211,171.553 268.400,198.483 268.400 L 199.600 268.400 199.600 200.800 L 199.600 133.200 197.900 133.241 C 196.965 133.264,194.310 133.530,192.000 133.832 " stroke="none" fill="#fc3404" fill-rule="evenodd"></path><path id="path1" d="M192.600 0.514 C 191.720 0.705,190.730 0.966,190.400 1.094 C 190.070 1.222,189.640 1.290,189.444 1.245 C 189.248 1.199,188.528 1.425,187.844 1.746 C 187.160 2.067,186.240 2.391,185.800 2.465 C 185.360 2.539,184.892 2.747,184.760 2.927 C 184.628 3.106,184.268 3.300,183.960 3.358 C 183.285 3.485,181.526 4.488,178.472 6.489 C 177.223 7.307,176.061 7.982,175.890 7.989 C 175.546 8.001,168.810 14.800,169.142 14.800 C 169.257 14.800,168.957 15.167,168.475 15.616 C 167.994 16.064,167.600 16.615,167.600 16.839 C 167.600 17.064,167.392 17.119,167.138 16.962 C 166.877 16.800,166.784 16.851,166.924 17.078 C 167.061 17.298,166.861 17.821,166.481 18.239 C 166.101 18.658,165.449 19.766,165.033 20.702 C 164.617 21.639,164.034 22.606,163.738 22.851 C 163.442 23.097,163.200 23.636,163.200 24.049 C 163.200 24.462,163.038 24.800,162.839 24.800 C 162.641 24.800,162.278 25.295,162.034 25.900 C 161.436 27.379,158.785 31.712,157.838 32.758 C 157.419 33.221,157.239 33.606,157.438 33.613 C 157.637 33.620,157.471 33.875,157.070 34.179 C 156.668 34.484,156.295 35.032,156.241 35.398 C 156.188 35.764,155.886 36.227,155.572 36.426 C 155.257 36.625,155.141 36.791,155.312 36.794 C 155.484 36.797,154.989 37.793,154.212 39.008 C 153.436 40.222,152.800 41.304,152.800 41.412 C 152.800 41.520,152.170 42.505,151.400 43.600 C 150.630 44.695,150.000 45.734,150.000 45.907 C 150.000 46.080,149.480 46.791,148.844 47.488 C 148.208 48.184,147.762 48.829,147.853 48.920 C 147.945 49.011,147.745 49.314,147.410 49.592 C 147.074 49.870,146.800 50.259,146.800 50.455 C 146.800 50.958,143.951 55.267,143.103 56.047 C 142.716 56.403,142.400 56.864,142.400 57.071 C 142.400 57.279,142.033 57.843,141.584 58.325 C 141.136 58.806,140.873 59.200,141.000 59.200 C 141.127 59.200,141.045 59.425,140.817 59.700 C 140.589 59.975,139.550 61.370,138.507 62.800 C 137.464 64.230,136.474 65.460,136.306 65.533 C 136.138 65.607,136.000 65.911,136.000 66.211 C 136.000 66.510,135.595 67.038,135.100 67.385 C 134.605 67.732,134.290 68.096,134.400 68.195 C 134.510 68.293,134.297 68.728,133.927 69.161 C 133.556 69.593,132.930 70.454,132.536 71.074 C 132.142 71.693,131.590 72.344,131.310 72.520 C 131.029 72.696,130.800 73.111,130.800 73.443 C 130.800 73.776,130.620 73.936,130.400 73.800 C 130.180 73.664,130.000 73.788,130.000 74.077 C 130.000 74.365,129.280 75.388,128.400 76.351 C 127.520 77.313,126.800 78.250,126.800 78.432 C 126.800 78.615,126.350 79.214,125.800 79.764 C 125.250 80.314,124.794 80.907,124.787 81.082 C 124.765 81.612,123.302 83.200,122.836 83.200 C 122.596 83.200,122.400 83.380,122.400 83.600 C 122.400 83.820,122.085 84.342,121.700 84.760 C 119.628 87.008,118.800 88.056,118.800 88.431 C 118.800 88.660,118.620 88.736,118.400 88.600 C 118.180 88.464,118.000 88.504,118.000 88.690 C 118.000 89.192,116.418 91.182,114.500 93.093 C 113.565 94.025,112.800 94.970,112.800 95.193 C 112.800 95.417,112.530 95.600,112.200 95.600 C 111.870 95.600,111.600 95.801,111.600 96.047 C 111.600 96.293,110.880 97.214,110.000 98.094 C 109.120 98.974,108.400 99.853,108.400 100.047 C 108.400 100.241,108.130 100.400,107.800 100.400 C 107.470 100.400,107.200 100.552,107.200 100.739 C 107.200 101.271,105.756 102.800,105.253 102.800 C 105.004 102.800,104.800 102.993,104.800 103.229 C 104.800 103.770,103.787 104.800,103.256 104.800 C 103.035 104.800,102.749 105.131,102.620 105.536 C 102.492 105.941,101.940 106.511,101.393 106.804 C 100.847 107.096,100.400 107.451,100.400 107.592 C 100.400 108.170,96.638 111.600,96.003 111.600 C 95.782 111.600,95.600 111.864,95.600 112.186 C 95.600 112.508,95.239 112.965,94.798 113.201 C 94.358 113.437,93.374 114.253,92.612 115.015 C 91.850 115.777,91.030 116.400,90.790 116.400 C 90.549 116.400,90.464 116.580,90.600 116.800 C 90.736 117.020,90.610 117.200,90.320 117.200 C 90.030 117.200,89.568 117.560,89.293 118.000 C 89.018 118.440,88.616 118.800,88.400 118.800 C 87.977 118.800,86.264 120.158,85.246 121.300 C 84.903 121.685,84.477 122.000,84.299 122.000 C 84.121 122.000,83.422 122.630,82.746 123.400 C 82.070 124.170,81.306 124.800,81.048 124.800 C 80.790 124.800,80.024 125.295,79.346 125.900 C 76.898 128.084,74.301 130.207,73.657 130.550 C 73.296 130.742,72.818 131.102,72.595 131.350 C 72.019 131.991,69.926 133.407,69.100 133.714 C 68.715 133.858,68.400 134.130,68.400 134.320 C 68.400 134.510,67.455 135.275,66.300 136.019 C 65.145 136.764,64.020 137.513,63.800 137.683 C 60.453 140.278,59.200 141.180,59.200 140.994 C 59.200 140.870,58.795 141.149,58.300 141.613 C 57.805 142.078,56.545 142.940,55.500 143.529 C 54.456 144.118,53.601 144.746,53.600 144.924 C 53.600 145.102,53.420 145.136,53.200 145.000 C 52.980 144.864,52.800 144.923,52.800 145.130 C 52.800 145.338,52.328 145.817,51.751 146.195 C 51.049 146.655,50.804 146.704,51.011 146.341 C 51.181 146.044,50.708 146.363,49.960 147.052 C 48.487 148.408,46.797 149.427,46.270 149.275 C 46.089 149.223,46.038 149.338,46.158 149.532 C 46.349 149.841,44.445 150.986,44.045 150.803 C 43.959 150.764,43.779 150.901,43.645 151.108 C 43.266 151.690,36.802 155.645,36.788 155.303 C 36.781 155.136,36.592 155.315,36.368 155.700 C 36.144 156.085,35.604 156.400,35.168 156.400 C 34.732 156.400,34.271 156.670,34.145 157.000 C 34.018 157.330,33.763 157.600,33.577 157.600 C 33.392 157.600,32.411 158.160,31.397 158.844 C 30.383 159.528,28.799 160.493,27.877 160.988 C 23.905 163.119,22.191 164.143,22.067 164.461 C 21.993 164.647,21.703 164.800,21.421 164.800 C 21.139 164.800,20.464 165.149,19.922 165.575 C 19.380 166.002,18.448 166.473,17.850 166.623 C 17.252 166.773,16.855 166.988,16.968 167.101 C 17.178 167.311,15.474 168.800,15.023 168.800 C 14.886 168.800,14.245 169.340,13.600 170.000 C 12.955 170.660,12.230 171.200,11.990 171.200 C 11.749 171.200,11.647 171.353,11.763 171.540 C 11.878 171.727,11.535 172.114,11.000 172.400 C 10.465 172.686,10.122 173.073,10.237 173.260 C 10.353 173.447,10.291 173.600,10.101 173.600 C 9.910 173.600,8.871 174.815,7.792 176.300 C 6.713 177.785,5.702 179.092,5.546 179.204 C 5.391 179.316,5.140 179.900,4.989 180.501 C 4.838 181.103,4.573 181.507,4.400 181.400 C 4.227 181.293,3.963 181.693,3.813 182.289 C 3.664 182.885,3.221 184.098,2.830 184.986 C 1.610 187.751,1.474 188.178,1.571 188.944 C 1.623 189.353,1.494 189.581,1.284 189.452 C -1.186 187.925,0.328 214.127,2.818 216.000 C 2.964 216.110,3.304 216.875,3.573 217.700 C 3.842 218.525,4.192 219.200,4.351 219.200 C 4.509 219.200,4.867 219.830,5.146 220.600 C 5.424 221.370,5.820 222.000,6.026 222.000 C 6.232 222.000,6.400 222.276,6.400 222.613 C 6.400 222.949,6.670 223.329,7.000 223.455 C 7.330 223.582,7.600 223.922,7.600 224.212 C 7.600 224.502,8.320 225.444,9.200 226.307 C 10.080 227.169,10.800 228.083,10.800 228.338 C 10.800 228.592,10.965 228.800,11.166 228.800 C 11.367 228.800,12.136 229.385,12.875 230.100 C 14.621 231.789,17.734 233.989,19.707 234.927 C 20.315 235.216,20.690 235.576,20.540 235.727 C 20.390 235.877,20.522 236.000,20.833 236.000 C 21.145 236.000,22.876 236.879,24.681 237.953 C 26.486 239.026,28.061 239.806,28.181 239.686 C 28.301 239.565,28.400 239.674,28.400 239.928 C 28.400 240.182,28.985 240.663,29.700 240.997 C 30.415 241.332,31.720 242.046,32.600 242.584 C 33.480 243.122,34.470 243.694,34.800 243.856 C 35.130 244.018,36.253 244.747,37.296 245.475 C 38.339 246.204,39.361 246.800,39.567 246.800 C 39.774 246.800,40.181 247.025,40.471 247.301 C 41.198 247.989,44.046 249.799,44.900 250.115 C 45.285 250.258,45.600 250.561,45.600 250.787 C 45.600 251.014,45.825 251.205,46.100 251.211 C 46.543 251.221,53.128 255.362,54.225 256.321 C 54.459 256.525,55.089 256.923,55.625 257.206 C 56.161 257.488,56.690 257.828,56.800 257.961 C 56.910 258.094,57.810 258.742,58.800 259.401 C 60.942 260.828,61.412 261.178,62.429 262.100 C 62.853 262.485,63.354 262.800,63.542 262.800 C 63.729 262.800,64.369 263.250,64.962 263.800 C 65.556 264.350,66.130 264.800,66.238 264.800 C 66.551 264.800,74.996 271.149,77.145 273.000 C 77.656 273.440,78.642 274.292,79.337 274.894 C 80.032 275.495,80.725 275.990,80.878 275.994 C 81.030 275.997,81.831 276.619,82.656 277.375 C 83.482 278.131,84.281 278.673,84.433 278.580 C 84.585 278.486,84.807 278.785,84.928 279.245 C 85.048 279.704,85.338 279.962,85.573 279.817 C 85.808 279.672,86.000 279.747,86.000 279.985 C 86.000 280.223,86.450 280.622,87.000 280.873 C 87.550 281.123,88.000 281.570,88.000 281.864 C 88.000 282.159,88.238 282.400,88.528 282.400 C 88.818 282.400,89.424 282.805,89.875 283.300 C 90.325 283.795,91.838 285.190,93.238 286.400 C 94.637 287.610,96.820 289.635,98.088 290.900 C 99.357 292.165,100.531 293.208,100.697 293.218 C 100.864 293.229,101.360 293.698,101.800 294.261 C 102.240 294.824,103.125 295.761,103.767 296.343 C 104.896 297.365,105.497 298.002,107.116 299.893 C 107.537 300.384,107.998 300.669,108.141 300.526 C 108.283 300.383,108.400 300.457,108.400 300.689 C 108.400 300.921,109.165 301.916,110.100 302.901 C 114.859 307.913,117.802 311.273,117.818 311.711 C 117.828 311.980,118.053 312.155,118.318 312.100 C 118.583 312.045,118.800 312.171,118.800 312.379 C 118.800 312.588,119.221 313.213,119.736 313.769 C 120.251 314.324,121.016 315.255,121.436 315.838 C 121.856 316.420,122.648 317.325,123.196 317.849 C 123.744 318.372,124.019 318.800,123.807 318.800 C 123.595 318.800,123.822 319.080,124.311 319.423 C 124.800 319.765,125.200 320.214,125.200 320.419 C 125.200 320.625,125.706 321.290,126.325 321.897 C 126.944 322.503,128.069 323.900,128.825 325.000 C 129.581 326.100,130.290 327.090,130.400 327.200 C 131.300 328.100,133.664 331.303,134.044 332.137 C 134.304 332.708,134.671 333.080,134.858 332.964 C 135.046 332.848,135.200 332.943,135.200 333.176 C 135.200 333.409,135.200 333.690,135.200 333.800 C 135.200 333.910,135.515 334.333,135.900 334.740 C 137.030 335.934,137.905 337.076,138.400 338.000 C 138.654 338.475,139.163 339.215,139.531 339.645 C 139.899 340.074,140.119 340.465,140.021 340.513 C 139.922 340.561,140.427 341.238,141.143 342.019 C 141.859 342.799,142.660 343.809,142.923 344.264 C 143.185 344.719,143.794 345.791,144.276 346.646 C 144.757 347.501,145.612 348.723,146.176 349.362 C 146.739 350.001,147.200 350.774,147.200 351.080 C 147.200 351.385,147.650 352.120,148.200 352.713 C 148.750 353.306,149.496 354.423,149.859 355.196 C 150.222 355.968,150.648 356.690,150.806 356.800 C 151.351 357.179,154.024 361.600,153.712 361.606 C 153.541 361.609,153.657 361.775,153.972 361.974 C 154.286 362.173,154.588 362.640,154.643 363.011 C 154.697 363.383,155.115 364.034,155.571 364.459 C 156.027 364.884,156.400 365.494,156.400 365.816 C 156.400 366.137,156.560 366.400,156.757 366.400 C 156.953 366.400,157.401 367.120,157.753 368.000 C 158.105 368.880,158.575 369.600,158.797 369.600 C 159.019 369.600,159.200 369.857,159.200 370.171 C 159.200 370.486,159.425 370.988,159.700 371.288 C 160.418 372.072,161.098 373.198,161.810 374.786 C 162.151 375.548,162.563 376.268,162.724 376.386 C 163.178 376.719,164.152 378.953,164.036 379.400 C 163.980 379.620,164.067 379.666,164.230 379.503 C 164.393 379.340,165.026 380.195,165.635 381.403 C 166.245 382.612,167.026 383.883,167.372 384.229 C 167.717 384.574,168.000 385.013,168.000 385.203 C 168.000 385.393,169.225 386.820,170.721 388.374 C 172.218 389.928,173.348 391.200,173.232 391.200 C 173.117 391.200,173.467 391.504,174.011 391.876 C 174.555 392.248,175.144 392.788,175.320 393.076 C 175.496 393.364,175.809 393.600,176.016 393.600 C 176.224 393.600,177.192 394.210,178.169 394.956 C 182.698 398.412,189.727 400.925,196.233 401.413 L 200.002 401.695 199.901 335.348 L 199.800 269.000 197.600 268.889 C 171.052 267.543,147.075 250.774,136.942 226.465 C 118.861 183.085,149.977 135.145,197.800 132.702 L 199.800 132.600 199.901 66.273 L 200.002 -0.054 197.101 0.056 C 195.506 0.116,193.480 0.322,192.600 0.514 M200.400 200.858 L 200.400 268.515 203.700 268.241 C 262.539 263.354,288.955 194.340,247.682 153.334 C 235.300 141.032,217.444 133.200,201.780 133.200 L 200.400 133.200 200.400 200.858 " stroke="none" fill="#fcb38b" fill-rule="evenodd"></path><path id="path2" d="M196.800 132.828 L 193.800 133.056 196.900 133.128 L 200.000 133.200 200.000 200.800 L 200.000 268.400 196.900 268.472 L 193.800 268.544 196.800 268.772 C 198.450 268.898,199.935 268.945,200.100 268.877 C 200.492 268.715,200.492 132.885,200.100 132.723 C 199.935 132.655,198.450 132.702,196.800 132.828 M204.900 133.476 C 205.285 133.576,205.915 133.576,206.300 133.476 C 206.685 133.375,206.370 133.293,205.600 133.293 C 204.830 133.293,204.515 133.375,204.900 133.476 M208.500 133.876 C 208.885 133.976,209.515 133.976,209.900 133.876 C 210.285 133.775,209.970 133.693,209.200 133.693 C 208.430 133.693,208.115 133.775,208.500 133.876 M185.000 134.419 C 184.442 134.671,184.685 134.707,185.800 134.538 C 186.680 134.404,187.475 134.228,187.567 134.147 C 187.910 133.844,185.768 134.071,185.000 134.419 M215.800 135.146 C 216.240 135.339,217.230 135.610,218.000 135.750 C 218.961 135.924,219.149 135.894,218.600 135.654 C 218.160 135.461,217.170 135.190,216.400 135.050 C 215.439 134.876,215.251 134.906,215.800 135.146 M175.400 137.414 C 174.400 137.896,174.366 137.951,175.200 137.748 C 176.333 137.471,177.607 136.821,177.000 136.830 C 176.780 136.833,176.060 137.096,175.400 137.414 M172.000 138.800 C 171.230 139.222,170.780 139.566,171.000 139.566 C 171.220 139.566,172.030 139.222,172.800 138.800 C 173.570 138.378,174.020 138.034,173.800 138.034 C 173.580 138.034,172.770 138.378,172.000 138.800 M166.700 141.429 C 165.205 142.240,165.296 142.578,166.800 141.800 C 167.460 141.459,168.000 141.094,168.000 140.990 C 168.000 140.732,167.957 140.747,166.700 141.429 M234.200 142.607 C 234.640 142.966,235.360 143.435,235.800 143.651 L 236.600 144.044 235.800 143.393 C 235.360 143.034,234.640 142.565,234.200 142.349 L 233.400 141.956 234.200 142.607 M238.000 144.927 C 238.000 145.024,239.035 145.881,240.300 146.830 C 241.565 147.779,242.383 148.287,242.118 147.959 C 241.575 147.285,238.000 144.654,238.000 144.927 M154.600 150.278 C 153.500 151.294,152.960 151.932,153.400 151.695 C 154.162 151.286,157.153 148.383,156.778 148.416 C 156.680 148.425,155.700 149.263,154.600 150.278 M244.000 149.800 C 244.746 150.570,245.447 151.200,245.557 151.200 C 245.667 151.200,245.146 150.570,244.400 149.800 C 243.654 149.030,242.953 148.400,242.843 148.400 C 242.733 148.400,243.254 149.030,244.000 149.800 M247.042 152.633 C 247.679 153.202,248.604 154.147,249.098 154.733 C 249.592 155.320,249.997 155.661,249.998 155.491 C 250.001 155.013,246.750 151.600,246.291 151.600 C 246.067 151.600,246.404 152.065,247.042 152.633 M147.978 157.100 L 146.600 158.600 148.100 157.222 C 148.925 156.463,149.600 155.788,149.600 155.722 C 149.600 155.416,149.262 155.704,147.978 157.100 M250.400 156.125 C 250.400 156.194,250.985 156.779,251.700 157.425 L 253.000 158.600 251.825 157.300 C 250.730 156.088,250.400 155.816,250.400 156.125 M254.370 160.900 C 255.319 162.165,256.176 163.200,256.273 163.200 C 256.546 163.200,253.915 159.625,253.241 159.082 C 252.913 158.817,253.421 159.635,254.370 160.900 M143.892 162.233 C 142.293 164.500,140.925 166.737,141.465 166.200 C 142.114 165.555,145.592 160.400,145.378 160.400 C 145.271 160.400,144.602 161.225,143.892 162.233 M137.265 173.817 C 136.595 175.288,136.723 175.602,137.447 174.265 C 137.786 173.640,137.988 173.054,137.896 172.963 C 137.805 172.871,137.521 173.256,137.265 173.817 M262.629 175.200 C 262.776 175.750,263.064 176.470,263.267 176.800 C 263.525 177.217,263.557 177.095,263.371 176.400 C 263.224 175.850,262.936 175.130,262.733 174.800 C 262.475 174.383,262.443 174.505,262.629 175.200 M264.061 178.800 C 264.061 179.130,264.303 180.030,264.600 180.800 C 264.897 181.570,265.139 181.930,265.139 181.600 C 265.139 181.270,264.897 180.370,264.600 179.600 C 264.303 178.830,264.061 178.470,264.061 178.800 M134.229 182.229 C 134.081 182.815,134.038 183.372,134.132 183.466 C 134.227 183.560,134.424 183.158,134.571 182.571 C 134.719 181.985,134.762 181.428,134.668 181.334 C 134.573 181.240,134.376 181.642,134.229 182.229 M265.668 184.400 C 265.688 185.439,266.318 187.146,266.332 186.200 C 266.338 185.760,266.189 185.040,266.000 184.600 C 265.789 184.110,265.661 184.032,265.668 184.400 M132.493 190.800 C 132.493 191.570,132.575 191.885,132.676 191.500 C 132.776 191.115,132.776 190.485,132.676 190.100 C 132.575 189.715,132.493 190.030,132.493 190.800 M267.400 200.600 C 267.400 205.440,267.522 208.590,267.670 207.600 C 268.015 205.304,268.012 196.418,267.665 193.800 C 267.519 192.700,267.400 195.760,267.400 200.600 M132.093 193.600 C 132.093 194.370,132.175 194.685,132.276 194.300 C 132.376 193.915,132.376 193.285,132.276 192.900 C 132.175 192.515,132.093 192.830,132.093 193.600 M131.693 200.800 C 131.693 201.570,131.775 201.885,131.876 201.500 C 131.976 201.115,131.976 200.485,131.876 200.100 C 131.775 199.715,131.693 200.030,131.693 200.800 M132.093 207.600 C 132.093 208.370,132.175 208.685,132.276 208.300 C 132.376 207.915,132.376 207.285,132.276 206.900 C 132.175 206.515,132.093 206.830,132.093 207.600 M266.200 214.400 C 266.048 215.091,266.007 215.741,266.109 215.842 C 266.211 215.944,266.409 215.453,266.550 214.750 C 266.691 214.047,266.731 213.398,266.641 213.308 C 266.550 213.217,266.352 213.709,266.200 214.400 M261.472 228.619 C 260.532 230.589,260.664 230.924,261.647 229.062 C 262.093 228.216,262.387 227.454,262.301 227.367 C 262.214 227.281,261.841 227.844,261.472 228.619 M259.800 232.000 C 259.459 232.660,259.269 233.200,259.379 233.200 C 259.489 233.200,259.859 232.660,260.200 232.000 C 260.541 231.340,260.731 230.800,260.621 230.800 C 260.511 230.800,260.141 231.340,259.800 232.000 M258.352 234.500 C 258.090 234.995,257.615 235.850,257.296 236.400 C 256.739 237.359,256.743 237.367,257.388 236.600 C 258.186 235.652,259.305 233.600,259.024 233.600 C 258.916 233.600,258.614 234.005,258.352 234.500 M255.600 238.800 C 255.130 239.460,254.836 240.000,254.946 240.000 C 255.056 240.000,255.530 239.460,256.000 238.800 C 256.470 238.140,256.764 237.600,256.654 237.600 C 256.544 237.600,256.070 238.140,255.600 238.800 M145.242 240.998 C 145.952 241.987,146.891 243.112,147.329 243.498 C 147.767 243.884,147.258 243.075,146.198 241.700 C 143.973 238.813,143.337 238.346,145.242 240.998 M248.626 247.120 C 245.095 250.877,244.712 251.366,247.155 249.000 C 250.060 246.186,253.921 241.964,253.537 242.020 C 253.462 242.031,251.252 244.326,248.626 247.120 M151.600 248.200 C 153.460 250.070,155.072 251.600,155.182 251.600 C 155.292 251.600,153.860 250.070,152.000 248.200 C 150.140 246.330,148.528 244.800,148.418 244.800 C 148.308 244.800,149.740 246.330,151.600 248.200 M156.000 252.238 C 156.000 252.511,157.297 253.587,159.774 255.370 C 161.893 256.894,161.199 256.175,158.300 253.842 C 157.035 252.824,156.000 252.102,156.000 252.238 M232.300 259.829 C 230.805 260.640,230.896 260.978,232.400 260.200 C 233.060 259.859,233.600 259.494,233.600 259.390 C 233.600 259.132,233.557 259.147,232.300 259.829 M168.800 260.998 C 168.800 261.267,172.849 263.284,173.029 263.105 C 173.111 263.023,172.193 262.473,170.989 261.882 C 169.785 261.292,168.800 260.894,168.800 260.998 M225.400 263.229 C 224.520 263.652,224.250 263.886,224.800 263.749 C 225.933 263.467,228.012 262.425,227.400 262.446 C 227.180 262.453,226.280 262.806,225.400 263.229 M221.800 264.614 C 220.800 265.096,220.766 265.151,221.600 264.948 C 222.733 264.671,224.007 264.021,223.400 264.030 C 223.180 264.033,222.460 264.296,221.800 264.614 M180.600 266.000 C 181.040 266.189,181.670 266.344,182.000 266.344 C 182.378 266.344,182.304 266.217,181.800 266.000 C 181.360 265.811,180.730 265.656,180.400 265.656 C 180.022 265.656,180.096 265.783,180.600 266.000 M217.200 266.000 C 216.376 266.264,216.341 266.326,217.000 266.354 C 217.440 266.373,218.070 266.213,218.400 266.000 C 219.101 265.547,218.614 265.547,217.200 266.000 M185.400 267.200 C 185.840 267.389,186.560 267.538,187.000 267.532 C 187.643 267.523,187.604 267.457,186.800 267.200 C 185.432 266.762,184.381 266.762,185.400 267.200 M209.200 267.600 C 207.850 267.884,207.843 267.895,209.000 267.900 C 209.660 267.903,210.740 267.768,211.400 267.600 C 213.060 267.178,211.207 267.178,209.200 267.600 M205.105 268.283 C 205.602 268.379,206.322 268.375,206.705 268.275 C 207.087 268.175,206.680 268.096,205.800 268.101 C 204.920 268.105,204.607 268.187,205.105 268.283 " stroke="none" fill="#fc7b4e" fill-rule="evenodd"></path><path id="path3" d="M200.360 132.920 C 200.546 133.106,201.306 133.196,202.049 133.119 C 203.367 132.983,203.358 132.975,201.710 132.780 C 200.781 132.671,200.173 132.733,200.360 132.920 M151.385 153.700 L 149.400 155.800 151.500 153.815 C 152.655 152.723,153.600 151.778,153.600 151.715 C 153.600 151.417,153.229 151.749,151.385 153.700 M200.257 268.707 C 200.153 268.876,200.772 268.948,201.634 268.865 C 202.495 268.783,203.200 268.645,203.200 268.558 C 203.200 268.260,200.447 268.400,200.257 268.707 " stroke="none" fill="#fc6635" fill-rule="evenodd"></path><path id="path4" d="M200.097 66.076 C 200.044 102.528,200.135 132.436,200.300 132.538 C 200.571 132.706,200.570 87.536,200.297 23.800 C 200.240 10.600,200.150 29.624,200.097 66.076 M204.105 133.087 C 204.714 133.179,205.614 133.177,206.105 133.082 C 206.597 132.987,206.100 132.911,205.000 132.914 C 203.900 132.917,203.497 132.995,204.105 133.087 M199.795 200.800 C 199.795 238.090,199.842 253.345,199.900 234.700 C 199.957 216.055,199.957 185.545,199.900 166.900 C 199.842 148.255,199.795 163.510,199.795 200.800 M248.800 153.800 C 249.546 154.570,250.247 155.200,250.357 155.200 C 250.467 155.200,249.946 154.570,249.200 153.800 C 248.454 153.030,247.753 152.400,247.643 152.400 C 247.533 152.400,248.054 153.030,248.800 153.800 M132.151 200.800 C 132.151 203.330,132.216 204.365,132.296 203.100 C 132.375 201.835,132.375 199.765,132.296 198.500 C 132.216 197.235,132.151 198.270,132.151 200.800 M268.109 200.800 C 268.109 201.790,268.187 202.195,268.282 201.700 C 268.378 201.205,268.378 200.395,268.282 199.900 C 268.187 199.405,268.109 199.810,268.109 200.800 M247.991 248.300 L 244.600 251.800 248.100 248.409 C 251.351 245.259,251.782 244.800,251.491 244.800 C 251.431 244.800,249.856 246.375,247.991 248.300 M152.000 248.200 C 153.417 249.630,154.667 250.800,154.777 250.800 C 154.887 250.800,153.817 249.630,152.400 248.200 C 150.983 246.770,149.733 245.600,149.623 245.600 C 149.513 245.600,150.583 246.770,152.000 248.200 M170.800 261.800 C 171.350 262.114,171.980 262.372,172.200 262.372 C 172.420 262.372,172.150 262.114,171.600 261.800 C 171.050 261.486,170.420 261.228,170.200 261.228 C 169.980 261.228,170.250 261.486,170.800 261.800 M190.900 267.876 C 191.285 267.976,191.915 267.976,192.300 267.876 C 192.685 267.775,192.370 267.693,191.600 267.693 C 190.830 267.693,190.515 267.775,190.900 267.876 M203.900 268.682 C 204.395 268.778,205.205 268.778,205.700 268.682 C 206.195 268.587,205.790 268.509,204.800 268.509 C 203.810 268.509,203.405 268.587,203.900 268.682 M200.185 269.300 C 200.080 269.575,200.041 299.500,200.097 335.800 L 200.200 401.800 200.400 335.300 C 200.510 298.725,200.549 268.800,200.487 268.800 C 200.426 268.800,200.289 269.025,200.185 269.300 " stroke="none" fill="#fc5c2c" fill-rule="evenodd"></path></g></svg>