<svg version="1.1" id="Layer_1" xmlns="http://www.w3.org/2000/svg" xmlns:xlink="http://www.w3.org/1999/xlink" x="0px" y="0px"
	 viewBox="0 0 66 58" style="enable-background:new 0 0 66 58;" xml:space="preserve">
<style type="text/css">
	.st0{fill:#F3F9FA;}
</style>
<g>
	<path class="st0" d="M24.2,4.4l-23,40.2c-2.8,5-0.4,11,4.5,12.8c-0.4-2-0.1-4.1,1.1-6.2L30.4,9.9c2-3.6,6-5.1,9.7-4.4l-0.6-1.1
		C36.1-1.5,27.6-1.5,24.2,4.4z"/>
	<path class="st0" d="M32.4,14.1L13.6,47C10.9,51.6,14,57.4,19,58c0-1.3,0.3-2.7,1-3.9l18.7-32.7c1.9-3.1,5.5-4.2,8.5-3.3L45,14.1
		C42.2,9.1,35.2,9.1,32.4,14.1z"/>
	<path class="st0" d="M41.1,24.1L26.5,49.5C24.3,53.3,27,58,31.3,58h20.8h2.7h2.7h2.8c4.3,0,7-4.7,4.9-8.5L63.9,47l-1.4-2.4
		l-5.8-10.2l-5.8-10.2C48.6,20.3,43.2,20.3,41.1,24.1z M61.2,42.3l-0.5-0.8L61.2,42.3z"/>
</g>
</svg>
