<?xml version="1.0" encoding="utf-8"?>
<!-- Generator: Adobe Illustrator 26.3.1, SVG Export Plug-In . SVG Version: 6.00 Build 0)  -->
<svg version="1.1" id="Layer_1" xmlns="http://www.w3.org/2000/svg" xmlns:xlink="http://www.w3.org/1999/xlink" x="0px" y="0px"
	 viewBox="0 0 148 32" style="enable-background:new 0 0 148 32;" xml:space="preserve">
<style type="text/css">
	.st0{fill:#8247E5;}
</style>
<path class="st0" d="M28.7,9.6c-0.7-0.4-1.6-0.4-2.4,0l-5.4,3.1l-3.7,2l-5.4,3.1c-0.7,0.4-1.6,0.4-2.4,0l-4.3-2.4
	C4.4,14.9,4,14.2,4,13.4V8.7c0-0.8,0.4-1.5,1.2-1.9l4.2-2.3C10.1,4,11,4,11.8,4.4L16,6.7c0.7,0.4,1.2,1.1,1.2,1.9v3.1l3.7-2.1V6.6
	c0-0.8-0.4-1.5-1.2-1.9l-7.9-4.4c-0.7-0.4-1.6-0.4-2.4,0l-8,4.4C0.7,5.1,0.3,5.8,0.3,6.6v8.8c0,0.8,0.4,1.5,1.2,1.9l8,4.4
	c0.7,0.4,1.6,0.4,2.4,0l5.4-3l3.7-2.1l5.4-3c0.7-0.4,1.6-0.4,2.4,0l4.2,2.3c0.7,0.4,1.2,1.1,1.2,1.9v4.7c0,0.8-0.4,1.5-1.2,1.9
	L28.7,27c-0.7,0.4-1.6,0.4-2.4,0l-4.2-2.3c-0.7-0.4-1.2-1.1-1.2-1.9v-3.1l-3.7,2.1v3.1c0,0.8,0.4,1.5,1.2,1.9l8,4.4
	c0.7,0.4,1.6,0.4,2.4,0l8-4.4c0.7-0.4,1.2-1.1,1.2-1.9V16c0-0.8-0.4-1.5-1.2-1.9L28.7,9.6z"/>
</svg>
