<?xml version="1.0" encoding="utf-8"?>
<!-- Generator: Adobe Illustrator 26.3.1, SVG Export Plug-In . SVG Version: 6.00 Build 0)  -->
<svg version="1.1" id="Layer_1" xmlns="http://www.w3.org/2000/svg" xmlns:xlink="http://www.w3.org/1999/xlink" x="0px" y="0px"
	 viewBox="0 0 81.2 41" style="enable-background:new 0 0 81.2 41;" xml:space="preserve">
<style type="text/css">
	.st0{fill-rule:evenodd;clip-rule:evenodd;}
</style>
<g id="Page-1">
	<g id="logo" transform="translate(-34.000000, -34.000000)">
		<path class="st0" d="M47.1,45.7c0.2-1,1.1-1.8,2.2-1.8h8.9c1.2,0,1.7-0.5,2.4-1.6l3.9-7.2c0.4-0.7,1.1-1.1,1.9-1.1h32.9
			c0.8,0,1.6,0.6,1.6,1.5c1.3,16,3,26.8,13.6,36.6c1.1,1,0.4,3-1.1,3H35.7c-1.5,0-2.3-1.9-1.1-3c7.6-7,10.6-14.7,12.3-24.6
			c0.1-0.5,0.2-1,0.3-1.5C47.1,45.9,47.1,45.8,47.1,45.7z"/>
	</g>
</g>
</svg>
